<?xml version="1.0" encoding="utf-8"?>
<!-- Generator: Adobe Illustrator 19.2.0, SVG Export Plug-In . SVG Version: 6.00 Build 0)  -->
<svg version="1.1" id="Capa_1" xmlns="http://www.w3.org/2000/svg" xmlns:xlink="http://www.w3.org/1999/xlink" x="0px" y="0px"
	 viewBox="0 0 1140.3 212.2" style="enable-background:new 0 0 1140.3 212.2;" xml:space="preserve">
<style type="text/css">
	.st0{fill:#E89049;}
</style>
<g>
	<circle class="st0" cx="22.5" cy="22.5" r="22.5"/>
	<polygon class="st0" points="67.8,120.9 41.8,112.3 41.8,53.1 3.8,53.1 3.8,212.1 41.8,212.1 41.8,137.6 60.5,143.8 	"/>
</g>
<g>
	<circle cx="109.6" cy="22.5" r="22.5"/>
	<polygon points="90.8,110.4 58.8,135.2 73.6,154.2 90.8,140.9 90.8,212.1 127.8,212.1 127.8,53.1 90.8,53.1 	"/>
</g>
<g>
	<path d="M193.7,160.3V53.4h16v106.8L193.7,160.3L193.7,160.3z"/>
	<path d="M332.3,53.9v105.5L269.4,93v67.4h-15.8v-107l62.9,66.9V53.9H332.3z"/>
	<path d="M405.5,160.1c-11.5,0-22.1-4.1-31.9-12.4l8.2-11.4c7.5,6.1,15.2,9.2,22.9,9.2c3.8,0,7.2-0.9,10.2-2.6
		c3.1-1.7,5.2-3.8,6.4-6.3c1.2-2.4,1.8-4.7,1.8-6.8c0-0.3,0-0.8-0.1-1.4c0-0.7-0.3-1.7-0.7-3.2c-0.4-1.5-1.5-3.1-3.1-4.8
		c-1.6-1.7-3.6-3.2-5.7-4.5c-2.2-1.3-4.6-2.6-7.4-3.9s-4.5-2.1-5-2.4c-8.9-4.2-14.8-8.6-17.7-13c-3-4.4-4.5-9.4-4.5-14.8
		c0-5,1.3-9.8,4-14.3c2.7-4.6,6.6-8.1,11.7-10.5s10.5-3.7,16.2-3.7c4.5,0,9.2,0.8,13.9,2.3c4.8,1.5,9,3.6,12.8,6.4l-7.2,11.6
		c-2.7-1.8-5.7-3.3-8.9-4.5c-3.2-1.2-6.4-1.8-9.5-1.8c-4.9,0-8.9,1.3-12.1,4s-4.7,6-4.7,10c0,2.5,0.6,4.8,1.9,6.6
		c1.3,1.9,3,3.6,5.1,5.1s5.5,3.4,10,5.6s8,3.9,10.2,5.1c2.3,1.2,4.5,2.6,6.7,4.4c2.2,1.7,4.1,3.5,5.5,5.4c1.5,1.8,2.7,4.1,3.8,6.7
		c1.1,2.6,1.6,5.8,1.6,9.6c0,4.1-0.8,8.1-2.4,11.9s-3.9,7-6.9,9.8s-6.7,4.9-11,6.5C415.5,159.3,410.7,160.1,405.5,160.1z"/>
	<path d="M551.2,53.4v14.7h-28.8v92.2h-16.1V68.1h-29V53.4L551.2,53.4L551.2,53.4z"/>
	<path d="M643.6,160.3l-8.4-22.6h-39.3l-8.4,22.6h-16.8l45-106.4l44.9,106.4H643.6z M600.9,125.2h29.5l-14.7-37.6L600.9,125.2z"/>
	<path d="M808.9,53.4h16v106.8h-16v-46.6h-41v46.6h-16V53.4h16V99h41V53.4z"/>
	<path d="M921.7,68h-28.1v31.2h23v14.4h-23v32.2h31.5v14.6h-40.4h-7.1v-107h16h28.1V68z"/>
	<path d="M995.3,145.7h29.1v14.6h-45.1V53.4h16L995.3,145.7L995.3,145.7z"/>
	<path d="M1103.3,53.4c4.5,0,8.8,0.8,12.9,2.5s7.5,3.9,10.4,6.8s5.1,6.3,6.7,10.2c1.6,3.9,2.4,8,2.4,12.2c0,5.5-1.4,10.8-4.1,15.9
		s-6.7,9.1-11.9,11.9c-5.2,2.8-10.7,4.2-16.5,4.2h-12.6v43.3h-15.8v-107h15.8H1103.3z M1102.5,102.6c3.8,0,7-1,9.8-2.9
		s4.7-4.3,5.7-7s1.6-5.3,1.6-7.6c0-2.3-0.5-4.8-1.6-7.5c-1-2.7-3-5-5.8-6.9s-6.1-2.8-9.8-2.8h-11.9v34.8h12V102.6z"/>
</g>
<rect x="193.5" y="197.4" width="946.8" height="14.8"/>
</svg>
