<?xml version="1.0" encoding="utf-8"?>
<!-- Generator: Adobe Illustrator 19.2.0, SVG Export Plug-In . SVG Version: 6.00 Build 0)  -->
<svg version="1.1" id="Capa_1" xmlns="http://www.w3.org/2000/svg" xmlns:xlink="http://www.w3.org/1999/xlink" x="0px" y="0px"
	 viewBox="0 0 259 243" style="enable-background:new 0 0 259 243;" xml:space="preserve">
<style type="text/css">
	.st0{fill:#E89049;}
	.st1{fill:#FFFFFF;stroke:#000000;stroke-width:5;stroke-linecap:round;stroke-linejoin:round;stroke-miterlimit:10;}
</style>
<circle class="st0" cx="129.4" cy="121.5" r="121.5"/>
<path d="M469.4,267.2c0.9,0.1,1.3,0.2,1.7,0.2c-0.2,0.1-0.5,0.3-0.7,0.3C470.2,267.8,470.1,267.6,469.4,267.2z"/>
<g>
	<g>
		<path class="st1" d="M199.1,88.8H168l-7.2-14.4c-1.5-3.1-5.9-3.1-7.5,0L140.5,100l-15.2-33.8c-1.5-3.3-6.3-3.3-7.7,0.1l-9.4,22.5
			H81.5c-11.4-13.9-10.8-34.6,1.9-47.6l0.6-0.6c13.5-13.8,35.5-13.8,49,0l7.3,7.4l7.3-7.5c13.5-13.7,35.5-13.7,49,0l0.6,0.7
			C209.9,54.2,210.5,74.9,199.1,88.8z M162.8,97.2h28.5l-47.7,48.8c-1.9,1.9-4.9,1.9-6.7,0L89.2,97.2h24.6l7.8-18.7l14.9,33
			c1.4,3.2,6,3.3,7.6,0.2l13-26L162.8,97.2z"/>
	</g>
	<g>
		<path class="st1" d="M199.2,177.5l-39.5,31.6c-3,2.4-6.7,3.7-10.5,3.7H56c-2.3,0-4.2-1.9-4.2-4.2v-25.1c0-2.3,1.9-4.2,4.2-4.2
			h14.5l12.2-9.9c5.5-4.4,12.3-6.9,19.4-6.9h41.8c5.1,0,9.1,4.5,8.3,9.8c-0.7,4.1-4.5,7-8.7,7h-20.5c-2.3,0-4.2,1.9-4.2,4.2
			c0,2.3,1.9,4.2,4.2,4.2h30.9c3.8,0,7.5-1.3,10.5-3.7l24.2-19.3c3.2-2.6,8.1-2.8,11.1,0C203.5,168.3,203.2,174.3,199.2,177.5z"/>
	</g>
</g>
</svg>
