<?xml version="1.0" encoding="utf-8"?>
<!-- Generator: Adobe Illustrator 19.2.0, SVG Export Plug-In . SVG Version: 6.00 Build 0)  -->
<svg version="1.1" id="Capa_1" xmlns="http://www.w3.org/2000/svg" xmlns:xlink="http://www.w3.org/1999/xlink" x="0px" y="0px"
	 viewBox="0 0 259 243" style="enable-background:new 0 0 259 243;" xml:space="preserve">
<style type="text/css">
	.st0{fill:#E89049;}
	.st1{fill:#FFFFFF;stroke:#000000;stroke-width:5;}
</style>
<circle class="st0" cx="129.4" cy="121.5" r="121.5"/>
<path d="M469.4,267.2c0.9,0.1,1.3,0.2,1.7,0.2c-0.2,0.1-0.5,0.3-0.7,0.3C470.2,267.8,470.1,267.6,469.4,267.2z"/>
<path class="st1" d="M130.7,36.7c-0.1-0.1-0.9-0.4-1.1-0.4c-0.3,0-1,0.3-1.3,0.4L46,104.6v111.3c0,2,1.7,3.7,3.7,3.7l159.9-0.1
	c2,0,3.7-1.7,3.7-3.7V104.6L130.7,36.7z"/>
<path class="st1" d="M256.7,123.6c0-0.4-0.4-1.1-0.7-1.4l-39.2-32.4V25.2c0-1-0.9-1.9-1.9-1.9h-25.5c-1,0-1.9,0.9-1.9,1.9v40.5
	L141,27.5c-2.7-2.1-8.2-4.2-11.6-4.2c-3.4,0-8.9,2-11.6,4.2L3,122.1c-0.3,0.3-0.7,1-0.7,1.4c0,0.3,0.3,1,0.4,1.1l11.6,14
	c0.3,0.3,1.1,0.7,1.4,0.7c0.3,0,1-0.3,1.1-0.4l106.8-87.9c1.6-1.1,3.9-2,5.7-2c1.9,0,4.3,0.9,5.7,2L241.9,139
	c0.3,0.1,0.9,0.4,1.1,0.4c0.3,0,1.1-0.4,1.4-0.7l11.6-14C256.4,124.6,256.7,123.9,256.7,123.6z"/>
<path class="st1" d="M151.1,132.3c0.8,0.8,1.6,1.4,2.5,2.1l-61.1,65.8c-5.2,5.6-14,5.7-19.4,0.3c-5.4-5.4-5.2-14.2,0.3-19.4
	l64.8-62.1c0.7,0.9,1.3,1.8,2.2,2.6L151.1,132.3z"/>
<path class="st1" d="M193.8,140L174,159.7c-1.4,1.4-3.6,1.4-4.9,0l-4.9-4.9c-1.4-1.4-1.4-3.6,0-4.9l2.5-2.5l-6.3-6.3
	c-4.7,1.2-9.8,0.1-13.5-3.6l-10.7-10.7c-2.6-2.6-4.1-6.2-4.1-9.9v-4.1l-19.8-9.9c13.6-13.6,35.8-13.6,49.4,0l9.9,9.9
	c3.6,3.6,4.8,8.8,3.6,13.5l6.3,6.3l2.5-2.5c1.4-1.4,3.6-1.4,4.9,0l4.9,4.9C195.2,136.4,195.2,138.6,193.8,140z"/>
</svg>
