<?xml version="1.0" encoding="utf-8"?>
<!-- Generator: Adobe Illustrator 19.2.0, SVG Export Plug-In . SVG Version: 6.00 Build 0)  -->
<svg version="1.1" id="Capa_1" xmlns="http://www.w3.org/2000/svg" xmlns:xlink="http://www.w3.org/1999/xlink" x="0px" y="0px"
	 viewBox="0 0 259 243" style="enable-background:new 0 0 259 243;" xml:space="preserve">
<style type="text/css">
	.st0{fill:#E89049;}
	.st1{fill:#FFFFFF;}
	.st2{fill:#F7F7F8;}
	.st3{fill:none;}
	.st4{fill:#FFFFFF;stroke:#000000;stroke-width:5;stroke-linecap:round;stroke-linejoin:round;stroke-miterlimit:10;}
	.st5{fill:none;stroke:#000000;stroke-width:5;stroke-linecap:round;stroke-linejoin:round;stroke-miterlimit:10;}
</style>
<circle class="st0" cx="129.4" cy="121.5" r="121.5"/>
<g>
	<path class="st1" d="M90.9,149.3c-4.2,0-8.3-1-12-2.8l-1.2,7.7l11.3,10l11.7-10.2v-6.5C97.7,148.7,94.3,149.3,90.9,149.3z"/>
	<path class="st1" d="M72.9,158l-17.3,9.4c-1,0.5-1.8,1.3-2.5,2.2l11.4,10.1c4.7,4.2,7.5,10.2,7.5,16.5v21.6H86v-48.1L72.9,158z"/>
	<path class="st1" d="M126.6,217.3v-41.1l-9,7.9c-3.5,3-5.4,7.5-5.4,12v21.6h14.1C126.5,217.7,126.6,217.6,126.6,217.3z"/>
	<path class="st1" d="M113.7,179.7l11.4-10.1c-0.6-0.8-1.4-1.6-2.5-2.2l-17.3-9.4l-13.1,11.5v48.1h14.2V196
		C106.2,189.8,109,183.8,113.7,179.7z"/>
	<path class="st1" d="M65.9,196.2c0-4.6-1.9-8.9-5.4-12l-9-7.9v41.1c0,0.2,0.2,0.4,0.4,0.4h14.1V196.2z"/>
	<path class="st2" d="M50.3,171.1L50.3,171.1L50.3,171.1z"/>
	<path class="st2" d="M68.9,220.7L68.9,220.7L68.9,220.7z"/>
	<path class="st2" d="M109.2,220.7L109.2,220.7L109.2,220.7z"/>
	<line class="st3" x1="74.7" y1="154.4" x2="74.7" y2="154.4"/>
	<line class="st3" x1="103.8" y1="154.4" x2="103.8" y2="154.4"/>
	<path class="st1" d="M79.7,78.3c0.2-0.1,0.4-0.1,0.6-0.2c0.5-0.2,1-0.4,1.4-0.5c0.1,0,0.4-0.1,0.5-0.2c0.6-0.2,1.3-0.4,1.9-0.6
		c0.1,0,0.2,0,0.4-0.1c0.5-0.1,1.1-0.2,1.6-0.4c0.2,0,0.5-0.1,0.6-0.1c0.5-0.1,1-0.1,1.4-0.1c0.2,0,0.4,0,0.6,0c0.7,0,1.3-0.1,2-0.1
		c0.7,0,1.3,0,2,0.1c0.2,0,0.4,0,0.6,0c0.5,0,1,0.1,1.4,0.1c0.2,0,0.5,0.1,0.6,0.1c0.5,0.1,1.1,0.2,1.6,0.4c0.1,0,0.2,0,0.4,0.1
		c0.6,0.1,1.3,0.4,1.9,0.6c0.1,0,0.4,0.1,0.5,0.1c0.5,0.1,1,0.4,1.4,0.5c0.2,0.1,0.4,0.1,0.6,0.2c0.5,0.2,1,0.4,1.3,0.6
		c0.1,0.1,0.4,0.1,0.5,0.2c0.1,0,0.1,0.1,0.2,0.1c0.1-0.6,0.1-1.3,0.1-1.9c0-7.6-6-13.7-13.3-13.7c-7.3,0-13.3,6.1-13.3,13.7
		c0,0.6,0,1.3,0.1,1.9c0.1,0,0.1-0.1,0.2-0.1c0.1-0.1,0.4-0.1,0.5-0.2C78.8,78.7,79.3,78.5,79.7,78.3z"/>
	<path class="st1" d="M90.9,143.3c13.2,0,24.2-12,25.5-27.5c-1.4,0-2.9,0.1-4.2,0.1c-17.2,0-25.6-4.4-29.8-9
		c-4.2,5-12.6,7.3-17.1,8.3C66.4,130.9,77.5,143.3,90.9,143.3z"/>
	<path class="st1" d="M78.8,100.7v-0.2c0.2-2.6,1.9-3.1,2.6-3.1c0.4,0,2.5-0.1,3.4,2.3c2.5,7.1,14.2,10.8,31.5,10.2
		c-0.7-9.6-5.2-18.3-12.3-23.4c-4-2.9-8.5-4.4-13.2-4.4c-4.7,0-9.3,1.6-13.2,4.4c-6.9,4.9-11.3,13.2-12.1,22.6
		C71.1,107.7,78.4,104.8,78.8,100.7z"/>
	<path d="M132.6,218v-48.8c0-1.7-0.9-3.2-2.3-4.1l-3.8-2.3c-0.4-0.2-0.8-0.5-1.2-0.7L106.7,152v-7.7c9.4-6.4,15.7-18.2,15.7-31.7
		c0-11.9-4.8-22.8-13.1-29.7c0.5-1.8,0.8-3.7,0.8-5.5c0-10.9-8.7-19.7-19.4-19.7c-10.7,0-19.4,8.9-19.4,19.7c0,1.9,0.2,3.7,0.8,5.5
		c-8.3,6.9-13.1,17.8-13.1,29.7c0,12.7,5.7,23.9,14.1,30.5l-1.3,8.5L52.6,162c-4.4,2.4-7.2,7-7.2,12v43.2c0,3.5,2.9,6.4,6.4,6.4
		h75.3C130.2,223.6,132.6,221.1,132.6,218z M90.9,63.7c7.3,0,13.3,6.1,13.3,13.7c0,0.6,0,1.3-0.1,1.9c-0.1,0-0.1-0.1-0.2-0.1
		c-0.1-0.1-0.4-0.1-0.5-0.2c-0.5-0.2-1-0.5-1.3-0.6c-0.2-0.1-0.4-0.1-0.6-0.2c-0.5-0.2-1-0.4-1.4-0.5c-0.1,0-0.4-0.1-0.5-0.1
		c-0.6-0.2-1.3-0.4-1.9-0.6c-0.1,0-0.2,0-0.4-0.1c-0.5-0.1-1.1-0.2-1.6-0.4c-0.2,0-0.5-0.1-0.6-0.1c-0.5-0.1-1-0.1-1.4-0.1h-0.6
		c-0.7,0-1.3-0.1-2-0.1c-0.7,0-1.3,0-2,0.1h-0.6c-0.5,0-1,0.1-1.4,0.1c-0.2,0-0.5,0.1-0.6,0.1c-0.5,0.1-1.1,0.2-1.6,0.4
		c-0.1,0-0.2,0-0.4,0.1c-0.6,0.1-1.3,0.4-1.9,0.6c-0.1,0-0.4,0.1-0.5,0.2c-0.5,0.1-1,0.4-1.4,0.5c-0.2,0.1-0.4,0.1-0.6,0.2
		c-0.5,0.2-1,0.4-1.3,0.6c-0.1,0.1-0.4,0.1-0.5,0.2c-0.4-0.1-0.5,0-0.5,0c-0.1-0.6-0.1-1.3-0.1-1.9C77.6,69.8,83.6,63.7,90.9,63.7z
		 M77.6,86.4c4-2.9,8.5-4.4,13.2-4.4c4.7,0,9.3,1.6,13.2,4.4c7.1,5.2,11.5,13.7,12.3,23.4c-17.3,0.7-29-3-31.5-10.2
		c-0.8-2.4-2.9-2.3-3.4-2.3c-0.7,0.1-2.4,0.6-2.6,3.1v0.2c-0.4,4.1-7.7,7-13.3,8.3C66.4,99.6,70.7,91.3,77.6,86.4z M65.4,115.2
		c4.3-1,12.7-3.2,17-8.3c4.2,4.6,12.6,9,29.8,9c1.3,0,2.8,0,4.2-0.1c-1.3,15.4-12.3,27.5-25.5,27.5C77.5,143.4,66.5,131,65.4,115.2z
		 M65.9,217.8H51.9v-0.1c-0.2,0-0.4-0.1-0.4-0.4v-41.1l9,7.9c3.5,3,5.4,7.5,5.4,12V217.8z M86,217.7H71.8V196
		c0-6.3-2.8-12.3-7.5-16.5l-11.4-10.1c0.6-0.8,1.4-1.6,2.5-2.2l17.3-9.4L86,169.6V217.7z M89,164.3l-11.3-10l1.2-7.7
		c3.7,1.8,7.8,2.8,12,2.8c3.5,0,6.7-0.6,9.9-1.8v6.5L89,164.3z M106.1,196.2v21.6L92,217.7v-48.1l13.1-11.5l17.3,9.4
		c1,0.5,1.8,1.3,2.5,2.2l-11.4,10.1C108.8,183.9,106.1,189.9,106.1,196.2z M126.6,217.2c0,0.2-0.2,0.4-0.4,0.4h-14.1V196
		c0-4.6,1.9-8.9,5.4-12l9-7.9V217.2z"/>
	<polygon points="50.3,171.1 50.3,171.1 50.3,171.1 	"/>
	<path d="M103.8,154.4L103.8,154.4L103.8,154.4z"/>
	<path d="M74.7,154.4L74.7,154.4L74.7,154.4z"/>
	<polygon points="68.9,220.7 68.9,220.7 68.9,220.7 	"/>
	<polygon points="109.2,220.7 109.2,220.7 109.2,220.7 	"/>
</g>
<g>
	<polygon class="st4" points="128.1,53.4 128.1,85 141.9,78.2 141.9,58.9 	"/>
	<path class="st4" d="M186.7,123.8h-12.4c-0.9,0-1.6-0.7-1.6-1.6V92.3c0-0.9,0.7-1.6,1.6-1.6h12.4c0.9,0,1.6,0.7,1.6,1.6v29.9
		C188.3,123.1,187.6,123.8,186.7,123.8z"/>
	<path class="st4" d="M191,100.3h-20.4c-0.9,0-1.6-0.7-1.6-1.6V82.1c0-0.9,0.7-1.6,1.6-1.6H191c0.9,0,1.6,0.7,1.6,1.6v16.6
		C192.5,99.6,191.8,100.3,191,100.3z"/>
	<path class="st4" d="M187.7,88.4l-45.9-10.1V58.9l44.9-9.4c4.4-0.9,9.1-0.6,13.3,1.3c5.4,2.4,11.1,7.5,11.1,18.5
		c0,12.1-6.4,16.9-12.1,18.7C195.4,89.1,191.5,89.2,187.7,88.4z"/>
	<path class="st5" d="M180.5,123.8l0.1,12.2c0.1,6.4,5.3,11.6,11.7,11.6h12.9"/>
</g>
</svg>
