<?xml version="1.0" encoding="utf-8"?>
<!-- Generator: Adobe Illustrator 19.2.0, SVG Export Plug-In . SVG Version: 6.00 Build 0)  -->
<svg version="1.1" id="Capa_1" xmlns="http://www.w3.org/2000/svg" xmlns:xlink="http://www.w3.org/1999/xlink" x="0px" y="0px"
	 viewBox="0 0 259 243" style="enable-background:new 0 0 259 243;" xml:space="preserve">
<style type="text/css">
	.st0{fill:#E89049;}
	.st1{fill:#FFFFFF;stroke:#000000;stroke-width:5;stroke-linecap:round;stroke-linejoin:round;}
	.st2{fill:#E89049;stroke:#000000;stroke-width:5;stroke-linecap:round;stroke-linejoin:round;}
	.st3{fill:none;stroke:#000000;stroke-width:5;stroke-linecap:round;stroke-linejoin:round;}
</style>
<circle class="st0" cx="129.4" cy="121.5" r="121.5"/>
<path d="M469.4,267.2c0.9,0.1,1.3,0.2,1.7,0.2c-0.2,0.1-0.5,0.3-0.7,0.3C470.2,267.8,470.1,267.6,469.4,267.2z"/>
<g>
	<path class="st1" d="M38.8,112h54.5v61.2H47.9c-5,0-9.1-3.5-9.1-7.8V112z"/>
	<path class="st1" d="M94.6,112h53.2v53.5c0,4.3-4,7.8-8.9,7.8H94.6V112z"/>
	<path class="st1" d="M155.6,103.1v19.5c0,2.1-1.8,3.9-3.9,3.9H34.9c-2.1,0-3.9-1.8-3.9-3.9v-19.5c0-4.3,3.5-7.8,7.8-7.8h10.7
		c-1.5-2.9-2.5-6.2-2.5-9.7c0-11.8,9.6-21.4,21.4-21.4c10.1,0,16.7,5.2,25.1,16.6c8.4-11.4,14.9-16.6,25.1-16.6
		c11.8,0,21.4,9.6,21.4,21.4c0,3.5-0.9,6.8-2.5,9.7h10.2C152.2,95.4,155.6,98.8,155.6,103.1z"/>
	<path class="st2" d="M89.4,95.4c-12.5-18.7-16.1-19.5-21-19.5c-5.4,0-9.7,4.4-9.7,9.7c0,5.4,4.4,9.7,9.7,9.7H89.4z"/>
	<path class="st2" d="M128.4,85.6c0-5.4-4.4-9.7-9.7-9.7c-5,0-8.4,0.9-21,19.5h21C124,95.4,128.4,91,128.4,85.6z"/>
</g>
<g>
	<path class="st3" d="M205.2,130.6l6.9,22c1,3.2,0.7,6.6-0.7,9.6l-5.8,11.7c-1.9,3.8-1.8,8.3,0.3,12.1l4.5,8c2,3.6,2.2,7.9,0.5,11.6
		l-1,2.1"/>
	<path class="st1" d="M255,58.1c0-31.8-19.8-53.8-44.9-53.8c-24.9,0-44.9,22-44.9,53.8c0,25.6,13,49.8,31.1,58.3l-11.1,22.3h45.9
		l-10.4-21C240.4,110.7,255,85.2,255,58.1z"/>
</g>
</svg>
