<?xml version="1.0" encoding="utf-8"?>
<!-- Generator: Adobe Illustrator 19.2.0, SVG Export Plug-In . SVG Version: 6.00 Build 0)  -->
<svg version="1.1" id="Capa_1" xmlns="http://www.w3.org/2000/svg" xmlns:xlink="http://www.w3.org/1999/xlink" x="0px" y="0px"
	 viewBox="0 0 259 243" style="enable-background:new 0 0 259 243;" xml:space="preserve">
<style type="text/css">
	.st0{fill:#E89049;}
	.st1{fill:#FFFFFF;}
</style>
<circle class="st0" cx="129.4" cy="121.5" r="121.5"/>
<path d="M469.4,267.2c0.9,0.1,1.3,0.2,1.7,0.2c-0.2,0.1-0.5,0.3-0.7,0.3C470.2,267.8,470.1,267.6,469.4,267.2z"/>
<g>
	<path d="M181.5,55.2h-32c-0.9,0-1.7-0.4-2.3-1c-0.6-0.7-0.8-1.5-0.7-2.4c0.1-0.8,0.2-1.6,0.2-2.4c0-9.5-7.7-17.2-17.2-17.2
		s-17.2,7.7-17.2,17.2c0,0.8,0.1,1.6,0.2,2.4c0.1,0.9-0.1,1.7-0.7,2.4c-0.6,0.7-1.4,1-2.3,1h-32c-7.9,0-14.3,6.4-14.3,14.3v127.1
		c0,7.9,6.4,14.3,14.3,14.3h104c7.9,0,14.3-6.4,14.3-14.3V69.5C195.8,61.6,189.4,55.2,181.5,55.2z M190.3,196.6
		c0,4.8-3.9,8.8-8.8,8.8h-104c-4.8,0-8.8-3.9-8.8-8.8V69.5c0-4.8,3.9-8.8,8.8-8.8h17.3c1.7,0,3,1.3,3,3v7.2c0,0.7,0.6,1.3,1.3,1.3
		h60.7c0.7,0,1.3-0.6,1.3-1.3v-7.2c0-1.7,1.3-3,3-3h17.3c4.8,0,8.8,3.9,8.8,8.8v127.1H190.3z"/>
	<path class="st1" d="M181.5,60.7h-17.3c-1.7,0-3,1.3-3,3v7.2c0,0.7-0.6,1.3-1.3,1.3H99.2c-0.7,0-1.3-0.6-1.3-1.3v-7.2
		c0-1.7-1.3-3-3-3H77.6c-4.8,0-8.8,3.9-8.8,8.8v127.1c0,4.8,3.9,8.8,8.8,8.8h104c4.8,0,8.8-3.9,8.8-8.8V69.5
		C190.3,64.7,186.3,60.7,181.5,60.7z"/>
	<circle class="st0" cx="129.5" cy="49.3" r="6.6"/>
	<path d="M109.7,130l-11.2-11.3c-0.6-0.6-0.6-1.7,0-2.3l3.8-3.8c0.6-0.6,1.7-0.6,2.3,0l6.2,6.3l14.4-14.3c0.6-0.6,1.7-0.6,2.3,0
		l3.8,3.8c0.6,0.6,0.6,1.7,0,2.3L111.9,130C111.3,130.6,110.3,130.6,109.7,130z"/>
	<path d="M114.9,154.7c0,4-3.2,7.3-7.3,7.3c-4,0-7.3-3.2-7.3-7.3s3.2-7.3,7.3-7.3C111.7,147.4,114.9,150.7,114.9,154.7z"/>
	<path d="M161,152.3v4.8c0,1.3-1.1,2.4-2.4,2.4h-33.9c-1.3,0-2.4-1.1-2.4-2.4v-4.8c0-1.3,1.1-2.4,2.4-2.4h33.9
		C159.9,149.9,161,151,161,152.3z"/>
	<path d="M161,123.2v4.8c0,1.3-1.1,2.4-2.4,2.4h-33.3l9.8-9.7h23.5C159.9,120.8,161,121.9,161,123.2z"/>
</g>
</svg>
