<?xml version="1.0" encoding="utf-8"?>
<!-- Generator: Adobe Illustrator 19.2.0, SVG Export Plug-In . SVG Version: 6.00 Build 0)  -->
<svg version="1.1" id="Capa_1" xmlns="http://www.w3.org/2000/svg" xmlns:xlink="http://www.w3.org/1999/xlink" x="0px" y="0px"
	 viewBox="0 0 259 243" style="enable-background:new 0 0 259 243;" xml:space="preserve">
<style type="text/css">
	.st0{fill:#E89049;}
	.st1{fill:#FFFFFF;}
	.st2{fill:#F7F7F8;}
	.st3{fill:none;}
	.st4{fill:#FFFFFF;stroke:#000000;stroke-width:5;stroke-linecap:round;stroke-linejoin:round;stroke-miterlimit:10;}
</style>
<circle class="st0" cx="129.4" cy="121.5" r="121.5"/>
<path d="M469.4,267.2c0.9,0.1,1.3,0.2,1.7,0.2c-0.2,0.1-0.5,0.3-0.7,0.3C470.2,267.8,470.1,267.6,469.4,267.2z"/>
<g>
	<path class="st1" d="M79.6,130.2c-4.2,0-8.3-1-12-2.8l-1.2,7.7l11.3,10l11.7-10.2v-6.5C86.4,129.6,83,130.2,79.6,130.2z"/>
	<path class="st1" d="M61.6,138.9l-17.3,9.4c-1,0.5-1.8,1.3-2.5,2.2l11.4,10.1c4.7,4.2,7.5,10.2,7.5,16.5v21.6h14v-48.1L61.6,138.9z
		"/>
	<path class="st1" d="M115.3,198.2v-41.1l-9,7.9c-3.5,3-5.4,7.5-5.4,12v21.6H115C115.2,198.6,115.3,198.5,115.3,198.2z"/>
	<path class="st1" d="M102.4,160.6l11.4-10.1c-0.6-0.8-1.4-1.6-2.5-2.2L94,138.9l-13.1,11.5v48.1h14.2v-21.6
		C94.9,170.7,97.7,164.7,102.4,160.6z"/>
	<path class="st1" d="M54.6,177.1c0-4.6-1.9-8.9-5.4-12l-9-7.9v41.1c0,0.2,0.2,0.4,0.4,0.4h14.1L54.6,177.1L54.6,177.1z"/>
	<path class="st2" d="M39,152L39,152L39,152z"/>
	<path class="st2" d="M57.6,201.6L57.6,201.6L57.6,201.6z"/>
	<path class="st2" d="M97.9,201.6L97.9,201.6L97.9,201.6z"/>
	<line class="st3" x1="63.4" y1="135.2" x2="63.4" y2="135.2"/>
	<line class="st3" x1="92.5" y1="135.2" x2="92.5" y2="135.2"/>
	<path class="st1" d="M68.4,59.2c0.2-0.1,0.4-0.1,0.6-0.2c0.5-0.2,1-0.4,1.4-0.5c0.1,0,0.4-0.1,0.5-0.2c0.6-0.2,1.3-0.4,1.9-0.6
		c0.1,0,0.2,0,0.4-0.1c0.5-0.1,1.1-0.2,1.6-0.4c0.2,0,0.5-0.1,0.6-0.1c0.5-0.1,1-0.1,1.4-0.1c0.2,0,0.4,0,0.6,0c0.7,0,1.3-0.1,2-0.1
		s1.3,0,2,0.1c0.2,0,0.4,0,0.6,0c0.5,0,1,0.1,1.4,0.1c0.2,0,0.5,0.1,0.6,0.1c0.5,0.1,1.1,0.2,1.6,0.4c0.1,0,0.2,0,0.4,0.1
		c0.6,0.1,1.3,0.4,1.9,0.6c0.1,0,0.4,0.1,0.5,0.1c0.5,0.1,1,0.4,1.4,0.5c0.2,0.1,0.4,0.1,0.6,0.2c0.5,0.2,1,0.4,1.3,0.6
		c0.1,0.1,0.4,0.1,0.5,0.2c0.1,0,0.1,0.1,0.2,0.1c0.1-0.6,0.1-1.3,0.1-1.9c0-7.6-6-13.7-13.3-13.7S65.9,50.4,65.9,58
		c0,0.6,0,1.3,0.1,1.9c0.1,0,0.1-0.1,0.2-0.1c0.1-0.1,0.4-0.1,0.5-0.2C67.5,59.5,68,59.3,68.4,59.2z"/>
	<path class="st1" d="M79.6,124.2c13.2,0,24.2-12,25.5-27.5c-1.4,0-2.9,0.1-4.2,0.1c-17.2,0-25.6-4.4-29.8-9
		c-4.2,5-12.6,7.3-17.1,8.3C55.1,111.7,66.2,124.2,79.6,124.2z"/>
	<path class="st1" d="M67.5,81.5v-0.2c0.2-2.6,1.9-3.1,2.6-3.1c0.4,0,2.5-0.1,3.4,2.3C76,87.7,87.7,91.4,105,90.8
		c-0.7-9.6-5.2-18.3-12.3-23.4c-4-2.9-8.5-4.4-13.2-4.4s-9.3,1.6-13.2,4.4C59.4,72.2,55,80.5,54.2,89.9
		C59.8,88.5,67.1,85.7,67.5,81.5z"/>
	<path d="M121.3,198.9v-48.8c0-1.7-0.9-3.2-2.3-4.1l-3.8-2.3c-0.4-0.2-0.8-0.5-1.2-0.7l-18.6-10.1v-7.7c9.4-6.4,15.7-18.2,15.7-31.7
		c0-11.9-4.8-22.8-13.1-29.7c0.5-1.8,0.8-3.7,0.8-5.5c0-10.9-8.7-19.7-19.4-19.7S60,47.5,60,58.3c0,1.9,0.2,3.7,0.8,5.5
		c-8.3,6.9-13.1,17.8-13.1,29.7c0,12.7,5.7,23.9,14.1,30.5l-1.3,8.5l-19.2,10.4c-4.4,2.4-7.2,7-7.2,12v43.2c0,3.5,2.9,6.4,6.4,6.4
		h75.3C118.9,204.5,121.3,202,121.3,198.9z M79.6,44.6c7.3,0,13.3,6.1,13.3,13.7c0,0.6,0,1.3-0.1,1.9c-0.1,0-0.1-0.1-0.2-0.1
		c-0.1-0.1-0.4-0.1-0.5-0.2c-0.5-0.2-1-0.5-1.3-0.6c-0.2-0.1-0.4-0.1-0.6-0.2c-0.5-0.2-1-0.4-1.4-0.5c-0.1,0-0.4-0.1-0.5-0.1
		c-0.6-0.2-1.3-0.4-1.9-0.6c-0.1,0-0.2,0-0.4-0.1c-0.5-0.1-1.1-0.2-1.6-0.4c-0.2,0-0.5-0.1-0.6-0.1c-0.5-0.1-1-0.1-1.4-0.1h-0.6
		c-0.7,0-1.3-0.1-2-0.1s-1.3,0-2,0.1h-0.6c-0.5,0-1,0.1-1.4,0.1c-0.2,0-0.5,0.1-0.6,0.1c-0.5,0.1-1.1,0.2-1.6,0.4
		c-0.1,0-0.2,0-0.4,0.1c-0.6,0.1-1.3,0.4-1.9,0.6c-0.1,0-0.4,0.1-0.5,0.2c-0.5,0.1-1,0.4-1.4,0.5c-0.2,0.1-0.4,0.1-0.6,0.2
		c-0.5,0.2-1,0.4-1.3,0.6c-0.1,0.1-0.4,0.1-0.5,0.2c-0.4-0.1-0.5,0-0.5,0c-0.1-0.6-0.1-1.3-0.1-1.9C66.3,50.7,72.3,44.6,79.6,44.6z
		 M66.3,67.2c4-2.9,8.5-4.4,13.2-4.4s9.3,1.6,13.2,4.4c7.1,5.2,11.5,13.7,12.3,23.4c-17.3,0.7-29-3-31.5-10.2
		c-0.8-2.4-2.9-2.3-3.4-2.3c-0.7,0.1-2.4,0.6-2.6,3.1v0.2c-0.4,4.1-7.7,7-13.3,8.3C55.1,80.4,59.4,72.2,66.3,67.2z M54.1,96
		c4.3-1,12.7-3.2,17-8.3c4.2,4.6,12.6,9,29.8,9c1.3,0,2.8,0,4.2-0.1c-1.3,15.4-12.3,27.5-25.5,27.5C66.2,124.2,55.2,111.8,54.1,96z
		 M54.6,198.7h-14v-0.1c-0.2,0-0.4-0.1-0.4-0.4v-41.1l9,7.9c3.5,3,5.4,7.5,5.4,12V198.7z M74.7,198.6H60.5v-21.7
		c0-6.3-2.8-12.3-7.5-16.5l-11.4-10.1c0.6-0.8,1.4-1.6,2.5-2.2l17.3-9.4l13.3,11.8V198.6z M77.7,145.2l-11.3-10l1.2-7.7
		c3.7,1.8,7.8,2.8,12,2.8c3.5,0,6.7-0.6,9.9-1.8v6.5L77.7,145.2z M94.8,177.1v21.6l-14.1-0.1v-48.1L93.8,139l17.3,9.4
		c1,0.5,1.8,1.3,2.5,2.2l-11.4,10.1C97.5,164.8,94.8,170.8,94.8,177.1z M115.3,198.1c0,0.2-0.2,0.4-0.4,0.4h-14.1v-21.6
		c0-4.6,1.9-8.9,5.4-12l9-7.9L115.3,198.1L115.3,198.1z"/>
	<path d="M39,152L39,152L39,152z"/>
	<path d="M92.5,135.2L92.5,135.2L92.5,135.2z"/>
	<path d="M63.4,135.2L63.4,135.2L63.4,135.2z"/>
	<path d="M57.6,201.6L57.6,201.6L57.6,201.6z"/>
	<path d="M97.9,201.6L97.9,201.6L97.9,201.6z"/>
</g>
<g>
	<g>
		<path class="st1" d="M139.3,158.7c2.9,7.7,8.7,11.1,18.8,11.1h45.7c10,0,15.8-3.4,18.8-11.1c2.6-6.8,2.8-16.7,2.8-27.2h-88.9
			C136.4,142,136.6,151.9,139.3,158.7z"/>
		<path class="st1" d="M142.2,112.8H220c2.4,0,4.3-1.9,4.3-4.3s-1.9-4.3-4.3-4.3h-7.9c-1.4,0-2.5-1.1-2.5-2.5s1.1-2.5,2.5-2.5
			c2.4,0,4.3-1.9,4.3-4.3v-0.8c0-2.4-1.9-4.3-4.3-4.3h-7c-0.8,0-1.6-0.4-2.1-1.1c-0.5-0.7-0.5-1.6-0.2-2.4c0-0.1,1.3-3.6-1.6-7.7
			c-1.3-1.8-2.9-3.1-4.5-3.8c0.2,1.4,0.2,3.1-0.3,5c-1.8,7.4-7,9.7-7.2,9.8c-0.3,0.1-0.7,0.2-1,0.2h-38.1c-2.4,0-4.3,1.9-4.3,4.3
			v0.8c0,2.4,1.9,4.3,4.3,4.3c1.4,0,2.5,1.1,2.5,2.5s-1.1,2.5-2.5,2.5h-7.9c-2.4,0-4.3,1.9-4.3,4.3S139.8,112.8,142.2,112.8z"/>
		<path class="st1" d="M227.6,117.8H220h-77.8h-7.5c-2.4,0-4.3,1.9-4.3,4.3c0,1.2,0.5,2.3,1.3,3.1c0.6,0.6,1.4,1,2.2,1.1
			c0.2,0,0.5,0.1,0.8,0.1h92.9c0.1,0,0.2,0,0.3,0c0.9-0.1,1.7-0.4,2.4-0.9c1-0.8,1.7-2,1.7-3.4C231.9,119.8,230,117.8,227.6,117.8z"
			/>
		<path d="M228.3,112.9c0.7-1.3,1.1-2.8,1.1-4.4c0-5-4-9.1-9-9.3c0.7-1.3,1.1-2.8,1.1-4.3v-0.8c0-5.1-4.2-9.3-9.3-9.3h-4.1
			c0.1-2.3-0.3-5.6-2.8-9c-5-7.2-13.6-7.4-13.9-7.5c0,0,0,0,0,0c-1.1,0-2.1,0.8-2.4,1.9c-0.3,1.1,0.2,2.3,1.2,2.8
			c0,0,2.4,1.3,1.4,5.6c-0.9,3.9-3.1,5.6-4,6.2h-37.5c-5.1,0-9.3,4.2-9.3,9.3v0.8c0,1.6,0.4,3,1.1,4.3c-5,0.2-9,4.3-9,9.3
			c0,1.6,0.4,3.1,1.1,4.4c-4.8,0.4-8.6,4.4-8.6,9.3c0,4,2.5,7.4,6.1,8.7c0,11.3,0.2,21.8,3.2,29.6c3.7,9.6,11.4,14.3,23.4,14.3h45.7
			c12.1,0,19.7-4.7,23.4-14.3c3-7.8,3.2-18.2,3.2-29.4c3.8-1.2,6.6-4.7,6.6-8.9C236.9,117.3,233.1,113.2,228.3,112.9z M142.2,104.2
			h7.9c1.4,0,2.5-1.1,2.5-2.5s-1.1-2.5-2.5-2.5c-2.4,0-4.3-1.9-4.3-4.3v-0.8c0-2.4,1.9-4.3,4.3-4.3h38.1c0.3,0,0.7-0.1,1-0.2
			c0.2-0.1,5.4-2.4,7.2-9.8c0.5-2,0.5-3.6,0.3-5c1.6,0.8,3.2,2,4.5,3.8c2.9,4.2,1.6,7.6,1.6,7.7c-0.3,0.8-0.2,1.7,0.2,2.4
			c0.5,0.7,1.2,1.1,2.1,1.1h7c2.4,0,4.3,1.9,4.3,4.3v0.8c0,2.4-1.9,4.3-4.3,4.3c-1.4,0-2.5,1.1-2.5,2.5s1.1,2.5,2.5,2.5h7.9
			c2.4,0,4.3,1.9,4.3,4.3s-1.9,4.3-4.3,4.3h-77.8c-2.4,0-4.3-1.9-4.3-4.3S139.8,104.2,142.2,104.2z M222.5,158.7
			c-2.9,7.7-8.7,11.1-18.8,11.1H158c-10,0-15.8-3.4-18.8-11.1c-2.6-6.8-2.8-16.7-2.8-27.2h88.9C225.3,142,225.1,151.9,222.5,158.7z
			 M230.2,125.6c-0.7,0.5-1.5,0.8-2.4,0.9c-0.1,0-0.2,0-0.3,0h-92.9c-0.3,0-0.5,0-0.8-0.1c-0.9-0.2-1.6-0.6-2.2-1.1
			c-0.8-0.8-1.3-1.9-1.3-3.1c0-2.4,1.9-4.3,4.3-4.3h7.5H220h7.5c2.4,0,4.3,1.9,4.3,4.3C231.9,123.6,231.2,124.8,230.2,125.6z"/>
	</g>
	<rect x="157.5" y="140.6" class="st4" width="47.2" height="20.1"/>
</g>
</svg>
