<?xml version="1.0" encoding="utf-8"?>
<!-- Generator: Adobe Illustrator 19.2.0, SVG Export Plug-In . SVG Version: 6.00 Build 0)  -->
<svg version="1.1" id="Capa_1" xmlns="http://www.w3.org/2000/svg" xmlns:xlink="http://www.w3.org/1999/xlink" x="0px" y="0px"
	 viewBox="0 0 259 243" style="enable-background:new 0 0 259 243;" xml:space="preserve">
<style type="text/css">
	.st0{fill:#E89049;}
	.st1{fill:none;}
	.st2{fill:#FFFFFF;}
</style>
<circle class="st0" cx="129.4" cy="121.5" r="121.5"/>
<g>
	<path class="st1" d="M153,90.1c0.7,0.7,1.3,1.4,2,2.2C154.4,91.5,153.7,90.8,153,90.1z"/>
	<path class="st1" d="M149.7,87.2c0.8,0.6,1.5,1.2,2.2,1.9C151.2,88.4,150.5,87.8,149.7,87.2z"/>
	<polygon class="st1" points="131.6,141.8 131.6,141.8 131.6,141.8 	"/>
	<path class="st1" d="M131.6,81.2c-16.8,0-30.4,13.6-30.3,30.3C101.3,94.8,114.9,81.2,131.6,81.2z"/>
	<path class="st1" d="M144.7,84.2c0.9,0.4,1.7,0.9,2.6,1.4C146.5,85.1,145.6,84.6,144.7,84.2z"/>
	<path class="st1" d="M131.6,81.2L131.6,81.2c1.6,0,3.1,0.1,4.6,0.3C134.7,81.3,133.2,81.2,131.6,81.2z"/>
	<path class="st1" d="M92.9,158.1C92.9,158.1,93,158.1,92.9,158.1c4.2-1.9,8.7-3,13.5-3C101.6,155.1,97,156.2,92.9,158.1z"/>
	<path class="st1" d="M136.2,81.6c1,0.2,2,0.4,3,0.6C138.2,81.9,137.2,81.7,136.2,81.6z"/>
	<path class="st1" d="M89.2,154.4c5.1-2.7,11-4.3,17.2-4.3h1.9c0.3,0,0.7,0,1,0.2c14.4,6.6,30.3,6.6,44.6,0c0.3-0.1,0.6-0.2,1-0.2
		h1.8c6,0,11.6,1.4,16.6,4c8.7-9.9,14-22.9,14-37.1c0-31-25.2-56.2-56.2-56.2S74.9,86,74.9,117C74.9,131.4,80.3,144.5,89.2,154.4z
		 M131.6,76.2c19.5,0,35.3,15.8,35.3,35.3s-15.8,35.3-35.3,35.3S96.3,131,96.3,111.5S112.1,76.2,131.6,76.2z"/>
	<path class="st1" d="M155.5,155.1L155.5,155.1c-7.7,3.5-15.8,5.2-23.9,5.2C139.7,160.4,147.8,158.6,155.5,155.1z"/>
	<path class="st1" d="M131.1,178.2C131.1,178.2,131.1,178.2,131.1,178.2C97.5,178.2,70,150.8,70,117c0-33.7,27.4-61.2,61.2-61.2
		c0,0,0,0-0.1,0c-33.7,0-61.2,27.4-61.2,61.2C69.9,150.8,97.4,178.3,131.1,178.2z"/>
	<path class="st1" d="M181.6,203c-0.2,0-0.3,0.1-0.5,0.1C181.3,203.1,181.5,203,181.6,203z"/>
	<path class="st1" d="M179.9,203.2c0.2,0,0.3,0,0.5,0c-0.3,0-0.5,0-0.8,0C179.7,203.2,179.8,203.2,179.9,203.2z"/>
	<path class="st1" d="M144.4,195.3c2-0.3,4-0.7,6-1.1C148.4,194.6,146.4,195,144.4,195.3z"/>
	<path class="st1" d="M150.4,194.2c2-0.5,3.9-1,5.9-1.6C154.3,193.2,152.3,193.7,150.4,194.2z"/>
	<path class="st1" d="M144.4,195.3c-4,0.6-8.1,0.9-12.3,0.9l0,0C136.3,196.2,140.4,195.9,144.4,195.3z"/>
	<path class="st1" d="M182.6,202.8c0,0-0.1,0-0.1,0C182.5,202.8,182.5,202.8,182.6,202.8z"/>
	<path class="st2" d="M202.2,171.7c-0.8-0.8-1.8-1.2-2.9-1.2h-14.7v14.7c0,1.1,0.4,2.2,1.2,2.9l37.5,37.7c1.8,1.6,4.2,1.6,6,0
		l10.6-10.6c1.5-1.5,1.5-4.2,0-5.8L202.2,171.7z"/>
	<path class="st2" d="M131.2,190.7c16.6,0,32.3-5.4,45.4-15.6l7-5.6l5.7-7.1c10.2-13.1,15.6-28.8,15.6-45.3
		c-0.1-40.6-33.1-73.6-73.7-73.6s-73.6,33-73.6,73.6C57.6,157.7,90.6,190.7,131.2,190.7z M131.1,55.8
		C131.1,55.8,131.1,55.8,131.1,55.8c0.1,0,0.1,0,0.1,0c33.7,0,61.2,27.4,61.2,61.2c0,33.8-27.5,61.3-61.2,61.2c0,0,0,0,0,0
		s0,0-0.1,0c-33.7,0.1-61.2-27.4-61.2-61.2C69.9,83.2,97.4,55.8,131.1,55.8z"/>
	<path class="st2" d="M131.6,141.8C131.6,141.8,131.6,141.8,131.6,141.8c2.6,0,5.2-0.3,7.6-1c1.9-0.5,3.8-1.2,5.6-2
		c0.9-0.4,1.7-0.9,2.6-1.4s1.6-1.1,2.4-1.6c0.8-0.6,1.5-1.2,2.2-1.9c0.4-0.3,0.7-0.7,1.1-1c0.7-0.7,1.3-1.4,2-2.2
		c4.3-5.2,6.9-12,6.9-19.3c0-7.3-2.6-14-6.9-19.3c-0.6-0.7-1.3-1.5-2-2.2c-0.3-0.3-0.7-0.7-1.1-1c-0.7-0.7-1.5-1.3-2.2-1.9
		c-0.8-0.6-1.6-1.1-2.4-1.6s-1.7-1-2.6-1.4c-1.8-0.9-3.6-1.5-5.6-2c-1-0.2-2-0.5-3-0.6c-1.5-0.2-3-0.3-4.6-0.3c0,0,0,0,0,0
		c-16.7,0-30.3,13.6-30.3,30.3C101.3,128.2,114.9,141.8,131.6,141.8z"/>
	<path d="M131.6,146.8c19.5,0,35.3-15.8,35.3-35.3s-15.8-35.3-35.3-35.3S96.3,92,96.3,111.5S112.1,146.8,131.6,146.8z M131.6,81.2
		C131.6,81.2,131.6,81.2,131.6,81.2L131.6,81.2c1.6,0,3.1,0.1,4.6,0.3c1,0.2,2,0.4,3,0.6c1.9,0.5,3.8,1.2,5.6,2
		c0.9,0.4,1.7,0.9,2.6,1.4s1.6,1.1,2.4,1.6c0.8,0.6,1.5,1.2,2.2,1.9c0.4,0.3,0.7,0.7,1.1,1c0.7,0.7,1.3,1.4,2,2.2
		c4.3,5.2,6.9,12,6.9,19.3c0,7.3-2.6,14-6.9,19.3c-0.6,0.7-1.3,1.5-2,2.2c-0.3,0.3-0.7,0.7-1.1,1c-0.7,0.7-1.5,1.3-2.2,1.9
		c-0.8,0.6-1.6,1.1-2.4,1.6s-1.7,1-2.6,1.4c-1.8,0.9-3.6,1.5-5.6,2c-2.4,0.6-5,1-7.6,1l0,0c0,0,0,0,0,0c-16.7,0-30.3-13.6-30.3-30.3
		C101.2,94.8,114.8,81.2,131.6,81.2z"/>
	<path class="st2" d="M178,183.2V182c-6.8,4.7-14.1,8.2-21.8,10.6c-1.9,0.6-3.9,1.1-5.9,1.6c-2,0.5-4,0.8-6,1.1
		c-4,0.6-8.1,0.9-12.3,0.9l0,0h0c-13.1,0-25.5-3.1-36.6-8.7c-6.6-3.3-12.7-7.6-18.1-12.5c-1,3-1.5,6.2-1.5,9.5v9.4
		c0,5.2,4.2,9.3,9.3,9.3h94.4c0.3,0,0.5,0,0.8,0c0.2,0,0.5,0,0.7-0.1c0.2,0,0.3-0.1,0.5-0.1c0.3-0.1,0.6-0.1,0.8-0.2
		c0,0,0.1,0,0.1,0c2.4-0.7,4.4-2.5,5.5-4.7l-6.7-6.7C179.2,189.2,178,186.3,178,183.2z"/>
	<path class="st2" d="M93,158.2c10.1,9.4,23.5,15,38.2,15c14.9,0,28.4-5.8,38.5-15.3c-0.5-0.2-1-0.4-1.5-0.6
		c-1.5-0.6-3.1-1.1-4.7-1.4c-1.1-0.2-2.2-0.4-3.3-0.5c-1.1-0.1-2.3-0.2-3.4-0.2h-1.3c-7.7,3.5-15.8,5.3-23.9,5.2
		c-8.1,0-16.2-1.7-23.9-5.2h-1.3C101.6,155.1,97.1,156.2,93,158.2z"/>
	<path d="M243.5,205.8L205.7,168c-1.8-1.7-4-2.6-6.4-2.6h-6.1c10.9-14,16.6-30.7,16.6-48.4c0-43.3-35.3-78.6-78.6-78.6
		c-43.3,0-78.6,35.3-78.6,78.6c0,20.6,8,39.4,21.1,53.4l-1,3c-1.2,3.5-1.8,7.2-1.8,11.1v9.4c0,7.9,6.4,14.3,14.3,14.3h94.3
		c0.1,0,0.2,0,0.3,0c5.1,0,9.7-2.6,12.1-6.8l27.9,27.9l0.1,0.1c1.8,1.7,4,2.6,6.4,2.6c2.4,0,4.6-0.9,6.5-2.7l10.7-10.7
		C247,215.2,247,209.4,243.5,205.8z M239.9,215.2l-10.6,10.6c-1.8,1.6-4.2,1.6-6,0l-37.5-37.7c-0.8-0.7-1.2-1.8-1.2-2.9v-14.7h14.7
		c1.1,0,2.1,0.4,2.9,1.2l37.7,37.7C241.4,211,241.4,213.7,239.9,215.2z M131.2,43.5c40.6,0,73.6,33,73.7,73.6
		c0,16.5-5.4,32.2-15.6,45.3l-5.7,7.1l-7,5.6c-13.1,10.2-28.8,15.6-45.4,15.6c-40.6,0-73.6-33-73.6-73.6
		C57.6,76.5,90.6,43.5,131.2,43.5z M182.6,202.8c0,0-0.1,0-0.1,0c-0.3,0.1-0.6,0.1-0.8,0.2c-0.2,0-0.3,0.1-0.5,0.1
		c-0.2,0-0.5,0-0.7,0.1c-0.2,0-0.3,0-0.5,0c-0.1,0-0.2,0-0.3,0H85.2c-5.1,0-9.3-4.1-9.3-9.3v-9.4c0-3.3,0.5-6.5,1.5-9.5
		c5.4,5,11.5,9.2,18.1,12.5c11,5.6,23.4,8.7,36.6,8.7h0c4.2,0,8.2-0.3,12.3-0.9c2-0.3,4-0.7,6-1.1c2-0.5,3.9-1,5.9-1.6
		c7.7-2.4,15-5.9,21.8-10.6v1.2c0,3.1,1.2,6,3.4,8.2l6.7,6.7C187,200.3,185,202,182.6,202.8z"/>
	<path d="M70,117c0,33.8,27.5,61.2,61.2,61.2c0,0,0,0,0,0c33.7,0.1,61.2-27.4,61.2-61.2c0-33.8-27.5-61.2-61.2-61.2c0,0,0,0,0,0
		C97.4,55.8,70,83.3,70,117z M131.6,160.4c8.1,0,16.2-1.8,23.9-5.2h0h1.3c1.2,0,2.3,0.1,3.4,0.2c1.1,0.1,2.2,0.3,3.3,0.5
		c1.6,0.4,3.2,0.8,4.7,1.4c0.5,0.2,1,0.4,1.5,0.6c-10.1,9.5-23.6,15.3-38.5,15.3c-14.8,0-28.1-5.7-38.2-15c0,0-0.1,0-0.1-0.1
		c4.1-1.9,8.7-3,13.5-3h1.3C115.4,158.6,123.5,160.4,131.6,160.4z M131.1,60.8c31,0,56.2,25.2,56.2,56.2c0,14.2-5.3,27.2-14,37.1
		c-5-2.6-10.6-4-16.6-4h-1.8c-0.4,0-0.7,0.1-1,0.2c-14.3,6.6-30.2,6.6-44.6,0c-0.3-0.2-0.7-0.2-1-0.2h-1.9c-6.2,0-12.1,1.6-17.2,4.3
		c-8.9-9.9-14.3-23-14.3-37.4C74.9,86,100.1,60.8,131.1,60.8z"/>
</g>
</svg>
