<?xml version="1.0" encoding="utf-8"?>
<!-- Generator: Adobe Illustrator 19.2.0, SVG Export Plug-In . SVG Version: 6.00 Build 0)  -->
<svg version="1.1" id="Capa_1" xmlns="http://www.w3.org/2000/svg" xmlns:xlink="http://www.w3.org/1999/xlink" x="0px" y="0px"
	 viewBox="0 0 259 243" style="enable-background:new 0 0 259 243;" xml:space="preserve">
<style type="text/css">
	.st0{fill:#E89049;}
	.st1{fill:#FFFFFF;}
</style>
<circle class="st0" cx="129.4" cy="121.5" r="121.5"/>
<g>
	<path class="st1" d="M229.4,179.6c1.7,0,3.2-1.4,3.2-3.2V40c0-1.7-1.4-3.2-3.2-3.2H29.6c-1.7,0-3.2,1.4-3.2,3.2v136.4
		c0,1.7,1.4,3.2,3.2,3.2h76.1h47.5L229.4,179.6L229.4,179.6z"/>
	<path d="M229.5,31.9H29.7c-4.5,0-8.2,3.7-8.2,8.2v136.4c0,4.5,3.7,8.2,8.2,8.2h76.1v-5H29.7c-1.7,0-3.2-1.4-3.2-3.2V40
		c0-1.7,1.4-3.2,3.2-3.2h199.7c1.7,0,3.2,1.4,3.2,3.2v136.4c0,1.7-1.4,3.2-3.2,3.2h-76.1v5h76.1c4.5,0,8.2-3.7,8.2-8.2V40
		C237.6,35.5,234,31.9,229.5,31.9z"/>
	<path class="st1" d="M75.4,200.6v5.2c0,0.2,0.2,0.3,0.3,0.3h107.7c0.2,0,0.3-0.1,0.3-0.3v-5.2c0-0.2-0.1-0.3-0.3-0.3h-30.1h-47.5
		H75.7C75.6,200.3,75.4,200.4,75.4,200.6z"/>
	<path d="M153.4,200.3h30.1c0.2,0,0.3,0.2,0.3,0.3v5.2c0,0.2-0.1,0.3-0.3,0.3H75.7c-0.2,0-0.3-0.1-0.3-0.3v-5.2
		c0-0.2,0.2-0.3,0.3-0.3h30.1v-5H75.7c-2.9,0-5.3,2.4-5.3,5.3v5.2c0,2.9,2.4,5.3,5.3,5.3h107.7c2.9,0,5.3-2.4,5.3-5.3v-5.2
		c0-2.9-2.4-5.3-5.3-5.3h-30.1v5H153.4z"/>
	<rect x="110.8" y="184.6" class="st1" width="37.5" height="10.7"/>
	<path d="M153.3,179.6h-47.5v5v10.7v5h47.5v-5v-10.7V179.6z M148.3,195.3h-37.5v-10.7h37.5V195.3z"/>
</g>
<g>
	<polygon class="st1" points="100.6,77.5 100.6,139.5 158.4,108.7 	"/>
	<path d="M100.6,77.5l57.8,31.2l-57.8,30.8V77.5 M100.6,72.5c-0.9,0-1.8,0.2-2.6,0.7c-1.5,0.9-2.4,2.5-2.4,4.3v62
		c0,1.8,0.9,3.4,2.4,4.3c0.8,0.5,1.7,0.7,2.6,0.7c0.8,0,1.6-0.2,2.4-0.6l57.8-30.8c1.6-0.9,2.6-2.6,2.6-4.4c0-1.8-1-3.5-2.6-4.4
		L103,73.1C102.2,72.7,101.4,72.5,100.6,72.5L100.6,72.5z"/>
</g>
</svg>
