<?xml version="1.0" encoding="utf-8"?>
<!-- Generator: Adobe Illustrator 19.2.0, SVG Export Plug-In . SVG Version: 6.00 Build 0)  -->
<svg version="1.1" id="Capa_1" xmlns="http://www.w3.org/2000/svg" xmlns:xlink="http://www.w3.org/1999/xlink" x="0px" y="0px"
	 viewBox="0 0 259 243" style="enable-background:new 0 0 259 243;" xml:space="preserve">
<style type="text/css">
	.st0{fill:#E89049;}
	.st1{fill:none;}
	.st2{fill:#FFFFFF;}
</style>
<circle class="st0" cx="129.4" cy="121.5" r="121.5"/>
<g>
	<circle class="st1" cx="119.5" cy="42" r="2.5"/>
	<path class="st2" d="M29.9,74.4c-6.9,0-12.5-5.6-12.5-12.5c0-4.1-3.3-7.5-7.5-7.5s-7.5,3.3-7.5,7.5c0,11.5,7.3,21.8,18.3,25.7
		c1,0.4,1.7,1.3,1.7,2.4v66.6c0,1.4,1.1,2.5,2.5,2.5h19.9c1.4,0,2.5-1.1,2.5-2.5v-34.9c0-1.4,1.1-2.5,2.5-2.5h49.8
		c1.4,0,2.5,1.1,2.5,2.5v34.9c0,1.4,1.1,2.5,2.5,2.5h19.9c1.4,0,2.5-1.1,2.5-2.5V90.3L82.4,74.4H29.9z"/>
	<path class="st2" d="M156.9,37c0-1.4-1.1-2.5-2.5-2.5h-19.9c-0.9,0-1.8-0.5-2.2-1.4l-2.2-4.5c-1.1-2.2-4.2-4.1-6.7-4.1h-16.7
		c-0.7,0-1.3-0.3-1.8-0.7l-8.5-8.5c-1.1-1.1-2.3-0.7-2.7-0.5c-0.4,0.1-1.5,0.8-1.5,2.3V62L127,74.4v-7.5c0-1.4,1.1-2.5,2.5-2.5h10
		c9.6,0,17.4-7.8,17.4-17.4V37z M119.5,49.5c-4.1,0-7.5-3.4-7.5-7.5s3.4-7.5,7.5-7.5s7.5,3.4,7.5,7.5S123.7,49.5,119.5,49.5z"/>
	<path d="M154.4,29.5H136l-1.5-3.1c-1.9-3.9-6.8-6.9-11.1-6.9h-15.7l-7.8-7.8c-2.2-2.2-5.3-2.8-8.2-1.6c-2.8,1.2-4.6,3.8-4.6,6.9
		v46.6c0,1.1,0.7,2,1.7,2.4l39.8,14.2c0.3,0.1,0.6,0.1,0.8,0.1c0.5,0,1-0.2,1.4-0.5c0.7-0.5,1.1-1.2,1.1-2v-8.6h7.5
		c12.4,0,22.4-10.1,22.4-22.4V37C161.9,32.9,158.5,29.5,154.4,29.5z M139.5,64.4h-10c-1.4,0-2.5,1.1-2.5,2.5v7.5L92.2,62V17.1
		c0-1.5,1.2-2.1,1.5-2.3c0.4-0.1,1.6-0.5,2.7,0.5l8.5,8.5c0.5,0.5,1.1,0.7,1.8,0.7h16.7c2.5,0,5.6,1.9,6.7,4.1l2.2,4.5
		c0.4,0.8,1.3,1.4,2.2,1.4h19.9c1.4,0,2.5,1.1,2.5,2.5v10C156.9,56.6,149.1,64.4,139.5,64.4z"/>
	<path d="M130.3,86.2L83.7,69.5c-0.3-0.1-0.6-0.1-0.8-0.1H29.9c-4.1,0-7.5-3.3-7.5-7.5c0-6.9-5.6-12.5-12.5-12.5S-2.5,55.1-2.5,61.9
		c0,13,7.9,24.7,19.9,29.8v64.9c0,4.1,3.4,7.5,7.5,7.5h19.9c4.1,0,7.5-3.4,7.5-7.5v-32.4h44.8v32.4c0,4.1,3.4,7.5,7.5,7.5h19.9
		c4.1,0,7.5-3.4,7.5-7.5v-68C132,87.5,131.3,86.6,130.3,86.2z M127,156.6c0,1.4-1.1,2.5-2.5,2.5h-19.9c-1.4,0-2.5-1.1-2.5-2.5v-34.9
		c0-1.4-1.1-2.5-2.5-2.5H49.8c-1.4,0-2.5,1.1-2.5,2.5v34.9c0,1.4-1.1,2.5-2.5,2.5H24.9c-1.4,0-2.5-1.1-2.5-2.5V90
		c0-1.1-0.7-2-1.7-2.4C9.8,83.7,2.5,73.4,2.5,61.9c0-4.1,3.3-7.5,7.5-7.5s7.5,3.3,7.5,7.5c0,6.9,5.6,12.5,12.5,12.5h52.5L127,90.3
		V156.6z"/>
	<path d="M119.5,34.5c-4.1,0-7.5,3.4-7.5,7.5s3.4,7.5,7.5,7.5s7.5-3.4,7.5-7.5S123.7,34.5,119.5,34.5z"/>
</g>
<g>
	<circle class="st1" cx="153.1" cy="130.3" r="2"/>
	<circle class="st1" cx="130.6" cy="130.3" r="2"/>
	<path class="st2" d="M141.9,156.6c13.5,0,24.5-11,24.5-24.5v-31.8l-13.8,13.8c-0.5,0.5-1.1,0.7-1.8,0.7h-18c-0.7,0-1.3-0.3-1.8-0.7
		l-13.8-13.8v31.8C117.3,145.6,128.3,156.6,141.9,156.6z M153.1,123.3c3.9,0,7,3.1,7,7s-3.1,7-7,7c-3.9,0-7-3.1-7-7
		S149.3,123.3,153.1,123.3z M130.6,123.3c3.9,0,7,3.1,7,7s-3.1,7-7,7c-3.9,0-7-3.1-7-7S126.7,123.3,130.6,123.3z"/>
	<path class="st2" d="M250,114.8c-13.5,0-24.5,11-24.5,24.5v24.2c0,1.1-0.7,2.1-1.8,2.4c-1.1,0.3-2.2-0.1-2.8-1
		c-12.6-18.9-30.8-22.7-41.7-23.1c-4.4,16.8-19.7,28.8-37.3,28.8c-2.1,0-4.2-0.2-6.5-0.6v54.9c0,1.1,0.9,2,2,2h9c1.1,0,2-0.9,2-2
		v-40.5c0-0.9,0.5-1.8,1.4-2.2c0.8-0.4,1.9-0.3,2.6,0.2l36,27c0.9,0.6,1.2,1.8,0.9,2.8c-0.3,1-1.3,1.7-2.4,1.7h-9
		c-3.6,0-6.5,2.9-6.5,6.5v4.5c0,1.1,0.9,2,2,2H223c8.6,0,15.5-7,15.5-15.5v-72.1c0-6.3,5.2-11.5,11.5-11.5c3.6,0,6.5-2.9,6.5-6.5
		S253.6,114.8,250,114.8z"/>
	<path d="M171.4,132.1V94.3c0-1-0.6-1.9-1.5-2.3c-0.9-0.4-2-0.2-2.7,0.5l-17.3,17.3h-16l-17.3-17.3c-0.7-0.7-1.8-0.9-2.7-0.5
		c-0.9,0.4-1.5,1.3-1.5,2.3v37.8c0,16.3,13.2,29.5,29.5,29.5S171.4,148.4,171.4,132.1z M117.3,100.3l13.8,13.8
		c0.5,0.5,1.1,0.7,1.8,0.7h18c0.7,0,1.3-0.3,1.8-0.7l13.8-13.8v31.8c0,13.5-11,24.5-24.5,24.5s-24.5-11-24.5-24.5V100.3z"/>
	<path d="M250,109.8c-16.3,0-29.5,13.2-29.5,29.5v16.8c-15-17.3-34.8-19.3-43.3-19.3c-1.2,0-2.2,0.8-2.4,2
		c-3.2,15.5-17,26.8-32.9,26.8c-2.6,0-5.2-0.4-8.4-1.2c-0.7-0.2-1.5,0-2.2,0.4c-0.6,0.5-1,1.2-1,2v58c0,3.9,3.1,7,7,7h9
		c3.9,0,7-3.1,7-7v-35.5l26,19.5h-1.5c-6.3,0-11.5,5.2-11.5,11.5v4.5c0,3.9,3.1,7,7,7H223c11.3,0,20.5-9.2,20.5-20.5v-72.1
		c0-3.6,2.9-6.5,6.5-6.5c6.3,0,11.5-5.2,11.5-11.5C261.5,115,256.3,109.8,250,109.8z M250,127.8c-6.3,0-11.5,5.2-11.5,11.5v72.1
		c0,8.6-7,15.5-15.5,15.5h-49.6c-1.1,0-2-0.9-2-2v-4.5c0-3.6,2.9-6.5,6.5-6.5h9c1.1,0,2-0.7,2.4-1.7c0.3-1,0-2.1-0.9-2.8l-36-27
		c-0.8-0.6-1.8-0.7-2.6-0.2c-0.8,0.4-1.4,1.3-1.4,2.2v40.5c0,1.1-0.9,2-2,2h-9c-1.1,0-2-0.9-2-2V170c2.3,0.4,4.4,0.6,6.5,0.6
		c17.5,0,32.9-12,37.3-28.8c10.9,0.4,29.2,4.2,41.7,23.1c0.6,0.9,1.7,1.3,2.8,1c1.1-0.3,1.8-1.3,1.8-2.4v-24.2
		c0-13.5,11-24.5,24.5-24.5c3.6,0,6.5,2.9,6.5,6.5S253.6,127.8,250,127.8z"/>
	<path d="M130.6,137.3c3.9,0,7-3.1,7-7s-3.1-7-7-7c-3.9,0-7,3.1-7,7S126.7,137.3,130.6,137.3z"/>
	<path d="M153.1,137.3c3.9,0,7-3.1,7-7s-3.1-7-7-7c-3.9,0-7,3.1-7,7S149.3,137.3,153.1,137.3z"/>
</g>
</svg>
