<?xml version="1.0" encoding="utf-8"?>
<!-- Generator: Adobe Illustrator 19.2.0, SVG Export Plug-In . SVG Version: 6.00 Build 0)  -->
<svg version="1.1" id="Capa_1" xmlns="http://www.w3.org/2000/svg" xmlns:xlink="http://www.w3.org/1999/xlink" x="0px" y="0px"
	 viewBox="0 0 259 243" style="enable-background:new 0 0 259 243;" xml:space="preserve">
<style type="text/css">
	.st0{fill:#E89049;}
	.st1{fill:#FFFFFF;}
</style>
<circle class="st0" cx="129.4" cy="121.5" r="121.5"/>
<g>
	<path class="st1" d="M209.5,102c-0.6-12.2-5.9-23.2-15.1-31c-16.2-13.8-41.1-11.9-56.8,4.2l-8.2,8.4l-8.1-8.4
		c-8.6-8.9-20-13.5-31.3-13.5c-9.2,0-18.2,3-25.5,9.2c-9.2,7.8-14.5,18.8-15.1,31c-0.6,12.1,3.8,23.9,12.1,32.4l62.4,64.5
		c1.5,1.5,3.4,2.4,5.5,2.4c0,0,0,0,0,0c2.1,0,4-0.8,5.5-2.4l62.4-64.5C205.7,125.9,210.1,114.1,209.5,102z"/>
	<path d="M214.5,101.8c-0.6-13.6-6.6-25.8-16.9-34.6c-18.2-15.5-46.1-13.5-63.6,4.5l-4.6,4.7l-4.6-4.7
		c-17.5-18.1-45.4-20.1-63.6-4.6c-10.2,8.7-16.2,21-16.9,34.6c-0.6,13.4,4.3,26.6,13.5,36.1l62.4,64.5c2.4,2.5,5.7,3.9,9.1,3.9
		c0,0,0,0,0,0c3.4,0,6.7-1.4,9.1-3.9l62.4-64.5h0C210.2,128.4,215.2,115.2,214.5,101.8z M129.5,201.3
		C129.5,201.3,129.5,201.3,129.5,201.3c-2.1,0-4-0.8-5.5-2.4l-62.4-64.5c-8.3-8.5-12.7-20.4-12.1-32.4c0.6-12.2,5.9-23.2,15.1-31
		c7.3-6.2,16.3-9.2,25.5-9.2c11.2,0,22.7,4.6,31.3,13.5l8.1,8.4l8.2-8.4c15.7-16.2,40.6-18,56.8-4.2c9.2,7.8,14.5,18.8,15.1,31
		c0.6,12.1-3.8,23.9-12.1,32.4L135,198.9C133.5,200.4,131.6,201.3,129.5,201.3z"/>
</g>
</svg>
