<?xml version="1.0" encoding="utf-8"?>
<!-- Generator: Adobe Illustrator 19.2.0, SVG Export Plug-In . SVG Version: 6.00 Build 0)  -->
<svg version="1.1" id="Capa_1" xmlns="http://www.w3.org/2000/svg" xmlns:xlink="http://www.w3.org/1999/xlink" x="0px" y="0px"
	 viewBox="0 0 259 243" style="enable-background:new 0 0 259 243;" xml:space="preserve">
<style type="text/css">
	.st0{fill:#E89049;}
	.st1{fill:#FFFFFF;stroke:#000000;stroke-width:5;stroke-linecap:round;stroke-linejoin:round;stroke-miterlimit:10;}
	.st2{font-family:'FontAwesome5Pro-Solid';}
	.st3{font-size:138.75px;}
</style>
<circle class="st0" cx="129.4" cy="121.5" r="121.5"/>
<path d="M469.4,267.2c0.9,0.1,1.3,0.2,1.7,0.2c-0.2,0.1-0.5,0.3-0.7,0.3C470.2,267.8,470.1,267.6,469.4,267.2z"/>
<g>
	<g>
		<g>
			<path class="st1" d="M243.8,187.5v7.4c0,2-1.7,3.7-3.7,3.7H229c0,12.3-10,22.2-22.2,22.2s-22.2-10-22.2-22.2h-72
				c0,12.3-10,22.2-22.2,22.2s-22.2-10-22.2-22.2h-3.7c-6.1,0-11.1-5-11.1-11.1v-74c0-6.1,5-11.1,11.1-11.1h116.4
				c6.1,0,11.1,5,11.1,11.1v11.1h10.2c2.9,0,5.8,1.2,7.8,3.3l23.1,23.1c2.1,2.1,3.3,4.9,3.3,7.8v25h3.7
				C242.2,183.8,243.8,185.5,243.8,187.5z M225.3,158.8l-23.1-23.1H192v25.9h33.3V158.8z"/>
		</g>
		<g>
			<path class="st1" d="M243.8,187.5v7.4c0,2-1.7,3.7-3.7,3.7H229c0,12.3-10,22.2-22.2,22.2s-22.2-10-22.2-22.2h-72
				c0,12.3-10,22.2-22.2,22.2s-22.2-10-22.2-22.2h-3.7c-6.1,0-11.1-5-11.1-11.1v-3.7h183.1l0,0h3.7
				C242.2,183.8,243.8,185.5,243.8,187.5z M225.3,158.8l-23.1-23.1H192v25.9h33.3V158.8z"/>
		</g>
		<circle class="st1" cx="90.4" cy="198.6" r="22.2"/>
		<circle class="st1" cx="206.8" cy="198.6" r="22.2"/>
		<circle class="st1" cx="90.4" cy="198.6" r="11.1"/>
		<circle class="st1" cx="206.8" cy="198.6" r="11.1"/>
	</g>
	<text transform="matrix(1 0 0 1 15.2 128.6594)" class="st1 st2 st3"></text>
</g>
</svg>
