<?xml version="1.0" encoding="utf-8"?>
<!-- Generator: Adobe Illustrator 19.2.0, SVG Export Plug-In . SVG Version: 6.00 Build 0)  -->
<svg version="1.1" id="Capa_1" xmlns="http://www.w3.org/2000/svg" xmlns:xlink="http://www.w3.org/1999/xlink" x="0px" y="0px"
	 viewBox="0 0 273 243" style="enable-background:new 0 0 273 243;" xml:space="preserve">
<style type="text/css">
	.st0{fill:#E89049;}
	.st1{fill:#FFFFFF;stroke:#000000;stroke-width:5;stroke-linecap:round;stroke-linejoin:round;stroke-miterlimit:10;}
	.st2{fill:#FFFFFF;}
	.st3{fill:none;}
</style>
<circle class="st0" cx="137.7" cy="121.5" r="121.5"/>
<path d="M477.7,267.2c0.9,0.1,1.3,0.2,1.7,0.2c-0.2,0.1-0.5,0.3-0.7,0.3C478.5,267.8,478.4,267.6,477.7,267.2z"/>
<path class="st1" d="M187,26"/>
<g>
	<path class="st2" d="M238.2,189c1.7,0,3.2-1.4,3.2-3.2V49.4c0-1.7-1.4-3.2-3.2-3.2H38.4c-1.7,0-3.2,1.4-3.2,3.2v136.4
		c0,1.7,1.4,3.2,3.2,3.2h76.1H162H238.2L238.2,189z"/>
	<path d="M238.2,41.3H38.4c-4.5,0-8.2,3.7-8.2,8.2v136.4c0,4.5,3.7,8.2,8.2,8.2h76.1v-5H38.4c-1.7,0-3.2-1.4-3.2-3.2V49.4
		c0-1.7,1.4-3.2,3.2-3.2h199.7c1.7,0,3.2,1.4,3.2,3.2v136.4c0,1.7-1.4,3.2-3.2,3.2H162v5h76.1c4.5,0,8.2-3.7,8.2-8.2V49.4
		C246.3,44.9,242.7,41.3,238.2,41.3z"/>
	<path class="st2" d="M84.1,210v5.2c0,0.2,0.2,0.3,0.3,0.3h107.7c0.2,0,0.3-0.1,0.3-0.3V210c0-0.2-0.1-0.3-0.3-0.3H162h-47.5H84.4
		C84.3,209.7,84.1,209.8,84.1,210z"/>
	<path d="M162.1,209.7h30.1c0.2,0,0.3,0.2,0.3,0.3v5.2c0,0.2-0.1,0.3-0.3,0.3H84.4c-0.2,0-0.3-0.1-0.3-0.3V210
		c0-0.2,0.2-0.3,0.3-0.3h30.1v-5H84.4c-2.9,0-5.3,2.4-5.3,5.3v5.2c0,2.9,2.4,5.3,5.3,5.3h107.7c2.9,0,5.3-2.4,5.3-5.3V210
		c0-2.9-2.4-5.3-5.3-5.3H162v5H162.1z"/>
	<rect x="119.5" y="194" class="st2" width="37.5" height="10.7"/>
	<path d="M162.1,189h-47.5v5v10.7v5h47.5v-5V194V189z M157.1,204.7h-37.5V194h37.5V204.7z"/>
	<g>
		<g>
			<line class="st3" x1="117.6" y1="82.2" x2="52.3" y2="82.2"/>
			<path d="M117.6,84.7H52.3c-1.4,0-2.5-1.1-2.5-2.5s1.1-2.5,2.5-2.5h65.3c1.4,0,2.5,1.1,2.5,2.5S119,84.7,117.6,84.7z"/>
		</g>
		<g>
			<line class="st3" x1="108.1" y1="97.2" x2="52.3" y2="97.2"/>
			<path d="M108.1,99.7H52.3c-1.4,0-2.5-1.1-2.5-2.5s1.1-2.5,2.5-2.5h55.8c1.4,0,2.5,1.1,2.5,2.5S109.5,99.7,108.1,99.7z"/>
		</g>
		<g>
			<line class="st3" x1="117.6" y1="67.2" x2="52.3" y2="67.2"/>
			<path d="M117.6,69.7H52.3c-1.4,0-2.5-1.1-2.5-2.5s1.1-2.5,2.5-2.5h65.3c1.4,0,2.5,1.1,2.5,2.5C120.1,68.6,119,69.7,117.6,69.7z"
				/>
		</g>
		<g>
			<line class="st3" x1="117.6" y1="112.2" x2="52.3" y2="112.2"/>
			<path d="M117.6,114.7H52.3c-1.4,0-2.5-1.1-2.5-2.5s1.1-2.5,2.5-2.5h65.3c1.4,0,2.5,1.1,2.5,2.5S119,114.7,117.6,114.7z"/>
		</g>
		<g>
			<line class="st3" x1="108.1" y1="126.2" x2="52.3" y2="126.2"/>
			<path d="M108.1,128.7H52.3c-1.4,0-2.5-1.1-2.5-2.5s1.1-2.5,2.5-2.5h55.8c1.4,0,2.5,1.1,2.5,2.5S109.5,128.7,108.1,128.7z"/>
		</g>
		<g>
			<line class="st3" x1="117.6" y1="154.2" x2="52.3" y2="154.2"/>
			<path d="M117.6,156.7H52.3c-1.4,0-2.5-1.1-2.5-2.5s1.1-2.5,2.5-2.5h65.3c1.4,0,2.5,1.1,2.5,2.5S119,156.7,117.6,156.7z"/>
		</g>
		<g>
			<line class="st3" x1="117.6" y1="168.2" x2="52.3" y2="168.2"/>
			<path d="M117.6,170.7H52.3c-1.4,0-2.5-1.1-2.5-2.5s1.1-2.5,2.5-2.5h65.3c1.4,0,2.5,1.1,2.5,2.5S119,170.7,117.6,170.7z"/>
		</g>
		<g>
			<line class="st3" x1="148.6" y1="97.2" x2="120.7" y2="97.2"/>
			<path d="M148.6,99.7h-27.9c-1.4,0-2.5-1.1-2.5-2.5s1.1-2.5,2.5-2.5h27.9c1.4,0,2.5,1.1,2.5,2.5S150,99.7,148.6,99.7z"/>
		</g>
		<g>
			<line class="st3" x1="165" y1="112.2" x2="132.3" y2="112.2"/>
			<path d="M165,114.7h-32.6c-1.4,0-2.5-1.1-2.5-2.5s1.1-2.5,2.5-2.5H165c1.4,0,2.5,1.1,2.5,2.5S166.3,114.7,165,114.7z"/>
		</g>
		<g>
			<line class="st3" x1="148.6" y1="126.2" x2="120.7" y2="126.2"/>
			<path d="M148.6,128.7h-27.9c-1.4,0-2.5-1.1-2.5-2.5s1.1-2.5,2.5-2.5h27.9c1.4,0,2.5,1.1,2.5,2.5S150,128.7,148.6,128.7z"/>
		</g>
		<g>
			<line class="st3" x1="101.9" y1="140.2" x2="52.3" y2="140.2"/>
			<path d="M101.9,142.7H52.3c-1.4,0-2.5-1.1-2.5-2.5s1.1-2.5,2.5-2.5h49.6c1.4,0,2.5,1.1,2.5,2.5S103.3,142.7,101.9,142.7z"/>
		</g>
		<g>
			<line class="st3" x1="165" y1="154.2" x2="132.3" y2="154.2"/>
			<path d="M165,156.7h-32.6c-1.4,0-2.5-1.1-2.5-2.5s1.1-2.5,2.5-2.5H165c1.4,0,2.5,1.1,2.5,2.5S166.3,156.7,165,156.7z"/>
		</g>
		<g>
			<line class="st3" x1="191.9" y1="168.2" x2="132.3" y2="168.2"/>
			<path d="M191.9,170.7h-59.6c-1.4,0-2.5-1.1-2.5-2.5s1.1-2.5,2.5-2.5h59.6c1.4,0,2.5,1.1,2.5,2.5S193.3,170.7,191.9,170.7z"/>
		</g>
		<g>
			<line class="st3" x1="191.9" y1="82.2" x2="130.1" y2="82.2"/>
			<path d="M191.9,84.7h-61.8c-1.4,0-2.5-1.1-2.5-2.5s1.1-2.5,2.5-2.5h61.8c1.4,0,2.5,1.1,2.5,2.5S193.3,84.7,191.9,84.7z"/>
		</g>
		<g>
			<line class="st3" x1="205.9" y1="97.2" x2="160.3" y2="97.2"/>
			<path d="M205.9,99.7h-45.6c-1.4,0-2.5-1.1-2.5-2.5s1.1-2.5,2.5-2.5h45.6c1.4,0,2.5,1.1,2.5,2.5S207.3,99.7,205.9,99.7z"/>
		</g>
		<g>
			<line class="st3" x1="223.9" y1="126.2" x2="162.1" y2="126.2"/>
			<path d="M223.9,128.7h-61.8c-1.4,0-2.5-1.1-2.5-2.5s1.1-2.5,2.5-2.5h61.8c1.4,0,2.5,1.1,2.5,2.5S225.3,128.7,223.9,128.7z"/>
		</g>
		<g>
			<line class="st3" x1="205.9" y1="154.2" x2="178.3" y2="154.2"/>
			<path d="M205.9,156.7h-27.6c-1.4,0-2.5-1.1-2.5-2.5s1.1-2.5,2.5-2.5h27.6c1.4,0,2.5,1.1,2.5,2.5S207.3,156.7,205.9,156.7z"/>
		</g>
	</g>
	<g>
		<path class="st2" d="M80.5,27.5H8.2c-1.7,0-3.2,1.4-3.2,3.2v115.4c0,1.7,1.4,3.2,3.2,3.2h72.3c1.7,0,3.2-1.4,3.2-3.2V30.7
			C83.6,28.9,82.2,27.5,80.5,27.5z"/>
		<path d="M80.5,22.5H8.2c-4.5,0-8.2,3.7-8.2,8.2v115.4c0,4.5,3.7,8.2,8.2,8.2h72.3c4.5,0,8.2-3.7,8.2-8.2V30.7
			C88.6,26.2,85,22.5,80.5,22.5z M83.6,146c0,1.7-1.4,3.2-3.2,3.2H8.1c-1.7,0-3.2-1.4-3.2-3.2V30.7c0-1.7,1.4-3.2,3.2-3.2h72.3
			c1.7,0,3.2,1.4,3.2,3.2V146z"/>
	</g>
	<g>
		<path d="M29.4,102.3c-0.6,0-1.2-0.2-1.6-0.6L15.5,90.9c-0.5-0.5-0.9-1.2-0.9-1.9s0.3-1.4,0.9-1.9l12.3-10.7c1-0.9,2.6-0.8,3.5,0.2
			s0.8,2.6-0.2,3.5l-10.2,8.8l10.2,8.9c1,0.9,1.1,2.5,0.2,3.5C30.8,102,30.1,102.3,29.4,102.3z"/>
		<path d="M59.2,102.3c-0.7,0-1.4-0.3-1.9-0.9c-0.9-1-0.8-2.6,0.2-3.5L67.7,89l-10.2-8.8c-1-0.9-1.2-2.5-0.2-3.5
			c0.9-1,2.5-1.2,3.5-0.2l12.3,10.7c0.5,0.5,0.9,1.2,0.9,1.9s-0.3,1.4-0.9,1.9l-12.3,10.7C60.4,102.1,59.8,102.3,59.2,102.3z"/>
		<path d="M40.3,107.7c-0.2,0-0.5,0-0.7-0.1c-1.3-0.4-2.1-1.8-1.7-3.1l9.8-33.6c0.4-1.3,1.8-2.1,3.1-1.7c1.3,0.4,2.1,1.8,1.7,3.1
			l-9.8,33.6C42.4,107,41.4,107.7,40.3,107.7z"/>
	</g>
</g>
</svg>
