<?xml version="1.0" encoding="utf-8"?>
<!-- Generator: Adobe Illustrator 19.2.0, SVG Export Plug-In . SVG Version: 6.00 Build 0)  -->
<svg version="1.1" id="Capa_1" xmlns="http://www.w3.org/2000/svg" xmlns:xlink="http://www.w3.org/1999/xlink" x="0px" y="0px"
	 viewBox="0 0 259 243" style="enable-background:new 0 0 259 243;" xml:space="preserve">
<style type="text/css">
	.st0{fill:#E89049;}
	.st1{fill:#FFFFFF;stroke:#000000;stroke-width:5;stroke-linecap:round;stroke-linejoin:round;stroke-miterlimit:10;}
</style>
<circle class="st0" cx="129.4" cy="121.5" r="121.5"/>
<path d="M469.4,267.2c0.9,0.1,1.3,0.2,1.7,0.2c-0.2,0.1-0.5,0.3-0.7,0.3C470.2,267.8,470.1,267.6,469.4,267.2z"/>
<g>
	<path class="st1" d="M135.4,213.7h-12.9c-38,0-68.9-30.8-68.9-68.9V136h150.6v8.8C204.3,182.9,173.4,213.7,135.4,213.7z"/>
	<ellipse class="st1" cx="129" cy="136" rx="75.3" ry="19.6"/>
	<path class="st1" d="M219.9,58.6H99.8c-7.4,0-13.4-6-13.4-13.4v-2.5c0-7.4,6-13.4,13.4-13.4h120.2c7.4,0,13.4,6,13.4,13.4v2.5
		C233.3,52.6,227.3,58.6,219.9,58.6z"/>
	<path class="st1" d="M86.4,43.5v32.1c0,3.2,2.6,5.8,5.8,5.8h1c3.2,0,5.8-2.6,5.8-5.8v-1.2c0-3.2,2.6-5.8,5.8-5.8h1
		c3.2,0,5.8,2.6,5.8,5.8v19.7c0,3.2,2.6,5.8,5.8,5.8h0c3.2,0,5.8-2.6,5.8-5.8V74.7c0-3.2,2.6-5.8,5.8-5.8h0c3.2,0,5.8,2.6,5.8,5.8
		v41.1c0,3.2,2.6,5.8,5.8,5.8h3.1c3.2,0,5.8-2.6,5.8-5.8V58.6c0,0,22.2-8.8,15.6-29.3h-64C92.8,29.3,86.4,35.7,86.4,43.5z"/>
</g>
</svg>
