<?xml version="1.0" encoding="utf-8"?>
<!-- Generator: Adobe Illustrator 19.2.0, SVG Export Plug-In . SVG Version: 6.00 Build 0)  -->
<svg version="1.1" id="Capa_1" xmlns="http://www.w3.org/2000/svg" xmlns:xlink="http://www.w3.org/1999/xlink" x="0px" y="0px"
	 viewBox="0 0 287.7 243" style="enable-background:new 0 0 287.7 243;" xml:space="preserve">
<style type="text/css">
	.st0{fill:#E89049;}
	.st1{fill:#FFFFFF;stroke:#000000;stroke-width:5;stroke-linecap:round;stroke-linejoin:round;stroke-miterlimit:10;}
	.st2{fill:none;stroke:#000000;stroke-width:5;stroke-linecap:round;stroke-linejoin:round;stroke-miterlimit:10;}
</style>
<circle class="st0" cx="144.4" cy="121.5" r="121.5"/>
<path d="M484.4,267.2c0.9,0.1,1.3,0.2,1.7,0.2c-0.2,0.1-0.5,0.3-0.7,0.3C485.2,267.8,485.1,267.6,484.4,267.2z"/>
<path class="st1" d="M193.7,26"/>
<g>
	<path class="st1" d="M198.2,205H89.3c-4.2,0-7.5-3.4-7.5-7.5v-152c0-4.2,3.4-7.5,7.5-7.5h86.5l30,27.3v132.1
		C205.8,201.6,202.4,205,198.2,205z"/>
	<polygon class="st1" points="175.8,38 175.4,65.3 205.8,65.3 	"/>
	<line class="st2" x1="109.8" y1="64.6" x2="157.4" y2="64.6"/>
	<line class="st2" x1="109.8" y1="92.6" x2="177.8" y2="92.6"/>
	<line class="st2" x1="109.8" y1="114.6" x2="177.8" y2="114.6"/>
	<line class="st2" x1="109.8" y1="136.6" x2="177.8" y2="136.6"/>
	<line class="st2" x1="109.8" y1="158.6" x2="177.8" y2="158.6"/>
	<line class="st2" x1="109.8" y1="180.6" x2="177.8" y2="180.6"/>
</g>
<g>
	<rect x="160.3" y="114" class="st1" width="83.6" height="115"/>
	<rect x="172.8" y="125.4" class="st1" width="58.5" height="19.2"/>
	<rect x="172.8" y="155.5" class="st1" width="58.5" height="15.4"/>
	<rect x="172.8" y="170.9" class="st1" width="58.5" height="15.4"/>
	<rect x="172.8" y="186.3" class="st1" width="58.5" height="15.4"/>
	<rect x="172.8" y="201.6" class="st1" width="58.5" height="15.4"/>
	<rect x="191.8" y="155.5" class="st1" width="20.5" height="15.4"/>
	<rect x="191.8" y="170.9" class="st1" width="20.5" height="15.4"/>
	<rect x="191.8" y="186.3" class="st1" width="20.5" height="15.4"/>
	<rect x="191.8" y="201.6" class="st1" width="20.5" height="15.4"/>
</g>
</svg>
