<?xml version="1.0" encoding="utf-8"?>
<!-- Generator: Adobe Illustrator 19.2.0, SVG Export Plug-In . SVG Version: 6.00 Build 0)  -->
<svg version="1.1" id="Capa_1" xmlns="http://www.w3.org/2000/svg" xmlns:xlink="http://www.w3.org/1999/xlink" x="0px" y="0px"
	 viewBox="0 0 259 243" style="enable-background:new 0 0 259 243;" xml:space="preserve">
<style type="text/css">
	.st0{fill:#E89049;}
	.st1{fill:#FFFFFF;stroke:#000000;stroke-width:5;stroke-miterlimit:10;}
</style>
<circle class="st0" cx="129.4" cy="121.5" r="121.5"/>
<path class="st1" d="M139.5,243H113c-8,0-14.5-6.5-14.5-14.5v-87.2c0-8,6.5-14.5,14.5-14.5h26.5c8,0,14.5,6.5,14.5,14.5v87.2
	C154,236.5,147.5,243,139.5,243z"/>
<path class="st1" d="M130.1,177.2h-7.8c-6.8,0-12.2-5.5-12.2-12.2v-48.6c0-1.9,1.5-3.4,3.4-3.4h25.4c1.9,0,3.4,1.5,3.4,3.4v48.6
	C142.4,171.7,136.9,177.2,130.1,177.2z"/>
<path class="st1" d="M218.4,91.2h-19.2c-3.8,0-6.9-3.1-6.9-6.9v-4.4c0-3.8,3.1-6.9,6.9-6.9h19.2c3.8,0,6.9,3.1,6.9,6.9v4.4
	C225.3,88.1,222.2,91.2,218.4,91.2z"/>
<path class="st1" d="M225.5,169.9h-33.1c-6,0-10.9-4.9-10.9-10.9v-60c0-6,4.9-10.9,10.9-10.9h33.1c6,0,10.9,4.9,10.9,10.9v60
	C236.5,165,231.6,169.9,225.5,169.9z"/>
<path class="st1" d="M79.4,43.7l-6.9,7.9c-3.5,4-9.6,4.4-13.7,0.9L41.4,37.3c-4-3.5-4.4-9.6-0.9-13.7l6.9-7.9
	c3.5-4,9.6-4.4,13.7-0.9L78.5,30C82.5,33.5,83,39.7,79.4,43.7z"/>
<path class="st1" d="M122.7,87.4L122.7,87.4c-5.1,5.9-14.1,6.5-20,1.4l-0.7-0.6c-5.9-5.1-4.8-23-4.8-23s17.5-3.5,23.4,1.6l0.7,0.6
	C127.3,72.5,127.9,81.5,122.7,87.4z"/>
<line class="st1" x1="76" y1="47.6" x2="96.8" y2="65.8"/>
<path class="st1" d="M224.1,107.7v43.6c0,3.9-3.1,7-7,7h-21.7"/>
</svg>
