<?xml version="1.0" encoding="utf-8"?>
<!-- Generator: Adobe Illustrator 19.2.0, SVG Export Plug-In . SVG Version: 6.00 Build 0)  -->
<svg version="1.1" id="Capa_1" xmlns="http://www.w3.org/2000/svg" xmlns:xlink="http://www.w3.org/1999/xlink" x="0px" y="0px"
	 viewBox="0 0 243 243" style="enable-background:new 0 0 243 243;" xml:space="preserve">
<style type="text/css">
	.st0{fill:#E89049;}
	.st1{fill:#FFFFFF;stroke:#000000;stroke-width:5;stroke-linecap:round;stroke-linejoin:round;stroke-miterlimit:10;}
	.st2{fill:none;stroke:#000000;stroke-width:5;stroke-linecap:round;stroke-linejoin:round;stroke-miterlimit:10;}
</style>
<circle class="st0" cx="121.5" cy="121.5" r="121.5"/>
<path d="M461.5,267.2c0.9,0.1,1.3,0.2,1.7,0.2c-0.2,0.1-0.5,0.3-0.7,0.3C462.3,267.8,462.2,267.6,461.5,267.2z"/>
<g>
	<path class="st1" d="M174.6,111.3H69.3c-2,0-3.6-0.9-3.6-2l0.1-82.5h112.4v82.5C178.3,110.4,176.6,111.3,174.6,111.3z"/>
	<path class="st1" d="M167.2,29.5"/>
	<path class="st1" d="M224.5,178.9H17.3c-4.6,0-8.3-3.7-8.3-8.3V86.4c0-4.6,3.7-8.3,8.3-8.3h207.2c4.6,0,8.3,3.7,8.3,8.3v84.3
		C232.8,175.2,229.1,178.9,224.5,178.9z"/>
	<g>
		<path class="st1" d="M174.6,216.2H69.3c-2,0-3.6-0.9-3.6-2l0.1-82.5h112.4v82.5C178.3,215.3,176.6,216.2,174.6,216.2z"/>
		<line class="st2" x1="91.1" y1="154.1" x2="152.8" y2="154.1"/>
		<line class="st2" x1="91.1" y1="174.1" x2="152.8" y2="174.1"/>
		<line class="st2" x1="91.1" y1="194" x2="152.8" y2="194"/>
	</g>
	<circle class="st1" cx="209.7" cy="96.7" r="6.8"/>
</g>
</svg>
