<?xml version="1.0" encoding="utf-8"?>
<!-- Generator: Adobe Illustrator 19.2.0, SVG Export Plug-In . SVG Version: 6.00 Build 0)  -->
<svg version="1.1" id="Capa_1" xmlns="http://www.w3.org/2000/svg" xmlns:xlink="http://www.w3.org/1999/xlink" x="0px" y="0px"
	 viewBox="0 0 259 243" style="enable-background:new 0 0 259 243;" xml:space="preserve">
<style type="text/css">
	.st0{fill:#E89049;}
	.st1{fill:#FFFFFF;stroke:#000000;stroke-width:5;stroke-linecap:round;stroke-linejoin:round;stroke-miterlimit:10;}
</style>
<circle class="st0" cx="129.4" cy="121.5" r="121.5"/>
<path d="M469.4,267.2c0.9,0.1,1.3,0.2,1.7,0.2c-0.2,0.1-0.5,0.3-0.7,0.3C470.2,267.8,470.1,267.6,469.4,267.2z"/>
<path class="st1" d="M178.7,26"/>
<g>
	<path class="st1" d="M185,203.2H76.1c-4.2,0-7.5-3.4-7.5-7.5V43.7c0-4.2,3.4-7.5,7.5-7.5h86.5l30,27.3v132.1
		C192.6,199.8,189.2,203.2,185,203.2z"/>
	<polygon class="st1" points="162.6,36.2 162.2,63.5 192.6,63.5 	"/>
	<line class="st1" x1="96.6" y1="62.8" x2="144.2" y2="62.8"/>
	<line class="st1" x1="96.6" y1="90.8" x2="164.6" y2="90.8"/>
	<line class="st1" x1="96.6" y1="112.8" x2="164.6" y2="112.8"/>
	<line class="st1" x1="96.6" y1="134.8" x2="164.6" y2="134.8"/>
	<line class="st1" x1="96.6" y1="156.8" x2="164.6" y2="156.8"/>
	<line class="st1" x1="96.6" y1="178.8" x2="164.6" y2="178.8"/>
	<polygon class="st1" points="88.8,226.8 68.6,202.9 48.3,226.8 55.6,159 81.5,159 	"/>
	<path class="st1" d="M90.7,155c0,12.2-9.9,22.2-22.2,22.2s-22.2-9.9-22.2-22.2s9.9-22.2,22.2-22.2S90.7,142.8,90.7,155z"/>
</g>
</svg>
