<?xml version="1.0" encoding="utf-8"?>
<!-- Generator: Adobe Illustrator 19.2.0, SVG Export Plug-In . SVG Version: 6.00 Build 0)  -->
<svg version="1.1" id="Capa_1" xmlns="http://www.w3.org/2000/svg" xmlns:xlink="http://www.w3.org/1999/xlink" x="0px" y="0px"
	 viewBox="0 0 259 243" style="enable-background:new 0 0 259 243;" xml:space="preserve">
<style type="text/css">
	.st0{fill:#E89049;}
	.st1{fill:#FFFFFF;}
</style>
<circle class="st0" cx="129.4" cy="121.5" r="121.5"/>
<g>
	<path class="st1" d="M55,147.9c3.9-2.8,8.6-4.5,13.7-4.5c5.1,0,9.9,1.7,13.7,4.5h78l10.9-10.7V69.3H84.6l-3.7,13.2
		c-0.1,0.3-0.2,0.6-0.4,0.9l-35.6,45.1c-0.5,0.6-1.2,1-2,1H18.5h-8.4v15.9l6.1,2.6H55z"/>
	<path class="st1" d="M45.5,164.3c0.5-4.2,2-8.1,4.5-11.4H20.3c3.3,5,6.5,9.7,7.8,11.4C30.3,164.2,36.5,164.2,45.5,164.3z"/>
	<path class="st1" d="M248.7,152.9h-28.1c2.4,3.2,4,7.1,4.5,11.3c5.6,0,11,0,16.1,0l7.6-9.3V152.9z"/>
	<path class="st1" d="M183,152.9h-21.5H87.6c2.4,3.3,4,7.2,4.5,11.4c26.2,0,57.1,0,86.5,0C179,160,180.6,156.1,183,152.9z"/>
	<path class="st1" d="M201.8,143.4c2.5,0,4.9,0.4,7.2,1.1V79.3h-15.8V145C195.8,144,198.7,143.4,201.8,143.4z"/>
	<path class="st1" d="M87.2,166.8c0-10.1-8.3-18.4-18.4-18.4s-18.4,8.3-18.4,18.4s8.3,18.4,18.4,18.4S87.2,176.9,87.2,166.8z
		 M68.8,179c-6.7,0-12.2-5.5-12.2-12.2s5.5-12.2,12.2-12.2S81,160,81,166.8S75.5,179,68.8,179z"/>
	<circle class="st1" cx="68.8" cy="166.8" r="7.2"/>
	<path d="M81,166.8c0-6.7-5.5-12.2-12.2-12.2s-12.2,5.5-12.2,12.2S62,179,68.8,179S81,173.5,81,166.8z M61.6,166.8
		c0-4,3.2-7.2,7.2-7.2s7.2,3.2,7.2,7.2s-3.2,7.2-7.2,7.2S61.6,170.7,61.6,166.8z"/>
	<polygon class="st1" points="214,79.3 214,108.4 247.4,108.4 234.5,79.3 	"/>
	<path class="st1" d="M214,113.4v33.4c0.5,0.3,1,0.7,1.5,1h33.2v-34.4H214z M232.5,125.3h-10.2c-1.4,0-2.5-1.1-2.5-2.5
		s1.1-2.5,2.5-2.5h10.2c1.4,0,2.5,1.1,2.5,2.5S233.9,125.3,232.5,125.3z"/>
	<path class="st1" d="M201.8,148.4c-10.1,0-18.4,8.3-18.4,18.4s8.3,18.4,18.4,18.4s18.4-8.3,18.4-18.4S211.9,148.4,201.8,148.4z
		 M214,166.8c0,6.7-5.5,12.2-12.2,12.2s-12.2-5.5-12.2-12.2s5.5-12.2,12.2-12.2S214,160,214,166.8z"/>
	<circle class="st1" cx="201.8" cy="166.8" r="7.2"/>
	<path d="M201.8,154.6c-6.7,0-12.2,5.5-12.2,12.2s5.5,12.2,12.2,12.2s12.2-5.5,12.2-12.2S208.5,154.6,201.8,154.6z M209,166.8
		c0,4-3.2,7.2-7.2,7.2s-7.2-3.2-7.2-7.2s3.2-7.2,7.2-7.2S209,162.8,209,166.8z"/>
	<path d="M253.6,110.4C253.6,110.4,253.6,110.4,253.6,110.4c0-0.2-0.1-0.3-0.2-0.5c0,0,0,0,0,0l-15-34.1c-0.4-0.9-1.3-1.5-2.3-1.5
		h-24.7h-20.8c-1.4,0-2.5,1.1-2.5,2.5v70.9c0,0-0.1,0.1-0.1,0.1h-20.4l8-7.9c0.5-0.5,0.7-1.1,0.7-1.8V66.8c0-1.4-1.1-2.5-2.5-2.5
		H83.7L73,53.6c-0.5-0.5-1.1-0.7-1.8-0.7L58,53.2c-1.4,0-2.4,1.1-2.4,2.5v16.6l-38.4,52.1H7.6c-1.4,0-2.5,1.1-2.5,2.5v20
		c0,1,0.6,1.9,1.5,2.3l7.4,3.2c10.6,16.3,11.3,16.5,12.4,16.8c0.2,0,0.4,0.1,19.1,0.1c1.2,11.7,11.2,20.9,23.3,20.9
		c12.1,0,22-9.2,23.3-20.9c21.2,0,49.3,0,86.5,0c1.2,11.7,11.2,20.9,23.3,20.9c12.1,0,22.1-9.2,23.3-21c5.6,0,11.3,0,17.2,0
		c0.7,0,1.5-0.3,1.9-0.9l8.9-10.9c0.4-0.4,0.6-1,0.6-1.6v-5.4v-39.4C253.7,110.8,253.7,110.6,253.6,110.4z M220.2,166.8
		c0,10.1-8.3,18.4-18.4,18.4s-18.4-8.3-18.4-18.4s8.3-18.4,18.4-18.4S220.2,156.6,220.2,166.8z M50.4,166.8
		c0-10.1,8.3-18.4,18.4-18.4s18.4,8.3,18.4,18.4s-8.3,18.4-18.4,18.4S50.4,176.9,50.4,166.8z M76.2,80.6l-34.5,43.8H23.4l36.7-49.8
		c0.3-0.4,0.5-0.9,0.5-1.5v-15l9.7-0.2l9.6,9.6L76.2,80.6z M10.1,129.3h8.4h24.4c0.8,0,1.5-0.4,2-1l35.6-45.1
		c0.2-0.3,0.4-0.6,0.4-0.9l3.7-13.2h86.8v67.9l-10.9,10.7h-78c-3.9-2.8-8.6-4.5-13.7-4.5c-5.1,0-9.9,1.7-13.7,4.5H16.2l-6.1-2.6
		V129.3z M50,152.9c-2.4,3.3-4,7.2-4.5,11.4c-9,0-15.2,0-17.4-0.1c-1.3-1.7-4.5-6.4-7.8-11.4H50z M87.6,152.9h73.9H183
		c-2.4,3.3-4,7.1-4.5,11.4c-29.4,0-60.3,0-86.5,0C91.6,160,90,156.1,87.6,152.9z M215.5,147.9c-0.5-0.4-1-0.7-1.5-1v-33.4h34.7v34.4
		H215.5z M214,108.4V79.3h20.6l12.8,29.1H214z M209,79.3v65.2c-2.3-0.7-4.7-1.1-7.2-1.1c-3,0-5.9,0.6-8.6,1.6V79.3H209z M225,164.2
		c-0.5-4.2-2.1-8.1-4.5-11.3h28.1v2l-7.6,9.3C236,164.2,230.6,164.2,225,164.2z"/>
	<path class="st1" d="M60.6,58.1v15c0,0.5-0.2,1.1-0.5,1.5l-36.7,49.8h18.2l34.5-43.8l3.7-13.1l-9.6-9.6L60.6,58.1z"/>
	<path d="M232.5,120.3h-10.2c-1.4,0-2.5,1.1-2.5,2.5s1.1,2.5,2.5,2.5h10.2c1.4,0,2.5-1.1,2.5-2.5S233.9,120.3,232.5,120.3z"/>
</g>
</svg>
