<?xml version="1.0" encoding="utf-8"?>
<!-- Generator: Adobe Illustrator 19.2.0, SVG Export Plug-In . SVG Version: 6.00 Build 0)  -->
<svg version="1.1" id="Capa_1" xmlns="http://www.w3.org/2000/svg" xmlns:xlink="http://www.w3.org/1999/xlink" x="0px" y="0px"
	 viewBox="0 0 269.9 243" style="enable-background:new 0 0 269.9 243;" xml:space="preserve">
<style type="text/css">
	.st0{fill:#E89049;}
	.st1{fill:#FFFFFF;}
</style>
<circle class="st0" cx="135" cy="121.5" r="121.5"/>
<g>
	<path class="st1" d="M66.1,139.9c9.4,0,17-7.6,17-17s-7.6-17-17-17s-17,7.6-17,17S56.7,139.9,66.1,139.9z"/>
	<path class="st1" d="M134.5,149.7c17.5,0,31.7-14.2,31.7-31.7S152,86.3,134.5,86.3s-31.7,14.2-31.7,31.7
		C102.8,135.5,117,149.7,134.5,149.7z"/>
	<path class="st1" d="M202.9,139.9c9.4,0,17-7.6,17-17s-7.6-17-17-17s-17,7.6-17,17S193.5,139.9,202.9,139.9z"/>
	<path class="st1" d="M85.3,157.6c-2.8-1.9-6-2.9-9.5-2.9H56.3c-9.4,0-17,7.6-17,17v9.8c0,4,3.3,7.3,7.3,7.3h18
		C66.8,176,74.4,164.7,85.3,157.6z"/>
	<path class="st1" d="M212.7,154.7h-19.5c-3.4,0-6.7,1-9.5,2.9c10.9,7.1,18.5,18.5,20.8,31.2h18c4,0,7.3-3.3,7.3-7.3v-9.8
		C229.7,162.3,222.1,154.7,212.7,154.7z"/>
	<path class="st1" d="M158,164.5h-2c-6.9,3.2-14.2,4.9-21.5,4.9s-14.5-1.6-21.5-4.9h-2c-18,0-32.7,14.7-32.7,32.7v8.8
		c0,6.7,5.5,12.2,12.2,12.2h88c6.7,0,12.2-5.5,12.2-12.2v-8.8C190.6,179.1,176,164.5,158,164.5z"/>
	<path d="M90.8,160.1l2.9-1.6l-2.4-2.4c-4.2-4.1-9.7-6.4-15.5-6.4H56.3c-12.2,0-22,9.9-22,22v9.8c0,6.8,5.5,12.3,12.3,12.3h22.3
		l0.3-2.2C70.9,178.3,79,166.6,90.8,160.1z M39.3,181.5v-9.8c0-9.4,7.6-17,17-17h19.5c3.4,0,6.7,1,9.5,2.9
		c-10.9,7.1-18.5,18.5-20.8,31.2h-18C42.5,188.8,39.3,185.5,39.3,181.5z"/>
	<path d="M212.7,149.7h-19.5c-5.9,0-11.4,2.3-15.5,6.4l-2.4,2.4l2.9,1.6c11.8,6.5,19.9,18.3,21.7,31.5l0.3,2.2h22.4
		c6.8,0,12.3-5.5,12.3-12.3v-9.8C234.7,159.6,224.8,149.7,212.7,149.7z M229.7,181.5c0,4-3.3,7.3-7.3,7.3h-18
		c-2.3-12.8-9.9-24.1-20.8-31.2c2.8-1.9,6-2.9,9.5-2.9h19.5c9.4,0,17,7.6,17,17L229.7,181.5L229.7,181.5z"/>
	<path d="M66.1,144.9c12.2,0,22-9.9,22-22s-9.9-22-22-22s-22,9.9-22,22S53.9,144.9,66.1,144.9z M66.1,105.8c9.4,0,17,7.6,17,17
		s-7.6,17-17,17s-17-7.6-17-17S56.7,105.8,66.1,105.8z"/>
	<path d="M134.5,154.7c20.2,0,36.7-16.5,36.7-36.7s-16.5-36.7-36.7-36.7S97.8,97.8,97.8,118S114.3,154.7,134.5,154.7z M134.5,86.3
		c17.5,0,31.7,14.2,31.7,31.7s-14.2,31.7-31.7,31.7s-31.7-14.2-31.7-31.7C102.8,100.5,117,86.3,134.5,86.3z"/>
	<path d="M202.9,144.9c12.2,0,22-9.9,22-22s-9.9-22-22-22s-22,9.9-22,22S190.8,144.9,202.9,144.9z M202.9,105.8c9.4,0,17,7.6,17,17
		s-7.6,17-17,17s-17-7.6-17-17S193.5,105.8,202.9,105.8z"/>
	<path d="M158,159.5h-3.1l-0.5,0.2c-12.8,6.1-26.8,6.2-39.7,0l-0.5-0.2h-3.1c-20.8,0-37.7,16.9-37.7,37.7v8.8
		c0,9.5,7.7,17.2,17.2,17.2h88c9.5,0,17.2-7.7,17.2-17.2v-8.8C195.6,176.4,178.7,159.5,158,159.5z M190.6,206
		c0,6.7-5.5,12.2-12.2,12.2h-88c-6.7,0-12.2-5.5-12.2-12.2v-8.8c0-18,14.7-32.7,32.7-32.7h2c7,3.2,14.2,4.9,21.5,4.9
		s14.6-1.6,21.5-4.9h2c18,0,32.7,14.7,32.7,32.7V206z"/>
	<path class="st1" d="M252.7,146.4h-14.8c-2.1,0-4.2,0.5-6,1.6c7.8,5.4,13.3,13.7,15.1,23h13.1c2.7,0,4.9-2.2,4.9-4.9v-7.4
		C265,151.9,259.4,146.4,252.7,146.4z"/>
	<path d="M252.7,141.4h-14.8c-4.6,0-8.9,1.8-12.2,5l-2.4,2.4l2.9,1.6c8.8,4.8,14.8,13.6,16.1,23.4l0.3,2.2H260
		c5.5,0,9.9-4.4,9.9-9.9v-7.4C270,149.2,262.2,141.4,252.7,141.4z M265,166.1c0,2.7-2.2,4.9-4.9,4.9H247c-1.8-9.3-7.3-17.6-15.1-23
		c1.8-1,3.9-1.6,6-1.6h14.8c6.8,0,12.3,5.5,12.3,12.3L265,166.1L265,166.1z"/>
	<path class="st1" d="M233,121.7c0,6.8,5.5,12.3,12.3,12.3s12.3-5.5,12.3-12.3s-5.5-12.3-12.3-12.3S233,114.9,233,121.7z"/>
	<path d="M245.3,139c9.5,0,17.3-7.8,17.3-17.3s-7.8-17.3-17.3-17.3s-17.3,7.8-17.3,17.3S235.7,139,245.3,139z M257.6,121.7
		c0,6.8-5.5,12.3-12.3,12.3s-12.3-5.5-12.3-12.3s5.5-12.3,12.3-12.3S257.6,114.9,257.6,121.7z"/>
	<path class="st1" d="M38.2,147c-1.8-1-3.9-1.6-6-1.6H17.4c-6.8,0-12.3,5.5-12.3,12.3v7.4c0,2.7,2.2,4.9,4.9,4.9h13.1
		C24.9,160.7,30.3,152.4,38.2,147z"/>
	<path d="M32.1,140.4H17.3c-9.5,0-17.3,7.8-17.3,17.3v7.4c0,5.5,4.4,9.9,9.9,9.9h17.4l0.3-2.2c1.3-9.9,7.3-18.6,16.1-23.4l2.9-1.6
		l-2.4-2.4C41,142.2,36.7,140.4,32.1,140.4z M9.9,170c-2.7,0-4.9-2.2-4.9-4.9v-7.4c0-6.8,5.5-12.3,12.3-12.3h14.8
		c2.1,0,4.2,0.5,6,1.6c-7.8,5.4-13.3,13.7-15.1,23L9.9,170L9.9,170z"/>
	<path class="st1" d="M12.4,120.7c0,6.8,5.5,12.3,12.3,12.3S37,127.5,37,120.7s-5.5-12.3-12.3-12.3S12.4,113.9,12.4,120.7z"/>
	<path d="M24.7,138c9.5,0,17.3-7.8,17.3-17.3s-7.8-17.3-17.3-17.3s-17.3,7.8-17.3,17.3S15.2,138,24.7,138z M37,120.7
		c0,6.8-5.5,12.3-12.3,12.3s-12.3-5.5-12.3-12.3s5.5-12.3,12.3-12.3S37,113.9,37,120.7z"/>
	<polygon class="st1" points="145.6,199.7 150.6,202.1 155.6,199.5 155.6,189.1 145.6,189.1 	"/>
	<path d="M158.1,184.1h-15c-1.4,0-2.5,1.1-2.5,2.5v14.6c0,1,0.5,1.8,1.4,2.3l7.5,3.6c0.3,0.2,0.7,0.2,1.1,0.2c0.4,0,0.8-0.1,1.1-0.3
		l7.5-3.9c0.8-0.4,1.4-1.3,1.4-2.2v-14.4C160.6,185.3,159.5,184.1,158.1,184.1z M155.6,199.5l-5,2.6l-5-2.4v-10.6h10V199.5z"/>
</g>
<g>
	<path class="st1" d="M17.6,51.6V76c0,4,3.3,7.3,7.3,7.3h2.5V92L39,83.3h29.7l0,0c1.9,0,3.7-0.7,5.1-2.1c1-1.1,1.7-2.4,2-3.8
		c0,0,0-0.1,0-0.2l0-17.4h0.1v-8.1c0-4-3.3-7.3-7.3-7.3H24.7C20.7,44.4,17.4,47.7,17.6,51.6z"/>
	<path d="M12.4,51.7v24.4c0,5.9,4.2,10.8,9.8,12v6c0,1.6,0.8,2.9,2.2,3.6c1.4,0.7,3,0.5,4.2-0.4l10.9-8.1l4.2,0h25
		c6.4,0,11.6-5,12-11.2c0.1-0.6,0.2-1.2,0.2-1.9V64.8v-5v-8.1c0-6.8-5.5-12.3-12.3-12.3H24.6C17.9,39.4,12.4,44.9,12.4,51.7z
		 M17.1,51.8c0-4,3.3-7.3,7.3-7.3h43.9c4,0,7.3,3.3,7.3,7.3v8.1h-0.1v17.4c0,0,0,0.1,0,0.2c-0.3,1.5-1,2.8-2,3.8
		c-1.4,1.4-3.2,2.1-5.1,2.1H38.8l-11.6,8.7v-8.7h-2.5c-4,0-7.3-3.3-7.3-7.3h-0.2V51.8z"/>
	<path class="st1" d="M202.8,38.4h-43.9c-4,0-7.3,3.3-7.3,7.3v8.1h0.1v17.4c0,0.1,0,0.2,0,0.2c0.3,1.4,1,2.7,2,3.8
		c1.4,1.4,3.2,2.1,5.1,2.1l0,0h29.7l11.6,8.7v-8.7h2.5c4,0,7.3-3.3,7.3-7.3V45.6C210.1,41.7,206.8,38.4,202.8,38.4z"/>
	<path d="M202.9,33.4h-43.9c-6.8,0-12.3,5.5-12.3,12.3v8.1v5v11.3c0,0.7,0.1,1.3,0.2,1.9c0.4,6.2,5.6,11.2,12,11.2h25l4.2,0
		l10.9,8.1c1.2,0.9,2.8,1.1,4.2,0.4c1.4-0.7,2.2-2,2.2-3.6v-6c5.6-1.2,9.8-6.1,9.8-12V45.7C215.1,38.9,209.6,33.4,202.9,33.4z
		 M210.4,70.1h-0.2c0,4-3.3,7.3-7.3,7.3h-2.5v8.7l-11.6-8.7H159c-1.9,0-3.7-0.7-5.1-2.1c-1-1-1.7-2.3-2-3.8c0-0.1,0-0.2,0-0.2V53.9
		h-0.1v-8.1c0-4,3.3-7.3,7.3-7.3H203c4,0,7.3,3.3,7.3,7.3V70.1z"/>
</g>
</svg>
