<?xml version="1.0" encoding="utf-8"?>
<!-- Generator: Adobe Illustrator 19.2.0, SVG Export Plug-In . SVG Version: 6.00 Build 0)  -->
<svg version="1.1" id="Capa_1" xmlns="http://www.w3.org/2000/svg" xmlns:xlink="http://www.w3.org/1999/xlink" x="0px" y="0px"
	 viewBox="0 0 243 243" style="enable-background:new 0 0 243 243;" xml:space="preserve">
<style type="text/css">
	.st0{fill:#E89049;}
	.st1{fill:#FFFFFF;}
</style>
<circle class="st0" cx="121.5" cy="121.5" r="121.5"/>
<g>
	<path d="M173.4,54.9h-32c-0.9,0-1.7-0.4-2.3-1c-0.6-0.7-0.8-1.5-0.7-2.4c0.1-0.8,0.2-1.6,0.2-2.4c0-9.5-7.7-17.2-17.2-17.2
		s-17.2,7.7-17.2,17.2c0,0.8,0.1,1.6,0.2,2.4c0.1,0.9-0.1,1.7-0.7,2.4c-0.6,0.7-1.4,1-2.3,1h-32c-7.9,0-14.3,6.4-14.3,14.3v127.1
		c0,7.9,6.4,14.3,14.3,14.3h104c7.9,0,14.3-6.4,14.3-14.3V69.2C187.7,61.3,181.3,54.9,173.4,54.9z M182.2,196.3
		c0,4.8-3.9,8.8-8.8,8.8h-104c-4.8,0-8.8-3.9-8.8-8.8V69.2c0-4.8,3.9-8.8,8.8-8.8h17.3c1.7,0,3,1.3,3,3v7.2c0,0.7,0.6,1.3,1.3,1.3
		h60.7c0.7,0,1.3-0.6,1.3-1.3v-7.2c0-1.7,1.3-3,3-3h17.3c4.8,0,8.8,3.9,8.8,8.8v127.1H182.2z"/>
	<path class="st1" d="M173.3,60.4H156c-1.7,0-3,1.3-3,3v7.2c0,0.7-0.6,1.3-1.3,1.3H91c-0.7,0-1.3-0.6-1.3-1.3v-7.2c0-1.7-1.3-3-3-3
		H69.4c-4.8,0-8.8,3.9-8.8,8.8v127.1c0,4.8,3.9,8.8,8.8,8.8h104c4.8,0,8.8-3.9,8.8-8.8V69.2C182.1,64.4,178.1,60.4,173.3,60.4z"/>
	<circle class="st1" cx="121.4" cy="49" r="6.6"/>
	<path d="M153.3,152v4.8c0,1.3-1.1,2.4-2.4,2.4H92c-1.3,0-2.4-1.1-2.4-2.4V152c0-1.3,1.1-2.4,2.4-2.4h58.9
		C152.2,149.6,153.3,150.7,153.3,152z"/>
	<path d="M153.3,132v4.8c0,1.3-1.1,2.4-2.4,2.4H92c-1.3,0-2.4-1.1-2.4-2.4V132c0-1.3,1.1-2.4,2.4-2.4h58.9
		C152.2,129.6,153.3,130.7,153.3,132z"/>
	<path d="M123.3,112v4.8c0,1.3-1.1,2.4-2.4,2.4H92c-1.3,0-2.4-1.1-2.4-2.4V112c0-1.3,1.1-2.4,2.4-2.4h28.9
		C122.2,109.6,123.3,110.7,123.3,112z"/>
</g>
</svg>
