<?xml version="1.0" encoding="utf-8"?>
<!-- Generator: Adobe Illustrator 19.2.0, SVG Export Plug-In . SVG Version: 6.00 Build 0)  -->
<svg version="1.1" id="Capa_1" xmlns="http://www.w3.org/2000/svg" xmlns:xlink="http://www.w3.org/1999/xlink" x="0px" y="0px"
	 viewBox="0 0 243 243" style="enable-background:new 0 0 243 243;" xml:space="preserve">
<style type="text/css">
	.st0{fill:#E89049;}
	.st1{fill:#FFFFFF;}
</style>
<circle class="st0" cx="121.5" cy="121.5" r="121.5"/>
<g>
	<path class="st1" d="M18.7,80.9v128.7c0,1.7,1.4,3.2,3.2,3.2h199.2c1.7,0,3.2-1.4,3.2-3.2V80.9H18.7z M44.8,197.6
		c-0.5,0.5-1.1,0.7-1.7,0.7c-0.7,0-1.3-0.3-1.8-0.8L30.1,186c-1-1-0.9-2.6,0.1-3.5c1-1,2.6-0.9,3.5,0.1l11.2,11.6
		C45.8,195.1,45.8,196.7,44.8,197.6z M44.9,164.1c1,1,0.9,2.6-0.1,3.5c-0.5,0.5-1.1,0.7-1.7,0.7c-0.7,0-1.3-0.3-1.8-0.8l-3.8-3.9
		l-3.8,3.9c-0.5,0.5-1.1,0.8-1.8,0.8c-0.6,0-1.2-0.2-1.7-0.7c-1-1-1-2.5-0.1-3.5L34,160l-3.9-4.1c-1-1-0.9-2.6,0.1-3.5
		c1-1,2.6-0.9,3.5,0.1l3.8,3.9l3.8-3.9c1-1,2.5-1,3.5-0.1c1,1,1,2.5,0.1,3.5L41,160L44.9,164.1z M44.9,134.1c1,1,0.9,2.6-0.1,3.5
		c-0.5,0.5-1.1,0.7-1.7,0.7c-0.7,0-1.3-0.3-1.8-0.8l-3.8-3.9l-3.8,3.9c-0.5,0.5-1.1,0.8-1.8,0.8c-0.6,0-1.2-0.2-1.7-0.7
		c-1-1-1-2.5-0.1-3.5L34,130l-3.9-4.1c-1-1-0.9-2.6,0.1-3.5c1-1,2.6-0.9,3.5,0.1l3.8,3.9l3.8-3.9c1-1,2.5-1,3.5-0.1
		c1,1,1,2.5,0.1,3.5L41,130L44.9,134.1z M44.9,104.1c1,1,0.9,2.6-0.1,3.5c-0.5,0.5-1.1,0.7-1.7,0.7c-0.7,0-1.3-0.3-1.8-0.8l-3.8-3.9
		l-3.8,3.9c-0.5,0.5-1.1,0.8-1.8,0.8c-0.6,0-1.2-0.2-1.7-0.7c-1-1-1-2.5-0.1-3.5L34,100l-3.9-4.1c-1-1-0.9-2.6,0.1-3.5
		c1-1,2.6-0.9,3.5,0.1l3.8,3.9l3.8-3.9c1-1,2.5-1,3.5-0.1c1,1,1,2.5,0.1,3.5L41,100L44.9,104.1z M72.8,197.6
		c-0.5,0.5-1.1,0.7-1.7,0.7c-0.7,0-1.3-0.3-1.8-0.8L58.1,186c-1-1-0.9-2.6,0.1-3.5c1-1,2.6-0.9,3.5,0.1l11.2,11.6
		C73.8,195.1,73.8,196.7,72.8,197.6z M72.9,164.1c1,1,0.9,2.6-0.1,3.5c-0.5,0.5-1.1,0.7-1.7,0.7c-0.7,0-1.3-0.3-1.8-0.8l-3.8-3.9
		l-3.8,3.9c-0.5,0.5-1.1,0.8-1.8,0.8c-0.6,0-1.2-0.2-1.7-0.7c-1-1-1-2.5-0.1-3.5L62,160l-3.9-4.1c-1-1-0.9-2.6,0.1-3.5
		c1-1,2.6-0.9,3.5,0.1l3.8,3.9l3.8-3.9c1-1,2.5-1,3.5-0.1c1,1,1,2.5,0.1,3.5L69,160L72.9,164.1z M72.9,134.1c1,1,0.9,2.6-0.1,3.5
		c-0.5,0.5-1.1,0.7-1.7,0.7c-0.7,0-1.3-0.3-1.8-0.8l-3.8-3.9l-3.8,3.9c-0.5,0.5-1.1,0.8-1.8,0.8c-0.6,0-1.2-0.2-1.7-0.7
		c-1-1-1-2.5-0.1-3.5L62,130l-3.9-4.1c-1-1-0.9-2.6,0.1-3.5c1-1,2.6-0.9,3.5,0.1l3.8,3.9l3.8-3.9c1-1,2.5-1,3.5-0.1
		c1,1,1,2.5,0.1,3.5L69,130L72.9,134.1z M72.9,104.1c1,1,0.9,2.6-0.1,3.5c-0.5,0.5-1.1,0.7-1.7,0.7c-0.7,0-1.3-0.3-1.8-0.8l-3.8-3.9
		l-3.8,3.9c-0.5,0.5-1.1,0.8-1.8,0.8c-0.6,0-1.2-0.2-1.7-0.7c-1-1-1-2.5-0.1-3.5L62,100l-3.9-4.1c-1-1-0.9-2.6,0.1-3.5
		c1-1,2.6-0.9,3.5,0.1l3.8,3.9l3.8-3.9c1-1,2.5-1,3.5-0.1c1,1,1,2.5,0.1,3.5L69,100L72.9,104.1z M100.8,197.6
		c-0.5,0.5-1.1,0.7-1.7,0.7c-0.7,0-1.3-0.3-1.8-0.8L86.1,186c-1-1-0.9-2.6,0.1-3.5c1-1,2.6-0.9,3.5,0.1l11.2,11.6
		C101.8,195.1,101.8,196.7,100.8,197.6z M100.9,164.1c1,1,0.9,2.6-0.1,3.5c-0.5,0.5-1.1,0.7-1.7,0.7c-0.7,0-1.3-0.3-1.8-0.8
		l-3.8-3.9l-3.8,3.9c-0.5,0.5-1.1,0.8-1.8,0.8c-0.6,0-1.2-0.2-1.7-0.7c-1-1-1-2.5-0.1-3.5L90,160l-3.9-4.1c-1-1-0.9-2.6,0.1-3.5
		c1-1,2.6-0.9,3.5,0.1l3.8,3.9l3.8-3.9c1-1,2.5-1,3.5-0.1c1,1,1,2.5,0.1,3.5L97,160L100.9,164.1z M100.9,134.1c1,1,0.9,2.6-0.1,3.5
		c-0.5,0.5-1.1,0.7-1.7,0.7c-0.7,0-1.3-0.3-1.8-0.8l-3.8-3.9l-3.8,3.9c-0.5,0.5-1.1,0.8-1.8,0.8c-0.6,0-1.2-0.2-1.7-0.7
		c-1-1-1-2.5-0.1-3.5L90,130l-3.9-4.1c-1-1-0.9-2.6,0.1-3.5c1-1,2.6-0.9,3.5,0.1l3.8,3.9l3.8-3.9c1-1,2.5-1,3.5-0.1
		c1,1,1,2.5,0.1,3.5L97,130L100.9,134.1z M100.9,104.1c1,1,0.9,2.6-0.1,3.5c-0.5,0.5-1.1,0.7-1.7,0.7c-0.7,0-1.3-0.3-1.8-0.8
		l-3.8-3.9l-3.8,3.9c-0.5,0.5-1.1,0.8-1.8,0.8c-0.6,0-1.2-0.2-1.7-0.7c-1-1-1-2.5-0.1-3.5L90,100l-3.9-4.1c-1-1-0.9-2.6,0.1-3.5
		c1-1,2.6-0.9,3.5,0.1l3.8,3.9l3.8-3.9c1-1,2.5-1,3.5-0.1c1,1,1,2.5,0.1,3.5L97,100L100.9,104.1z M128.8,197.6
		c-0.5,0.5-1.1,0.7-1.7,0.7c-0.7,0-1.3-0.3-1.8-0.8L114.1,186c-1-1-0.9-2.6,0.1-3.5c1-1,2.6-0.9,3.5,0.1l11.2,11.6
		C129.8,195.1,129.8,196.7,128.8,197.6z M128.8,167.6c-0.5,0.5-1.1,0.7-1.7,0.7c-0.7,0-1.3-0.3-1.8-0.8L114.1,156
		c-1-1-0.9-2.6,0.1-3.5c1-1,2.6-0.9,3.5,0.1l11.2,11.6C129.8,165.1,129.8,166.7,128.8,167.6z M128.9,134.1c1,1,0.9,2.6-0.1,3.5
		c-0.5,0.5-1.1,0.7-1.7,0.7c-0.7,0-1.3-0.3-1.8-0.8l-3.8-3.9l-3.8,3.9c-0.5,0.5-1.1,0.8-1.8,0.8c-0.6,0-1.2-0.2-1.7-0.7
		c-1-1-1-2.5-0.1-3.5l3.9-4.1l-3.9-4.1c-1-1-0.9-2.6,0.1-3.5c1-1,2.6-0.9,3.5,0.1l3.8,3.9l3.8-3.9c1-1,2.5-1,3.5-0.1
		c1,1,1,2.5,0.1,3.5L125,130L128.9,134.1z M128.9,104.1c1,1,0.9,2.6-0.1,3.5c-0.5,0.5-1.1,0.7-1.7,0.7c-0.7,0-1.3-0.3-1.8-0.8
		l-3.8-3.9l-3.8,3.9c-0.5,0.5-1.1,0.8-1.8,0.8c-0.6,0-1.2-0.2-1.7-0.7c-1-1-1-2.5-0.1-3.5l3.9-4.1l-3.9-4.1c-1-1-0.9-2.6,0.1-3.5
		c1-1,2.6-0.9,3.5,0.1l3.8,3.9l3.8-3.9c1-1,2.5-1,3.5-0.1c1,1,1,2.5,0.1,3.5L125,100L128.9,104.1z M156.8,197.6
		c-0.5,0.5-1.1,0.7-1.7,0.7c-0.7,0-1.3-0.3-1.8-0.8L142.1,186c-1-1-0.9-2.6,0.1-3.5c1-1,2.6-0.9,3.5,0.1l11.2,11.6
		C157.8,195.1,157.8,196.7,156.8,197.6z M156.8,167.6c-0.5,0.5-1.1,0.7-1.7,0.7c-0.7,0-1.3-0.3-1.8-0.8L142.1,156
		c-1-1-0.9-2.6,0.1-3.5c1-1,2.6-0.9,3.5,0.1l11.2,11.6C157.8,165.1,157.8,166.7,156.8,167.6z M156.9,134.1c1,1,0.9,2.6-0.1,3.5
		c-0.5,0.5-1.1,0.7-1.7,0.7c-0.7,0-1.3-0.3-1.8-0.8l-3.8-3.9l-3.8,3.9c-0.5,0.5-1.1,0.8-1.8,0.8c-0.6,0-1.2-0.2-1.7-0.7
		c-1-1-1-2.5-0.1-3.5l3.9-4.1l-3.9-4.1c-1-1-0.9-2.6,0.1-3.5c1-1,2.6-0.9,3.5,0.1l3.8,3.9l3.8-3.9c1-1,2.5-1,3.5-0.1
		c1,1,1,2.5,0.1,3.5L153,130L156.9,134.1z M156.9,104.1c1,1,0.9,2.6-0.1,3.5c-0.5,0.5-1.1,0.7-1.7,0.7c-0.7,0-1.3-0.3-1.8-0.8
		l-3.8-3.9l-3.8,3.9c-0.5,0.5-1.1,0.8-1.8,0.8c-0.6,0-1.2-0.2-1.7-0.7c-1-1-1-2.5-0.1-3.5l3.9-4.1l-3.9-4.1c-1-1-0.9-2.6,0.1-3.5
		c1-1,2.6-0.9,3.5,0.1l3.8,3.9l3.8-3.9c1-1,2.5-1,3.5-0.1c1,1,1,2.5,0.1,3.5L153,100L156.9,104.1z M184.8,197.6
		c-0.5,0.5-1.1,0.7-1.7,0.7c-0.7,0-1.3-0.3-1.8-0.8L170.1,186c-1-1-0.9-2.6,0.1-3.5c1-1,2.6-0.9,3.5,0.1l11.2,11.6
		C185.8,195.1,185.8,196.7,184.8,197.6z M184.8,167.6c-0.5,0.5-1.1,0.7-1.7,0.7c-0.7,0-1.3-0.3-1.8-0.8L170.1,156
		c-1-1-0.9-2.6,0.1-3.5c1-1,2.6-0.9,3.5,0.1l11.2,11.6C185.8,165.1,185.8,166.7,184.8,167.6z M184.9,134.1c1,1,0.9,2.6-0.1,3.5
		c-0.5,0.5-1.1,0.7-1.7,0.7c-0.7,0-1.3-0.3-1.8-0.8l-3.8-3.9l-3.8,3.9c-0.5,0.5-1.1,0.8-1.8,0.8c-0.6,0-1.2-0.2-1.7-0.7
		c-1-1-1-2.5-0.1-3.5l3.9-4.1l-3.9-4.1c-1-1-0.9-2.6,0.1-3.5c1-1,2.6-0.9,3.5,0.1l3.8,3.9l3.8-3.9c1-1,2.5-1,3.5-0.1
		c1,1,1,2.5,0.1,3.5L181,130L184.9,134.1z M184.9,104.1c1,1,0.9,2.6-0.1,3.5c-0.5,0.5-1.1,0.7-1.7,0.7c-0.7,0-1.3-0.3-1.8-0.8
		l-3.8-3.9l-3.8,3.9c-0.5,0.5-1.1,0.8-1.8,0.8c-0.6,0-1.2-0.2-1.7-0.7c-1-1-1-2.5-0.1-3.5l3.9-4.1l-3.9-4.1c-1-1-0.9-2.6,0.1-3.5
		c1-1,2.6-0.9,3.5,0.1l3.8,3.9l3.8-3.9c1-1,2.5-1,3.5-0.1c1,1,1,2.5,0.1,3.5L181,100L184.9,104.1z M212.8,197.6
		c-0.5,0.5-1.1,0.7-1.7,0.7c-0.7,0-1.3-0.3-1.8-0.8L198.1,186c-1-1-0.9-2.6,0.1-3.5c1-1,2.6-0.9,3.5,0.1l11.2,11.6
		C213.8,195.1,213.8,196.7,212.8,197.6z M212.8,167.6c-0.5,0.5-1.1,0.7-1.7,0.7c-0.7,0-1.3-0.3-1.8-0.8L198.1,156
		c-1-1-0.9-2.6,0.1-3.5c1-1,2.6-0.9,3.5,0.1l11.2,11.6C213.8,165.1,213.8,166.7,212.8,167.6z M212.9,134.1c1,1,0.9,2.6-0.1,3.5
		c-0.5,0.5-1.1,0.7-1.7,0.7c-0.7,0-1.3-0.3-1.8-0.8l-3.8-3.9l-3.8,3.9c-0.5,0.5-1.1,0.8-1.8,0.8c-0.6,0-1.2-0.2-1.7-0.7
		c-1-1-1-2.5-0.1-3.5l3.9-4.1l-3.9-4.1c-1-1-0.9-2.6,0.1-3.5c1-1,2.6-0.9,3.5,0.1l3.8,3.9l3.8-3.9c1-1,2.5-1,3.5-0.1
		c1,1,1,2.5,0.1,3.5L209,130L212.9,134.1z M212.9,104.1c1,1,0.9,2.6-0.1,3.5c-0.5,0.5-1.1,0.7-1.7,0.7c-0.7,0-1.3-0.3-1.8-0.8
		l-3.8-3.9l-3.8,3.9c-0.5,0.5-1.1,0.8-1.8,0.8c-0.6,0-1.2-0.2-1.7-0.7c-1-1-1-2.5-0.1-3.5l3.9-4.1l-3.9-4.1c-1-1-0.9-2.6,0.1-3.5
		c1-1,2.6-0.9,3.5,0.1l3.8,3.9l3.8-3.9c1-1,2.5-1,3.5-0.1c1,1,1,2.5,0.1,3.5L209,100L212.9,104.1z"/>
	<path class="st1" d="M224.3,52.4c0-1.7-1.4-3.2-3.2-3.2h-14.6v9.4c0,1.4-1.1,2.5-2.5,2.5s-2.5-1.1-2.5-2.5v-9.4h-15v9.4
		c0,1.4-1.1,2.5-2.5,2.5s-2.5-1.1-2.5-2.5v-9.4h-15v9.4c0,1.4-1.1,2.5-2.5,2.5s-2.5-1.1-2.5-2.5v-9.4H80.9v9.4
		c0,1.4-1.1,2.5-2.5,2.5s-2.5-1.1-2.5-2.5v-9.4h-15v9.4c0,1.4-1.1,2.5-2.5,2.5s-2.5-1.1-2.5-2.5v-9.4h-15v9.4c0,1.4-1.1,2.5-2.5,2.5
		s-2.5-1.1-2.5-2.5v-9.4H21.8c-1.7,0-3.2,1.4-3.2,3.2v23.5h205.6V52.4C224.2,52.4,224.3,52.4,224.3,52.4z"/>
	<path d="M221.1,44.2h-14.6V27.7c0-1.4-1.1-2.5-2.5-2.5s-2.5,1.1-2.5,2.5v16.5h-15V27.7c0-1.4-1.1-2.5-2.5-2.5s-2.5,1.1-2.5,2.5
		v16.5h-15V27.7c0-1.4-1.1-2.5-2.5-2.5s-2.5,1.1-2.5,2.5v16.5H80.9V27.7c0-1.4-1.1-2.5-2.5-2.5s-2.5,1.1-2.5,2.5v16.5h-15V27.7
		c0-1.4-1.1-2.5-2.5-2.5s-2.5,1.1-2.5,2.5v16.5h-15V27.7c0-1.4-1.1-2.5-2.5-2.5s-2.5,1.1-2.5,2.5v16.5H21.8c-4.5,0-8.2,3.7-8.2,8.2
		v28.5v128.7c0,4.5,3.7,8.2,8.2,8.2h199.3c4.5,0,8.2-3.7,8.2-8.2V80.9V52.4C229.3,47.9,225.6,44.2,221.1,44.2z M221.1,212.8H21.8
		c-1.7,0-3.2-1.4-3.2-3.2V80.9h205.6v128.7C224.3,211.4,222.9,212.8,221.1,212.8z M18.7,52.4c0-1.7,1.4-3.2,3.2-3.2H36v9.4
		c0,1.4,1.1,2.5,2.5,2.5S41,60,41,58.6v-9.4h15v9.4c0,1.4,1.1,2.5,2.5,2.5S61,60,61,58.6v-9.4h15v9.4c0,1.4,1.1,2.5,2.5,2.5
		S81,60,81,58.6v-9.4h80.6v9.4c0,1.4,1.1,2.5,2.5,2.5s2.5-1.1,2.5-2.5v-9.4h15v9.4c0,1.4,1.1,2.5,2.5,2.5s2.5-1.1,2.5-2.5v-9.4h15
		v9.4c0,1.4,1.1,2.5,2.5,2.5s2.5-1.1,2.5-2.5v-9.4h14.5c1.7,0,3.2,1.4,3.2,3.2v23.5H18.7V52.4z"/>
	<path d="M44.8,92.5c-1-1-2.6-0.9-3.5,0.1l-3.8,3.9l-3.8-3.9c-1-1-2.5-1-3.5-0.1c-1,1-1,2.5-0.1,3.5l3.9,4.1l-3.9,4.1
		c-1,1-0.9,2.6,0.1,3.5c0.5,0.5,1.1,0.7,1.7,0.7c0.7,0,1.3-0.3,1.8-0.8l3.8-3.9l3.8,3.9c0.5,0.5,1.1,0.8,1.8,0.8
		c0.6,0,1.2-0.2,1.7-0.7c1-1,1-2.5,0.1-3.5l-3.9-4.1l3.9-4.1C45.8,95,45.8,93.4,44.8,92.5z"/>
	<path d="M72.8,92.5c-1-1-2.6-0.9-3.5,0.1l-3.8,3.9l-3.8-3.9c-1-1-2.5-1-3.5-0.1c-1,1-1,2.5-0.1,3.5l3.9,4.1l-3.9,4.1
		c-1,1-0.9,2.6,0.1,3.5c0.5,0.5,1.1,0.7,1.7,0.7c0.7,0,1.3-0.3,1.8-0.8l3.8-3.9l3.8,3.9c0.5,0.5,1.1,0.8,1.8,0.8
		c0.6,0,1.2-0.2,1.7-0.7c1-1,1-2.5,0.1-3.5l-3.9-4.1l3.9-4.1C73.8,95,73.8,93.4,72.8,92.5z"/>
	<path d="M100.8,92.5c-1-1-2.6-0.9-3.5,0.1l-3.8,3.9l-3.8-3.9c-1-1-2.5-1-3.5-0.1c-1,1-1,2.5-0.1,3.5l3.9,4.1l-3.9,4.1
		c-1,1-0.9,2.6,0.1,3.5c0.5,0.5,1.1,0.7,1.7,0.7c0.7,0,1.3-0.3,1.8-0.8l3.8-3.9l3.8,3.9c0.5,0.5,1.1,0.8,1.8,0.8
		c0.6,0,1.2-0.2,1.7-0.7c1-1,1-2.5,0.1-3.5l-3.9-4.1l3.9-4.1C101.8,95,101.8,93.4,100.8,92.5z"/>
	<path d="M128.8,92.5c-1-1-2.6-0.9-3.5,0.1l-3.8,3.9l-3.8-3.9c-1-1-2.5-1-3.5-0.1c-1,1-1,2.5-0.1,3.5l3.9,4.1l-3.9,4.1
		c-1,1-0.9,2.6,0.1,3.5c0.5,0.5,1.1,0.7,1.7,0.7c0.7,0,1.3-0.3,1.8-0.8l3.8-3.9l3.8,3.9c0.5,0.5,1.1,0.8,1.8,0.8
		c0.6,0,1.2-0.2,1.7-0.7c1-1,1-2.5,0.1-3.5l-3.9-4.1l3.9-4.1C129.8,95,129.8,93.4,128.8,92.5z"/>
	<path d="M156.8,92.5c-1-1-2.6-0.9-3.5,0.1l-3.8,3.9l-3.8-3.9c-1-1-2.5-1-3.5-0.1c-1,1-1,2.5-0.1,3.5l3.9,4.1l-3.9,4.1
		c-1,1-0.9,2.6,0.1,3.5c0.5,0.5,1.1,0.7,1.7,0.7c0.7,0,1.3-0.3,1.8-0.8l3.8-3.9l3.8,3.9c0.5,0.5,1.1,0.8,1.8,0.8
		c0.6,0,1.2-0.2,1.7-0.7c1-1,1-2.5,0.1-3.5l-3.9-4.1l3.9-4.1C157.8,95,157.8,93.4,156.8,92.5z"/>
	<path d="M184.8,92.5c-1-1-2.6-0.9-3.5,0.1l-3.8,3.9l-3.8-3.9c-1-1-2.5-1-3.5-0.1c-1,1-1,2.5-0.1,3.5l3.9,4.1l-3.9,4.1
		c-1,1-0.9,2.6,0.1,3.5c0.5,0.5,1.1,0.7,1.7,0.7c0.7,0,1.3-0.3,1.8-0.8l3.8-3.9l3.8,3.9c0.5,0.5,1.1,0.8,1.8,0.8
		c0.6,0,1.2-0.2,1.7-0.7c1-1,1-2.5,0.1-3.5l-3.9-4.1l3.9-4.1C185.8,95,185.8,93.4,184.8,92.5z"/>
	<path d="M212.8,92.5c-1-1-2.6-0.9-3.5,0.1l-3.8,3.9l-3.8-3.9c-1-1-2.5-1-3.5-0.1c-1,1-1,2.5-0.1,3.5l3.9,4.1l-3.9,4.1
		c-1,1-0.9,2.6,0.1,3.5c0.5,0.5,1.1,0.7,1.7,0.7c0.7,0,1.3-0.3,1.8-0.8l3.8-3.9l3.8,3.9c0.5,0.5,1.1,0.8,1.8,0.8
		c0.6,0,1.2-0.2,1.7-0.7c1-1,1-2.5,0.1-3.5l-3.9-4.1l3.9-4.1C213.8,95,213.8,93.4,212.8,92.5z"/>
	<path d="M44.8,122.5c-1-1-2.6-0.9-3.5,0.1l-3.8,3.9l-3.8-3.9c-1-1-2.5-1-3.5-0.1c-1,1-1,2.5-0.1,3.5l3.9,4.1l-3.9,4.1
		c-1,1-0.9,2.6,0.1,3.5c0.5,0.5,1.1,0.7,1.7,0.7c0.7,0,1.3-0.3,1.8-0.8l3.8-3.9l3.8,3.9c0.5,0.5,1.1,0.8,1.8,0.8
		c0.6,0,1.2-0.2,1.7-0.7c1-1,1-2.5,0.1-3.5l-3.9-4.1l3.9-4.1C45.8,125,45.8,123.4,44.8,122.5z"/>
	<path d="M72.8,122.5c-1-1-2.6-0.9-3.5,0.1l-3.8,3.9l-3.8-3.9c-1-1-2.5-1-3.5-0.1c-1,1-1,2.5-0.1,3.5l3.9,4.1l-3.9,4.1
		c-1,1-0.9,2.6,0.1,3.5c0.5,0.5,1.1,0.7,1.7,0.7c0.7,0,1.3-0.3,1.8-0.8l3.8-3.9l3.8,3.9c0.5,0.5,1.1,0.8,1.8,0.8
		c0.6,0,1.2-0.2,1.7-0.7c1-1,1-2.5,0.1-3.5l-3.9-4.1l3.9-4.1C73.8,125,73.8,123.4,72.8,122.5z"/>
	<path d="M100.8,122.5c-1-1-2.6-0.9-3.5,0.1l-3.8,3.9l-3.8-3.9c-1-1-2.5-1-3.5-0.1c-1,1-1,2.5-0.1,3.5l3.9,4.1l-3.9,4.1
		c-1,1-0.9,2.6,0.1,3.5c0.5,0.5,1.1,0.7,1.7,0.7c0.7,0,1.3-0.3,1.8-0.8l3.8-3.9l3.8,3.9c0.5,0.5,1.1,0.8,1.8,0.8
		c0.6,0,1.2-0.2,1.7-0.7c1-1,1-2.5,0.1-3.5l-3.9-4.1l3.9-4.1C101.8,125,101.8,123.4,100.8,122.5z"/>
	<path d="M128.8,122.5c-1-1-2.6-0.9-3.5,0.1l-3.8,3.9l-3.8-3.9c-1-1-2.5-1-3.5-0.1c-1,1-1,2.5-0.1,3.5l3.9,4.1l-3.9,4.1
		c-1,1-0.9,2.6,0.1,3.5c0.5,0.5,1.1,0.7,1.7,0.7c0.7,0,1.3-0.3,1.8-0.8l3.8-3.9l3.8,3.9c0.5,0.5,1.1,0.8,1.8,0.8
		c0.6,0,1.2-0.2,1.7-0.7c1-1,1-2.5,0.1-3.5l-3.9-4.1l3.9-4.1C129.8,125,129.8,123.4,128.8,122.5z"/>
	<path d="M156.8,122.5c-1-1-2.6-0.9-3.5,0.1l-3.8,3.9l-3.8-3.9c-1-1-2.5-1-3.5-0.1c-1,1-1,2.5-0.1,3.5l3.9,4.1l-3.9,4.1
		c-1,1-0.9,2.6,0.1,3.5c0.5,0.5,1.1,0.7,1.7,0.7c0.7,0,1.3-0.3,1.8-0.8l3.8-3.9l3.8,3.9c0.5,0.5,1.1,0.8,1.8,0.8
		c0.6,0,1.2-0.2,1.7-0.7c1-1,1-2.5,0.1-3.5l-3.9-4.1l3.9-4.1C157.8,125,157.8,123.4,156.8,122.5z"/>
	<path d="M184.8,122.5c-1-1-2.6-0.9-3.5,0.1l-3.8,3.9l-3.8-3.9c-1-1-2.5-1-3.5-0.1c-1,1-1,2.5-0.1,3.5l3.9,4.1l-3.9,4.1
		c-1,1-0.9,2.6,0.1,3.5c0.5,0.5,1.1,0.7,1.7,0.7c0.7,0,1.3-0.3,1.8-0.8l3.8-3.9l3.8,3.9c0.5,0.5,1.1,0.8,1.8,0.8
		c0.6,0,1.2-0.2,1.7-0.7c1-1,1-2.5,0.1-3.5l-3.9-4.1l3.9-4.1C185.8,125,185.8,123.4,184.8,122.5z"/>
	<path d="M212.8,122.5c-1-1-2.6-0.9-3.5,0.1l-3.8,3.9l-3.8-3.9c-1-1-2.5-1-3.5-0.1c-1,1-1,2.5-0.1,3.5l3.9,4.1l-3.9,4.1
		c-1,1-0.9,2.6,0.1,3.5c0.5,0.5,1.1,0.7,1.7,0.7c0.7,0,1.3-0.3,1.8-0.8l3.8-3.9l3.8,3.9c0.5,0.5,1.1,0.8,1.8,0.8
		c0.6,0,1.2-0.2,1.7-0.7c1-1,1-2.5,0.1-3.5l-3.9-4.1l3.9-4.1C213.8,125,213.8,123.4,212.8,122.5z"/>
	<path d="M44.8,152.5c-1-1-2.6-0.9-3.5,0.1l-3.8,3.9l-3.8-3.9c-1-1-2.5-1-3.5-0.1c-1,1-1,2.5-0.1,3.5l3.9,4.1l-3.9,4.1
		c-1,1-0.9,2.6,0.1,3.5c0.5,0.5,1.1,0.7,1.7,0.7c0.7,0,1.3-0.3,1.8-0.8l3.8-3.9l3.8,3.9c0.5,0.5,1.1,0.8,1.8,0.8
		c0.6,0,1.2-0.2,1.7-0.7c1-1,1-2.5,0.1-3.5l-3.9-4.1l3.9-4.1C45.8,155,45.8,153.4,44.8,152.5z"/>
	<path d="M72.8,152.5c-1-1-2.6-0.9-3.5,0.1l-3.8,3.9l-3.8-3.9c-1-1-2.5-1-3.5-0.1c-1,1-1,2.5-0.1,3.5l3.9,4.1l-3.9,4.1
		c-1,1-0.9,2.6,0.1,3.5c0.5,0.5,1.1,0.7,1.7,0.7c0.7,0,1.3-0.3,1.8-0.8l3.8-3.9l3.8,3.9c0.5,0.5,1.1,0.8,1.8,0.8
		c0.6,0,1.2-0.2,1.7-0.7c1-1,1-2.5,0.1-3.5l-3.9-4.1l3.9-4.1C73.8,155,73.8,153.4,72.8,152.5z"/>
	<path d="M100.8,152.5c-1-1-2.6-0.9-3.5,0.1l-3.8,3.9l-3.8-3.9c-1-1-2.5-1-3.5-0.1c-1,1-1,2.5-0.1,3.5l3.9,4.1l-3.9,4.1
		c-1,1-0.9,2.6,0.1,3.5c0.5,0.5,1.1,0.7,1.7,0.7c0.7,0,1.3-0.3,1.8-0.8l3.8-3.9l3.8,3.9c0.5,0.5,1.1,0.8,1.8,0.8
		c0.6,0,1.2-0.2,1.7-0.7c1-1,1-2.5,0.1-3.5l-3.9-4.1l3.9-4.1C101.8,155,101.8,153.4,100.8,152.5z"/>
	<path d="M117.7,152.5c-1-1-2.5-1-3.5-0.1c-1,1-1,2.5-0.1,3.5l11.2,11.6c0.5,0.5,1.1,0.8,1.8,0.8c0.6,0,1.2-0.2,1.7-0.7
		c1-1,1-2.5,0.1-3.5L117.7,152.5z"/>
	<path d="M145.7,152.5c-1-1-2.5-1-3.5-0.1c-1,1-1,2.5-0.1,3.5l11.2,11.6c0.5,0.5,1.1,0.8,1.8,0.8c0.6,0,1.2-0.2,1.7-0.7
		c1-1,1-2.5,0.1-3.5L145.7,152.5z"/>
	<path d="M173.7,152.5c-1-1-2.5-1-3.5-0.1c-1,1-1,2.5-0.1,3.5l11.2,11.6c0.5,0.5,1.1,0.8,1.8,0.8c0.6,0,1.2-0.2,1.7-0.7
		c1-1,1-2.5,0.1-3.5L173.7,152.5z"/>
	<path d="M201.7,152.5c-1-1-2.5-1-3.5-0.1c-1,1-1,2.5-0.1,3.5l11.2,11.6c0.5,0.5,1.1,0.8,1.8,0.8c0.6,0,1.2-0.2,1.7-0.7
		c1-1,1-2.5,0.1-3.5L201.7,152.5z"/>
	<path d="M117.7,182.5c-1-1-2.5-1-3.5-0.1c-1,1-1,2.5-0.1,3.5l11.2,11.6c0.5,0.5,1.1,0.8,1.8,0.8c0.6,0,1.2-0.2,1.7-0.7
		c1-1,1-2.5,0.1-3.5L117.7,182.5z"/>
	<path d="M145.7,182.5c-1-1-2.5-1-3.5-0.1c-1,1-1,2.5-0.1,3.5l11.2,11.6c0.5,0.5,1.1,0.8,1.8,0.8c0.6,0,1.2-0.2,1.7-0.7
		c1-1,1-2.5,0.1-3.5L145.7,182.5z"/>
	<path d="M173.7,182.5c-1-1-2.5-1-3.5-0.1c-1,1-1,2.5-0.1,3.5l11.2,11.6c0.5,0.5,1.1,0.8,1.8,0.8c0.6,0,1.2-0.2,1.7-0.7
		c1-1,1-2.5,0.1-3.5L173.7,182.5z"/>
	<path d="M201.7,182.5c-1-1-2.5-1-3.5-0.1c-1,1-1,2.5-0.1,3.5l11.2,11.6c0.5,0.5,1.1,0.8,1.8,0.8c0.6,0,1.2-0.2,1.7-0.7
		c1-1,1-2.5,0.1-3.5L201.7,182.5z"/>
	<path d="M33.7,182.5c-1-1-2.5-1-3.5-0.1c-1,1-1,2.5-0.1,3.5l11.2,11.6c0.5,0.5,1.1,0.8,1.8,0.8c0.6,0,1.2-0.2,1.7-0.7
		c1-1,1-2.5,0.1-3.5L33.7,182.5z"/>
	<path d="M61.7,182.5c-1-1-2.5-1-3.5-0.1c-1,1-1,2.5-0.1,3.5l11.2,11.6c0.5,0.5,1.1,0.8,1.8,0.8c0.6,0,1.2-0.2,1.7-0.7
		c1-1,1-2.5,0.1-3.5L61.7,182.5z"/>
	<path d="M89.7,182.5c-1-1-2.5-1-3.5-0.1c-1,1-1,2.5-0.1,3.5l11.2,11.6c0.5,0.5,1.1,0.8,1.8,0.8c0.6,0,1.2-0.2,1.7-0.7
		c1-1,1-2.5,0.1-3.5L89.7,182.5z"/>
</g>
</svg>
