<?xml version="1.0" encoding="utf-8"?>
<!-- Generator: Adobe Illustrator 19.2.0, SVG Export Plug-In . SVG Version: 6.00 Build 0)  -->
<svg version="1.1" id="Capa_1" xmlns="http://www.w3.org/2000/svg" xmlns:xlink="http://www.w3.org/1999/xlink" x="0px" y="0px"
	 viewBox="0 0 243 243" style="enable-background:new 0 0 243 243;" xml:space="preserve">
<style type="text/css">
	.st0{fill:#E89049;}
	.st1{fill:#FFFFFF;stroke:#000000;stroke-width:5;stroke-linecap:round;stroke-linejoin:round;stroke-miterlimit:10;}
</style>
<circle class="st0" cx="121.5" cy="121.5" r="121.5"/>
<path d="M461.5,267.2c0.9,0.1,1.3,0.2,1.7,0.2c-0.2,0.1-0.5,0.3-0.7,0.3C462.3,267.8,462.2,267.6,461.5,267.2z"/>
<g>
	<g>
		<path class="st1" d="M207.8,148.8c-3.4,33.1-35.9,59.1-75.5,59.1h-21.7c-39.6,0-72.1-26-75.5-59.1c-0.3-3.1,2.3-5.7,5.4-5.7h15.9
			c21.2,0,40.4,7.5,54.2,19.5V130c-2.9,1.3-7.7,2.3-10.8,2.3c-14.9,0-26.9-12.1-26.9-26.9c0-7.5,4.9-17.2,10.9-21.7
			c-6-4.5-10.9-14.2-10.9-21.7c0-14.9,12.1-26.9,26.9-26.9c7.5,0,17.2,4.9,21.7,10.9c4.5-6,14.2-10.9,21.7-10.9
			c14.9,0,26.9,12.1,26.9,26.9c0,7.5-4.9,17.2-10.9,21.7c6,4.5,11,14.2,11,21.7c0,14.9-12.1,26.9-26.9,26.9c-3.1,0-8-1-10.9-2.3
			v32.6c13.8-12,32.9-19.5,54.2-19.5h15.9C205.5,143.1,208.2,145.7,207.8,148.8z M137.7,83.7c0-8.9-7.3-16.2-16.2-16.2
			s-16.2,7.3-16.2,16.2c0,8.9,7.3,16.2,16.2,16.2S137.7,92.7,137.7,83.7z"/>
	</g>
	<path class="st1" d="M120.5,207.9c0,0-0.8-40.8-15.2-49.5"/>
	<path class="st1" d="M123.9,207.9c0,0-0.6-40.8,13.8-49.5"/>
	<polyline class="st1" points="110.7,130 120.5,126.4 132.3,130 	"/>
</g>
</svg>
