<?xml version="1.0" encoding="utf-8"?>
<!-- Generator: Adobe Illustrator 19.2.0, SVG Export Plug-In . SVG Version: 6.00 Build 0)  -->
<svg version="1.1" id="Capa_1" xmlns="http://www.w3.org/2000/svg" xmlns:xlink="http://www.w3.org/1999/xlink" x="0px" y="0px"
	 viewBox="0 0 259 243" style="enable-background:new 0 0 259 243;" xml:space="preserve">
<style type="text/css">
	.st0{fill:#E89049;}
	.st1{fill:#FFFFFF;stroke:#000000;stroke-width:5;}
</style>
<circle class="st0" cx="129.4" cy="121.5" r="121.5"/>
<g>
	<path class="st1" d="M231.6,95.5l-2.4,9.6c-0.5,2.1-2.4,3.6-4.6,3.6h-8c5.4,4.7,8.8,11.5,8.8,19.2v19.2c0,6.4-2.5,12.3-6.4,16.7
		v21.6c0,7.1-5.7,12.8-12.8,12.8h-12.8c-7.1,0-12.8-5.7-12.8-12.8v-12.8H78.4v12.8c0,7.1-5.7,12.8-12.8,12.8H52.8
		c-7.1,0-12.8-5.7-12.8-12.8v-21.6c-3.9-4.5-6.4-10.3-6.4-16.7v-19.2c0-7.7,3.5-14.5,8.8-19.2h-8c-2.2,0-4.1-1.5-4.6-3.6l-2.4-9.6
		c-0.8-3,1.5-6,4.6-6H56l6.6-16.6c6.8-17.1,23.1-28.1,41.5-28.1h50.7c18.4,0,34.7,11,41.5,28.1l6.6,16.6h23.9
		C230.1,89.5,232.4,92.5,231.6,95.5z M84.8,140.6c0-7.6-11.5-19.1-19.2-19.1s-12.8,5.1-12.8,12.7S57.9,147,65.6,147
		S84.8,148.3,84.8,140.6z M78.4,102.3h102.2l-8-19.9c-2.9-7.3-10-12-17.8-12h-50.7c-7.8,0-14.9,4.8-17.8,12L78.4,102.3z
		 M206.2,134.2c0-7.6-5.1-12.7-12.8-12.7s-19.2,11.5-19.2,19.1s11.5,6.4,19.2,6.4S206.2,141.9,206.2,134.2z"/>
</g>
</svg>
