<?xml version="1.0" encoding="utf-8"?>
<!-- Generator: Adobe Illustrator 19.2.0, SVG Export Plug-In . SVG Version: 6.00 Build 0)  -->
<svg version="1.1" id="Capa_1" xmlns="http://www.w3.org/2000/svg" xmlns:xlink="http://www.w3.org/1999/xlink" x="0px" y="0px"
	 viewBox="0 0 259 243" style="enable-background:new 0 0 259 243;" xml:space="preserve">
<style type="text/css">
	.st0{fill:#E89049;}
	.st1{fill:#FFFFFF;stroke:#000000;stroke-width:5;stroke-linecap:round;stroke-linejoin:round;}
	.st2{fill:none;stroke:#000000;stroke-width:5;stroke-linecap:round;stroke-linejoin:round;}
</style>
<circle class="st0" cx="129.4" cy="121.5" r="121.5"/>
<path d="M469.4,267.2c0.9,0.1,1.3,0.2,1.7,0.2c-0.2,0.1-0.5,0.3-0.7,0.3C470.2,267.8,470.1,267.6,469.4,267.2z"/>
<g>
	<path class="st1" d="M100,150.5H81V19.9c0-3.2,2.6-5.9,5.9-5.9h7.3c3.2,0,5.9,2.6,5.9,5.9V150.5z"/>
	<path class="st1" d="M100.9,150.5H80.1c-3.2,0-5.9,2.6-5.9,5.9v9.3h32.5v-9.3C106.7,153.1,104.1,150.5,100.9,150.5z"/>
	<path class="st1" d="M157,181.8H23.9v-10.3c0-3.2,2.6-5.9,5.9-5.9h121.4c3.2,0,5.9,2.6,5.9,5.9V181.8z"/>
	<polygon class="st1" points="157,181.8 23.9,181.8 13.9,211.5 167.1,211.5 	"/>
	<g>
		<line class="st1" x1="90.5" y1="181.8" x2="90.5" y2="211.5"/>
		<line class="st1" x1="107.1" y1="181.8" x2="109.6" y2="211.5"/>
		<line class="st1" x1="123.8" y1="181.8" x2="128.8" y2="211.5"/>
		<line class="st1" x1="140.4" y1="181.8" x2="147.9" y2="211.5"/>
		<line class="st1" x1="157" y1="181.8" x2="167.1" y2="211.5"/>
	</g>
	<g>
		<line class="st1" x1="90.5" y1="181.8" x2="90.5" y2="211.5"/>
		<line class="st1" x1="73.8" y1="181.8" x2="71.3" y2="211.5"/>
		<line class="st1" x1="57.2" y1="181.8" x2="52.2" y2="211.5"/>
		<line class="st1" x1="40.5" y1="181.8" x2="33" y2="211.5"/>
		<line class="st1" x1="23.9" y1="181.8" x2="13.9" y2="211.5"/>
	</g>
</g>
<g>
	<ellipse class="st2" cx="186.3" cy="127" rx="52" ry="46.8"/>
	<path class="st1" d="M214.9,219.5h-57.4c-4.7,0-8.6-3.4-9.4-8l-12.7-76.2H237l-12.7,76.2C223.6,216.1,219.6,219.5,214.9,219.5z"/>
	<path class="st1" d="M241.4,146.1H131.1c-3.1,0-5.6-2.5-5.6-5.6v-10.4c0-3.1,2.5-5.6,5.6-5.6h110.3c3.1,0,5.6,2.5,5.6,5.6v10.4
		C247,143.6,244.5,146.1,241.4,146.1z"/>
</g>
</svg>
