<?xml version="1.0" encoding="utf-8"?>
<!-- Generator: Adobe Illustrator 19.2.0, SVG Export Plug-In . SVG Version: 6.00 Build 0)  -->
<svg version="1.1" id="Capa_1" xmlns="http://www.w3.org/2000/svg" xmlns:xlink="http://www.w3.org/1999/xlink" x="0px" y="0px"
	 viewBox="0 0 259 243" style="enable-background:new 0 0 259 243;" xml:space="preserve">
<style type="text/css">
	.st0{fill:#E89049;}
	.st1{fill:#FFFFFF;}
</style>
<circle class="st0" cx="129.4" cy="121.5" r="121.5"/>
<path d="M469.4,267.2c0.9,0.1,1.3,0.2,1.7,0.2c-0.2,0.1-0.5,0.3-0.7,0.3C470.2,267.8,470.1,267.6,469.4,267.2z"/>
<g>
	<path class="st1" d="M229.5,43.5H29.8c-1.7,0-3.2,1.4-3.2,3.2v136.4c0,1.7,1.4,3.2,3.2,3.2h76.1h47.5h76.1c1.7,0,3.2-1.4,3.2-3.2
		V46.7C232.7,44.9,231.3,43.5,229.5,43.5z"/>
	<path d="M229.5,38.5H29.8c-4.5,0-8.2,3.7-8.2,8.2v136.4c0,4.5,3.7,8.2,8.2,8.2h76.1V202H75.8c-2.9,0-5.3,2.4-5.3,5.3v5.2
		c0,2.9,2.4,5.3,5.3,5.3h107.7c2.9,0,5.3-2.4,5.3-5.3v-5.2c0-2.9-2.4-5.3-5.3-5.3h-30.1v-10.7h76.1c4.5,0,8.2-3.7,8.2-8.2V46.7
		C237.7,42.2,234.1,38.5,229.5,38.5z M232.7,183.1c0,1.7-1.4,3.2-3.2,3.2h-76.1h-47.5H29.8c-1.7,0-3.2-1.4-3.2-3.2V46.7
		c0-1.7,1.4-3.2,3.2-3.2h199.7c1.7,0,3.2,1.4,3.2,3.2V183.1z M183.9,207.3v5.2c0,0.2-0.1,0.3-0.3,0.3H75.8c-0.2,0-0.3-0.2-0.3-0.3
		v-5.2c0-0.2,0.2-0.3,0.3-0.3h30.1h47.5h30.1C183.7,206.9,183.9,207.1,183.9,207.3z M148.4,201.9h-37.5v-10.7h37.5V201.9z"/>
	<path class="st1" d="M105.9,206.9H75.8c-0.2,0-0.3,0.1-0.3,0.3v5.2c0,0.2,0.2,0.3,0.3,0.3h107.7c0.2,0,0.3-0.2,0.3-0.3v-5.1
		c0-0.2-0.1-0.3-0.3-0.3h-30.1h-47.5V206.9z"/>
	<rect x="110.9" y="191.2" class="st1" width="37.5" height="10.7"/>
	<g>
		<path d="M167.8,97.3c-0.4,2.6-1.8,4.9-3.3,7.1c-21.5,29-29,36.7-38,36.5c-0.1,9.2-7.6,21.9-25.7,19.3
			c-15.9-2.3-20.7-16.1-18.6-30.6c1.6,1.4,6.9,7.2,8.9,7.5c1.2,0.2,2.3-0.3,2.8-1.4c4.7-8.4,10.8-10.5,17.4-10.3
			c-0.1-10.4,4-10.5,42.1-35.6c2-1.3,4.4-2.1,6.9-1.7C164.8,88.7,168.5,92.7,167.8,97.3z M121.5,139.7l-8.9-9.3
			c-10.7-0.3-12.9,5.1-14.4,7.7c-1.6,2.8-4.7,4.4-7.9,3.9c-1-0.2-2.1-0.6-3.2-1.3c1,6.4,4.5,13.1,14.4,14.5
			c6.2,0.9,11.2-0.2,14.8-3.3C120,148.8,121.4,144.5,121.5,139.7z M162.8,96.6c0.3-1.8-1.5-3.3-3.3-3.6c-1-0.2-2.3,0.2-3.4,0.9
			c-41.4,27.3-40,24.2-39.9,33.1l8.5,8.9c7.9,0.2,12.4-3,35.7-34.4C161.5,100,162.6,98.2,162.8,96.6z"/>
		<path class="st1" d="M121.5,139.7l-8.9-9.3c-10.7-0.3-12.9,5.1-14.4,7.7c-1.6,2.8-4.7,4.4-7.9,3.9c-1-0.2-2.1-0.6-3.2-1.3
			c1,6.4,4.5,13.1,14.4,14.5c6.2,0.9,11.2-0.2,14.8-3.3C120,148.8,121.4,144.5,121.5,139.7z"/>
	</g>
	<g>
		<path d="M223.8,116l-55.1,55.1l-17.8,2c-2.4,0.3-4.4-1.8-4.1-4.1l2-17.8l55.1-55.1c3.9-3.9,10.2-3.9,14.1,0l5.9,5.9
			C227.7,105.8,227.7,112.1,223.8,116z M169.6,163.2v-5.4h-7.5v-7.5h-5.4l-3.1,3.1l-1,9.2l4.7,4.7l9.2-1L169.6,163.2z M196,110.9
			l-35,35h5.4v7.5h7.5v5.4l35-35L196,110.9z M220.3,105.4l-5.9-5.9c-2-2-5.1-2-7.1,0l-7.8,7.8l13,13l7.8-7.8
			C222.2,110.6,222.2,107.4,220.3,105.4z"/>
		<path class="st1" d="M220.3,105.4l-5.9-5.9c-2-2-5.1-2-7.1,0l-7.8,7.8l13,13l7.8-7.8C222.2,110.6,222.2,107.4,220.3,105.4z"/>
	</g>
	<path d="M144.8,173.3h-31.9c-1.4,0-2.5,1.1-2.5,2.5s1.1,2.5,2.5,2.5h31.9c1.4,0,2.5-1.1,2.5-2.5S146.1,173.3,144.8,173.3z"/>
	<g>
		<path class="st1" d="M51,31.2c-3,0.1-6.1,0.5-9.1,1.2c-17.5,4.2-31.2,18.9-34,36.7C5.5,84.2,10.5,99,21.6,109.7
			c9.9,9.5,23.2,14.3,34.1,12.1c3.4-0.7,5-3.1,5.6-4.6c1.3-2.8,1.2-6.1-0.3-8.7c-2.7-4.9-2.7-10.6,0-15.4c2.7-4.9,7.7-7.9,13.3-8.1
			l15.1-0.6c5.1-0.2,9.1-4.6,8.9-9.7c-0.6-13.6-7.2-26.1-18-34.3C71.9,34,61.6,30.8,51,31.2z"/>
		<path d="M51.8,128.4c-11.6,0.5-24.3-4.7-34.3-14.3C5,102-0.7,85.3,2,68.2C5.2,48,20.6,31.3,40.5,26.6c15.3-3.6,31.2-0.4,43.5,9
			c12.3,9.3,19.7,23.5,20.4,38.8l0,0c0.3,8.5-6.3,15.6-14.7,16L74.6,91c-3.5,0.1-6.6,2-8.3,5.1c-1.7,3-1.7,6.6,0,9.6
			c2.4,4.3,2.6,9.6,0.5,14.2c-1.9,4.2-5.6,7.1-9.9,7.9C55.3,128.1,53.5,128.3,51.8,128.4z M51,31.2c-3,0.1-6.1,0.5-9.1,1.2
			c-17.5,4.2-31.2,18.9-34,36.7C5.5,84.2,10.5,99,21.6,109.7c9.9,9.5,23.2,14.3,34.1,12.1c3.4-0.7,5-3.1,5.6-4.6
			c1.3-2.8,1.2-6.1-0.3-8.7c-2.7-4.9-2.7-10.6,0-15.4c2.7-4.9,7.7-7.9,13.3-8.1l15.1-0.6c5.1-0.2,9.1-4.6,8.9-9.7
			c-0.6-13.6-7.2-26.1-18-34.3C71.9,34,61.6,30.8,51,31.2z M23.2,93.1c-5,0.2-9.2-3.7-9.4-8.7c-0.2-5,3.7-9.2,8.7-9.4
			c5-0.2,9.2,3.7,9.4,8.7C32.1,88.7,28.2,92.9,23.2,93.1z M22.7,81c-1.7,0.1-3,1.5-2.9,3.2s1.5,3,3.2,2.9c1.7-0.1,3-1.5,2.9-3.2
			C25.8,82.2,24.4,80.9,22.7,81z M76.8,66.6c-5,0.2-9.2-3.7-9.4-8.7s3.7-9.2,8.7-9.4c5-0.2,9.2,3.7,9.4,8.7
			C85.7,62.2,81.8,66.5,76.8,66.6z M76.3,54.5c-1.7,0.1-3,1.5-2.9,3.2s1.5,3,3.2,2.9s3-1.5,2.9-3.2C79.5,55.8,78,54.5,76.3,54.5z
			 M28.3,68.6c-5,0.2-9.2-3.7-9.4-8.7c-0.2-5,3.7-9.2,8.7-9.4s9.2,3.7,9.4,8.7C37.2,64.2,33.3,68.4,28.3,68.6z M27.8,56.5
			c-1.7,0.1-3,1.5-2.9,3.2s1.5,3,3.2,2.9s3-1.5,2.9-3.2C30.9,57.7,29.5,56.4,27.8,56.5z M52.1,55.5c-5,0.2-9.2-3.7-9.4-8.7
			s3.7-9.2,8.7-9.4c5-0.2,9.2,3.7,9.4,8.7C61,51.1,57.1,55.3,52.1,55.5z M51.6,43.4c-1.7,0.1-3,1.5-2.9,3.2s1.5,3,3.2,2.9
			s3-1.5,2.9-3.2S53.3,43.3,51.6,43.4z"/>
		
			<ellipse transform="matrix(0.9992 -3.988872e-02 3.988872e-02 0.9992 -3.3334 0.9754)" class="st1" cx="22.8" cy="84" rx="3.1" ry="3.1"/>
		
			<ellipse transform="matrix(0.9992 -3.988872e-02 3.988872e-02 0.9992 -2.2374 3.0965)" class="st1" cx="76.5" cy="57.6" rx="3.1" ry="3.1"/>
		
			<ellipse transform="matrix(0.9992 -3.988872e-02 3.988872e-02 0.9992 -2.352 1.1593)" class="st1" cx="27.9" cy="59.5" rx="3.1" ry="3.1"/>
		
			<ellipse transform="matrix(0.9992 -3.988872e-02 3.988872e-02 0.9992 -1.8105 2.0983)" class="st1" cx="51.7" cy="46.4" rx="3.1" ry="3.1"/>
	</g>
</g>
</svg>
