<?xml version="1.0" encoding="utf-8"?>
<!-- Generator: Adobe Illustrator 19.2.0, SVG Export Plug-In . SVG Version: 6.00 Build 0)  -->
<svg version="1.1" id="Capa_1" xmlns="http://www.w3.org/2000/svg" xmlns:xlink="http://www.w3.org/1999/xlink" x="0px" y="0px"
	 viewBox="0 0 259 243" style="enable-background:new 0 0 259 243;" xml:space="preserve">
<style type="text/css">
	.st0{fill:#E89049;}
	.st1{fill:#FFFFFF;stroke:#000000;stroke-width:5;stroke-linecap:round;stroke-linejoin:round;}
</style>
<circle class="st0" cx="129.4" cy="121.5" r="121.5"/>
<path d="M469.4,267.2c0.9,0.1,1.3,0.2,1.7,0.2c-0.2,0.1-0.5,0.3-0.7,0.3C470.2,267.8,470.1,267.6,469.4,267.2z"/>
<g>
	<path class="st1" d="M168.8,136.8l45.3-12.9v48.6c0,4.8-3.3,9.1-8,10.2l-71.5,17.9c-3.3,0.8-6.9,0.8-10.2,0l-71.4-17.9
		c-4.7-1.2-8-5.4-8-10.2v-48.6l45.3,13c9.5,2.7,16-3.6,18.1-7.1l21.2-35.2l21.2,35.2C152.9,133.3,159.4,139.5,168.8,136.8z"/>
	<path class="st1" d="M46.8,85l82.7,10.5l-30.3,50.2c-1.3,2.1-3.8,3.1-6.1,2.4l-65.4-18.7c-3.2-0.9-4.9-4.6-3.3-7.6l17-34
		C42.4,85.9,44.5,84.7,46.8,85z"/>
	<path class="st1" d="M65,86.5c0-0.8-0.2-1.6-0.2-2.4c0-23.4,18.9-42.3,42.3-42.3c23,0,41.6,18.4,42.2,41.3L163,45.2
		c1-2.7,4-4.2,6.8-3.2l18.3,6.7c2.7,1,4.2,4,3.2,6.8L179.5,88l-51.3,6.5l-2.7-0.3c1.7-3,2.7-6.4,2.7-10.1c0-11.7-9.5-21.1-21.1-21.1
		S85.9,72.4,85.9,84c0,1.8,0.3,3.5,0.7,5.2L65,86.5z"/>
	<path class="st1" d="M231.3,129.5l-65.4,18.7c-2.3,0.7-4.9-0.3-6.1-2.4l-30.3-50.3L212.2,85c2.3-0.3,4.5,0.9,5.5,2.9l17,34
		C236.2,124.9,234.6,128.6,231.3,129.5z"/>
</g>
</svg>
