<?xml version="1.0" encoding="utf-8"?>
<!-- Generator: Adobe Illustrator 19.2.0, SVG Export Plug-In . SVG Version: 6.00 Build 0)  -->
<svg version="1.1" id="Capa_1" xmlns="http://www.w3.org/2000/svg" xmlns:xlink="http://www.w3.org/1999/xlink" x="0px" y="0px"
	 viewBox="0 0 259 243" style="enable-background:new 0 0 259 243;" xml:space="preserve">
<style type="text/css">
	.st0{fill:#E89049;}
	.st1{fill:#FFFFFF;stroke:#000000;stroke-width:5;stroke-linecap:round;stroke-linejoin:round;stroke-miterlimit:10;}
</style>
<circle class="st0" cx="129.4" cy="121.5" r="121.5"/>
<path d="M469.4,267.2c0.9,0.1,1.3,0.2,1.7,0.2c-0.2,0.1-0.5,0.3-0.7,0.3C470.2,267.8,470.1,267.6,469.4,267.2z"/>
<g>
	<g>
		<path class="st1" d="M229.6,147.4v7.4c0,2-1.7,3.7-3.7,3.7h-11.1c0,12.3-10,22.2-22.2,22.2s-22.2-10-22.2-22.2h-72
			c0,12.3-10,22.2-22.2,22.2S54,170.7,54,158.5h-3.7c-6.1,0-11.1-5-11.1-11.1v-74c0-6.1,5-11.1,11.1-11.1h116.4
			c6.1,0,11.1,5,11.1,11.1v11.1H188c2.9,0,5.8,1.2,7.8,3.3l23.1,23.1c2.1,2.1,3.3,4.9,3.3,7.8v25h3.7
			C228,143.7,229.6,145.4,229.6,147.4z M211.1,118.7L188,95.6h-10.2v25.9h33.3V118.7z"/>
	</g>
	<g>
		<path class="st1" d="M229.6,147.4v7.4c0,2-1.7,3.7-3.7,3.7h-11.1c0,12.3-10,22.2-22.2,22.2s-22.2-10-22.2-22.2h-72
			c0,12.3-10,22.2-22.2,22.2S54,170.7,54,158.5h-3.7c-6.1,0-11.1-5-11.1-11.1v-3.7h183.1l0,0h3.7C228,143.7,229.6,145.4,229.6,147.4
			z M211.1,118.7L188,95.6h-10.2v25.9h33.3V118.7z"/>
	</g>
	<circle class="st1" cx="76.2" cy="158.5" r="22.2"/>
	<circle class="st1" cx="192.6" cy="158.5" r="22.2"/>
	<circle class="st1" cx="76.2" cy="158.5" r="11.1"/>
	<circle class="st1" cx="192.6" cy="158.5" r="11.1"/>
	<path class="st1" d="M105.1,96.7H15.7c-3.5,0-6.3-2.8-6.3-6.3v-0.8c0-3.5,2.8-6.3,6.3-6.3h89.4c3.5,0,6.3,2.8,6.3,6.3v0.8
		C111.5,93.9,108.6,96.7,105.1,96.7z"/>
	<path class="st1" d="M105.1,119.5H30.3c-3.5,0-6.3-2.8-6.3-6.3v-0.8c0-3.5,2.8-6.3,6.3-6.3h74.8c3.5,0,6.3,2.8,6.3,6.3v0.8
		C111.5,116.7,108.6,119.5,105.1,119.5z"/>
</g>
</svg>
