<?xml version="1.0" encoding="utf-8"?>
<!-- Generator: Adobe Illustrator 19.2.0, SVG Export Plug-In . SVG Version: 6.00 Build 0)  -->
<svg version="1.1" id="Capa_1" xmlns="http://www.w3.org/2000/svg" xmlns:xlink="http://www.w3.org/1999/xlink" x="0px" y="0px"
	 viewBox="0 0 259 243" style="enable-background:new 0 0 259 243;" xml:space="preserve">
<style type="text/css">
	.st0{fill:#E89049;}
	.st1{fill:#FFFFFF;}
</style>
<circle class="st0" cx="129.4" cy="121.5" r="121.5"/>
<g id="_x30_5.-Carreers" transform="translate(-1096.000000, -3374.000000)">
	<path class="st1" d="M1288.9,3488.4l-2.8,2.8l-2.8-2.8l2.3-20.2c0,0,0,0,0.5,0c0,0,0,0,0.5,0L1288.9,3488.4z"/>
	<path class="st1" d="M1273.9,3432.1c0-6.6,5.6-12.2,12.2-12.2s12.2,5.6,12.2,12.2v6.1c0,6.6-5.6,12.2-12.2,12.2
		s-12.2-5.6-12.2-12.2C1273.9,3438.2,1273.9,3432.1,1273.9,3432.1z"/>
	<path class="st1" d="M1286.1,3456c2.3,0,4.2-0.5,6.1-0.9v3.3c-0.9,0.9-2.8,3.8-6.1,3.8s-5.2-2.8-6.1-3.8v-3.3
		C1281.9,3455.6,1284.2,3456,1286.1,3456z"/>
	<path class="st1" d="M1275.3,3462.6c0.9,1.4,2.4,2.8,4.2,4.2l-2.8,24l9.4,9.4l9.4-9.4l-2.8-24c1.9-1.4,3.3-2.8,4.2-4.2l11.3,1.4
		c2.8,0.5,5.2,2.8,5.2,6.1v46.5c0,1.9-1.4,2.8-2.8,2.8c-1.9,0-2.8-1.4-2.8-2.8v-42.3h-6.1v30.5h-30.5v-30.5h-18.3
		c-0.9,0-1.9-0.5-2.3-0.9l-21.2-26.3c-0.5-0.5-0.9-1.4-0.9-1.9v-0.9c0-1.9,1.4-3.3,3.3-3.3c0.9,0,1.9,0.5,2.4,0.9l20.2,23.5
		L1275.3,3462.6z"/>
	<rect x="1189.3" y="3535" class="st1" width="6.1" height="48.4"/>
	<polygon class="st1" points="1211.9,3535 1217.5,3535 1236.3,3583.4 1230.7,3583.4 	"/>
	<rect x="1271.1" y="3510.5" class="st1" width="12.2" height="72.8"/>
	<polygon class="st1" points="1137.6,3419.8 1166.3,3419.8 1178.5,3407.6 1206.2,3407.6 1218.4,3419.8 1247.1,3419.8 1247.1,3425.9 
		1137.6,3425.9 	"/>
	<path class="st1" d="M1143.7,3432.1h96.8v8.5l-1.9-2.4c-1.9-1.9-4.2-3.3-7.1-3.3c-5.2,0-9.4,4.2-9.4,9.4v0.5c0,1.9,0.9,4.2,1.9,5.6
		l16,20.2v33.8h-96.3V3432.1z"/>
	<rect x="1137.6" y="3510.5" class="st1" width="109" height="6.1"/>
	<rect x="1167.7" y="3522.8" class="st1" width="48.9" height="6.1"/>
	<polygon class="st1" points="1166.8,3535 1172.4,3535 1153.6,3583.4 1147.9,3583.4 	"/>
	<rect x="1288.9" y="3510.5" class="st1" width="12.2" height="72.8"/>
	<g id="_x30_4.-benefits" transform="translate(0.000000, 3179.000000)">
		<g id="Group-13" transform="translate(1050.000000, 195.000000)">
			<g id="training" transform="translate(46.000000, 0.000000)">
				<polygon id="Path" points="81.1,39.7 111.2,39.7 111.2,45.8 81.1,45.8 				"/>
				<path id="Shape" d="M214.6,152.1c5.2,0,8.9-4.2,8.9-8.9V96.6c0-6.1-4.7-11.3-10.3-12.2L202.4,83v-5.2c3.8-3.3,6.1-8,6.1-13.6V58
					c0-9.9-8-18.3-18.3-18.3s-18.3,8-18.3,18.3v6.1c0,5.2,2.3,10.3,6.1,13.6V83L161,85.3l-10.3-11.8l0,0V58h6.1V39.7h-32l-12.2-12.2
					H79.7L67.5,39.7h-32V58h6.1v72.8h-6.1v18.3h30.6v8.5l-20.7,51.7h-9.9v6.1h188v-6.1h-12.2v-58.3
					C212.2,151.6,213.2,152.1,214.6,152.1z M192.9,114.4l-2.8,2.8l-2.8-2.8l2.4-20.2c0,0,0,0,0.5,0c0,0,0,0,0.5,0L192.9,114.4z
					 M177.9,58c0-6.6,5.6-12.2,12.2-12.2c6.6,0,12.2,5.6,12.2,12.2v6.1c0,6.6-5.6,12.2-12.2,12.2c-6.6,0-12.2-5.6-12.2-12.2
					C177.9,64.2,177.9,58,177.9,58z M190.1,82c2.4,0,4.2-0.5,6.1-0.9v3.3c-0.9,0.9-2.8,3.8-6.1,3.8s-5.2-2.8-6.1-3.8v-3.3
					C185.9,81.6,188.2,82,190.1,82z M179.3,88.6c0.9,1.4,2.3,2.8,4.2,4.2l-2.8,24l9.4,9.4l9.4-9.4l-2.8-24c1.9-1.4,3.3-2.8,4.2-4.2
					l11.3,1.4c2.8,0.5,5.2,2.8,5.2,6.1v46.5c0,1.9-1.4,2.8-2.8,2.8c-1.9,0-2.8-1.4-2.8-2.8v-42.3h-6.1v30.5h-30.6v-30.5h-18.3
					c-0.9,0-1.9-0.5-2.4-0.9l-21.1-26.3c-0.5-0.5-0.9-1.4-0.9-1.9v-0.9c0-1.9,1.4-3.3,3.3-3.3c0.9,0,1.9,0.5,2.3,0.9l20.2,23.5
					L179.3,88.6z M87.2,161v48.4h-23L83,161C83,161,87.2,161,87.2,161z M93.3,161h6.1v48.4h-6.1V161z M105.1,161h3.8l18.8,48.4h-23
					V161H105.1z M115.9,161h5.6l18.8,48.4h-5.6L115.9,161z M126.7,157.2v-8.5h30.5v-18.3h-6.1v-26.3c1.4,1.4,3.8,2.3,6.1,2.3h12.2
					v102.9h-22.1L126.7,157.2z M175.1,136.5h12.2v72.8h-12.2C175.1,209.4,175.1,136.5,175.1,136.5z M41.6,45.8h28.7l12.2-12.2h27.7
					l12.2,12.2h28.7v6.1H41.6V45.8z M47.7,58h96.8v8.5l-1.9-2.3c-1.9-1.9-4.2-3.3-7.1-3.3c-5.2,0-9.4,4.2-9.4,9.4v0.5
					c0,1.9,0.9,4.2,1.9,5.6l16,20.2v33.8H47.7V58z M41.6,136.5h109v6.1h-109V136.5z M120.6,148.8v6.1H71.7v-6.1H120.6z M70.8,161
					h5.6l-18.8,48.4H52L70.8,161z M192.9,209.4v-72.8h12.2v72.8H192.9z"/>
			</g>
		</g>
	</g>
</g>
</svg>
