<?xml version="1.0" encoding="utf-8"?>
<!-- Generator: Adobe Illustrator 19.2.0, SVG Export Plug-In . SVG Version: 6.00 Build 0)  -->
<svg version="1.1" id="Capa_1" xmlns="http://www.w3.org/2000/svg" xmlns:xlink="http://www.w3.org/1999/xlink" x="0px" y="0px"
	 viewBox="0 0 259 243" style="enable-background:new 0 0 259 243;" xml:space="preserve">
<style type="text/css">
	.st0{fill:#E89049;}
	.st1{fill:#FFFFFF;stroke:#000000;stroke-width:5;stroke-linecap:round;stroke-linejoin:round;stroke-miterlimit:10;}
</style>
<circle class="st0" cx="129.4" cy="121.5" r="121.5"/>
<path d="M469.4,267.2c0.9,0.1,1.3,0.2,1.7,0.2c-0.2,0.1-0.5,0.3-0.7,0.3C470.2,267.8,470.1,267.6,469.4,267.2z"/>
<g>
	<path class="st1" d="M149.2,68.6H79.1c-5.7,0-10.3-4.6-10.3-10.3v-9.9c0-5.7,4.6-10.3,10.3-10.3h70.1c5.7,0,10.3,4.6,10.3,10.3v9.9
		C159.5,64,154.9,68.6,149.2,68.6z"/>
	<path class="st1" d="M102.3,68.6H32.2c-5.7,0-10.3-4.6-10.3-10.3v-9.9c0-5.7,4.6-10.3,10.3-10.3h70.1c5.7,0,10.3,4.6,10.3,10.3v9.9
		C112.7,64,108,68.6,102.3,68.6z"/>
	<path class="st1" d="M142.5,139.9H86c-3.5,0-6.4-2.9-6.4-6.4v-65h69.3v65C148.9,137.1,146.1,139.9,142.5,139.9z"/>
	<path class="st1" d="M95.7,139.9H39.1c-3.5,0-6.4-2.9-6.4-6.4v-65H102v65C102,137.1,99.2,139.9,95.7,139.9z"/>
</g>
<g>
	<path class="st1" d="M230.8,205.1c0,7.8-7.2,13.7-14.8,12.1l-74.9-15.6c-8-2-13.6-9.2-13.6-17.4v-59.9h103.4V205.1z"/>
	<path class="st1" d="M230.8,108.2v30.2c0,5.9-5.5,10.4-11.3,9.1l-88.4-19c-4.9-1.1-4.9-8.1,0-9.1l90.6-18.6
		C226.4,99.9,230.8,103.4,230.8,108.2z"/>
	<line class="st1" x1="127.4" y1="153.8" x2="230.8" y2="175.9"/>
	<line class="st1" x1="127.4" y1="170.8" x2="230.8" y2="192.9"/>
	<circle class="st1" cx="195.7" cy="108.6" r="15.9"/>
</g>
</svg>
