<?xml version="1.0" encoding="utf-8"?>
<!-- Generator: Adobe Illustrator 19.2.0, SVG Export Plug-In . SVG Version: 6.00 Build 0)  -->
<svg version="1.1" id="Capa_1" xmlns="http://www.w3.org/2000/svg" xmlns:xlink="http://www.w3.org/1999/xlink" x="0px" y="0px"
	 viewBox="0 0 259 243" style="enable-background:new 0 0 259 243;" xml:space="preserve">
<style type="text/css">
	.st0{fill:#E89049;}
	.st1{fill:#FFFFFF;}
	.st2{fill:#FFFFFF;stroke:#000000;stroke-width:5;}
</style>
<circle class="st0" cx="129.4" cy="121.5" r="121.5"/>
<g>
	<g>
		<path class="st1" d="M130.3,43.3c-0.1-0.1-0.6-0.3-0.8-0.3c-0.2,0-0.7,0.2-0.9,0.3L71.1,90.7v63.8c0,1.4,1.2,2.6,2.6,2.6l35.5-0.1
			c1.4,0,2.6-1.2,2.6-2.6V124c0-4.2,3.4-7.6,7.6-7.6h20.3c4.2,0,7.6,3.4,7.6,7.6v30.4c0,1.4,1.2,2.5,2.6,2.5l35.5,0.1
			c1.4,0,2.6-1.2,2.6-2.6V90.7L130.3,43.3z"/>
		<path class="st1" d="M218.3,90c0-0.3-0.3-0.8-0.5-1l-27.4-22.6V21.3c0-0.7-0.6-1.3-1.3-1.3h-17.8c-0.7,0-1.3,0.6-1.3,1.3v28.3
			l-32.5-26.7c-1.9-1.5-5.7-2.9-8.1-2.9c-2.4,0-6.2,1.4-8.1,2.9L41.1,89c-0.2,0.2-0.5,0.7-0.5,1c0,0.2,0.2,0.7,0.3,0.8l8.1,9.8
			c0.2,0.2,0.8,0.5,1,0.5c0.2,0,0.7-0.2,0.8-0.3l74.6-61.4c1.1-0.8,2.7-1.4,4-1.4s3,0.6,4,1.4l74.6,61.4c0.2,0.1,0.6,0.3,0.8,0.3
			c0.2,0,0.8-0.3,1-0.5l8.1-9.8C218.1,90.7,218.3,90.2,218.3,90z"/>
		<path d="M221,85.2l-25.6-21.1V21.3c0-3.5-2.8-6.3-6.3-6.3h-17.8c-3.5,0-6.3,2.8-6.3,6.3v17.7l-24.3-20c-2.8-2.3-7.7-4-11.3-4
			c-3.6,0-8.5,1.8-11.3,4L38,85.2c-1.3,1.1-2.3,3.1-2.3,4.9c0,1.3,0.6,3,1.4,4l8.1,9.8c1.1,1.4,3.1,2.3,4.9,2.3c1.3,0,3-0.6,4-1.4
			l12-9.9v59.7c0,4.2,3.4,7.6,7.6,7.6l35.5-0.1c4.2,0,7.5-3.4,7.5-7.6V124c0-1.4,1.2-2.6,2.6-2.6h20.3c1.4,0,2.6,1.2,2.6,2.6l0,30.3
			c0,4.2,3.4,7.6,7.6,7.6l35.5,0.1c4.2,0,7.6-3.4,7.6-7.6V94.8l12,9.9c1,0.9,2.7,1.4,4,1.4c1.7,0,3.8-1,4.9-2.3l8.1-9.8
			c0.8-1,1.4-2.7,1.4-4C223.3,88.3,222.3,86.2,221,85.2z M208.9,101.2c-0.2,0-0.7-0.2-0.8-0.3l-74.6-61.4c-1-0.8-2.7-1.4-4-1.4
			s-3,0.6-4,1.4l-74.6,61.4c-0.2,0.1-0.6,0.3-0.8,0.3c-0.3,0-0.8-0.3-1-0.5L41,90.9c-0.1-0.2-0.3-0.6-0.3-0.8c0-0.3,0.3-0.8,0.5-1
			l80.3-66.1c1.9-1.5,5.7-2.9,8.1-2.9c2.4,0,6.2,1.4,8.1,2.9L170,49.6V21.3c0-0.7,0.6-1.3,1.3-1.3h17.8c0.7,0,1.3,0.6,1.3,1.3v45.1
			L217.8,89c0.2,0.2,0.5,0.8,0.5,1c0,0.2-0.2,0.7-0.3,0.8l-8.1,9.8C209.8,100.9,209.2,101.2,208.9,101.2z M185.3,157l-35.5-0.1
			c-1.4,0-2.5-1.1-2.6-2.5V124c0-4.2-3.4-7.6-7.6-7.6h-20.3c-4.2,0-7.6,3.4-7.6,7.6v30.3c0,1.4-1.1,2.6-2.6,2.6L73.7,157
			c-1.4,0-2.6-1.2-2.6-2.6V90.7l57.5-47.4c0.2-0.1,0.7-0.3,0.9-0.3c0.2,0,0.7,0.2,0.8,0.3l57.5,47.4v63.8
			C187.9,155.9,186.7,157,185.3,157z"/>
	</g>
	<g>
		<g>
			<path class="st2" d="M205.6,190.8l-41.7,33.4c-3.1,2.5-7,3.9-11,3.9H54.5c-2.4,0-4.4-2-4.4-4.4v-26.5c0-2.4,2-4.4,4.4-4.4h15.3
				l12.8-10.4c5.8-4.7,13-7.3,20.4-7.3h44.1c5.4,0,9.6,4.8,8.7,10.3c-0.7,4.3-4.8,7.3-9.2,7.3h-21.6c-2.4,0-4.4,2-4.4,4.4
				s2,4.4,4.4,4.4h32.6c4,0,7.9-1.4,11-3.9l25.5-20.4c3.4-2.8,8.5-3,11.7,0C210.1,181,209.8,187.4,205.6,190.8z"/>
		</g>
	</g>
</g>
</svg>
