<?xml version="1.0" encoding="utf-8"?>
<!-- Generator: Adobe Illustrator 19.2.0, SVG Export Plug-In . SVG Version: 6.00 Build 0)  -->
<svg version="1.1" id="Capa_1" xmlns="http://www.w3.org/2000/svg" xmlns:xlink="http://www.w3.org/1999/xlink" x="0px" y="0px"
	 viewBox="0 0 259 243" style="enable-background:new 0 0 259 243;" xml:space="preserve">
<style type="text/css">
	.st0{fill:#E89049;}
	.st1{fill:none;}
	.st2{fill:#FFFFFF;}
</style>
<circle class="st0" cx="129.4" cy="121.5" r="121.5"/>
<path class="st1" d="M129.9,85.1c7.5,0,13.6-6.1,13.6-13.6s-6.1-13.6-13.6-13.6s-13.6,6.1-13.6,13.6S122.4,85.1,129.9,85.1z"/>
<path class="st2" d="M28.3,108.2c-3.3,1.3-6.1,5.5-6.1,9V213c0,1.2,0.6,2.3,1.6,3s2.2,0.8,3.3,0.4L78.4,193v-86.9
	c-2.9-5.3-5.3-10.4-7.1-15.1L28.3,108.2z"/>
<path class="st2" d="M237.6,186.4V90.6c0-1.2-0.6-2.3-1.6-3s-2.2-0.8-3.3-0.4l-51.3,23.4v104.9l50.1-20
	C234.8,194.1,237.6,190,237.6,186.4z"/>
<path class="st2" d="M127.2,144.9c0.7,0.8,1.7,1.3,2.7,1.3l0,0c1.1,0,2-0.5,2.7-1.3c10.1-11.9,43-52.4,43-73.4
	c0-25.2-20.5-45.7-45.7-45.7S84.2,46.3,84.2,71.5C84.2,92.5,117.1,133,127.2,144.9z M129.9,52.9c10.2,0,18.6,8.3,18.6,18.6
	s-8.3,18.6-18.6,18.6c-10.2,0-18.6-8.3-18.6-18.6S119.7,52.9,129.9,52.9z"/>
<path class="st2" d="M129.9,163.4c-6.1,0-11.9-2.7-15.9-7.4c-6.7-7.9-12.8-15.7-18.4-23.2v60l68.5,22.8v-82.9
	c-5.5,7.5-11.7,15.3-18.4,23.2C141.8,160.7,136,163.4,129.9,163.4z"/>
<path d="M75.2,86.9l-0.9-2.5l-47.8,19.1c-5.2,2.1-9.3,8.1-9.3,13.7V213c0,2.9,1.4,5.5,3.8,7.1c1.4,1,3.1,1.5,4.8,1.5
	c1.1,0,2.2-0.2,3.2-0.6l54.4-24.8v-91.4l-0.3-0.6C79.7,98.1,77,92.3,75.2,86.9z M78.4,193.1l-51.3,23.4c-1.1,0.4-2.3,0.3-3.3-0.4
	c-1-0.7-1.6-1.8-1.6-3v-95.8c0-3.6,2.8-7.7,6.1-9l43-17.2c1.8,4.8,4.2,9.8,7.1,15.1V193.1z"/>
<path d="M238.8,83.5c-2.4-1.6-5.4-1.9-8-0.9l-54.4,24.8v115.5l57-22.8c5.2-2.1,9.3-8.1,9.3-13.7V90.6
	C242.6,87.8,241.2,85.1,238.8,83.5z M181.4,215.5V110.6l51.3-23.4c1.1-0.4,2.3-0.3,3.3,0.4s1.6,1.8,1.6,3v95.8c0,3.6-2.8,7.7-6.1,9
	L181.4,215.5z"/>
<path d="M142,152.8L142,152.8c-3,3.6-7.4,5.6-12.1,5.6c-4.6,0-9-2-12.1-5.6c-8.5-10-16.1-19.8-22.6-29.2l-4.5-6.5v79.4l78.5,26.2
	V117.1l-4.5,6.5C158.1,133,150.4,142.8,142,152.8z M164.2,215.7l-68.5-22.8v-60c5.5,7.5,11.7,15.3,18.4,23.2c4,4.7,9.8,7.4,15.9,7.4
	c6.1,0,11.9-2.7,15.9-7.4c6.7-7.9,12.8-15.6,18.4-23.2L164.2,215.7L164.2,215.7z"/>
<path d="M129.9,151.2L129.9,151.2c2.5,0,4.9-1.1,6.5-3c13.3-15.7,44.2-54.5,44.2-76.6c0-28-22.7-50.7-50.7-50.7S79.2,43.6,79.2,71.6
	c0,22.1,30.9,61,44.2,76.6C125,150,127.4,151.2,129.9,151.2z M129.9,25.8c25.2,0,45.7,20.5,45.7,45.7c0,21-32.9,61.5-43,73.4
	c-0.7,0.8-1.7,1.3-2.7,1.3l0,0c-1.1,0-2-0.5-2.7-1.3c-10.1-11.9-43-52.4-43-73.4C84.2,46.3,104.7,25.8,129.9,25.8z"/>
<path d="M129.9,90.1c10.2,0,18.6-8.3,18.6-18.6s-8.3-18.6-18.6-18.6c-10.2,0-18.6,8.3-18.6,18.6S119.7,90.1,129.9,90.1z M129.9,57.9
	c7.5,0,13.6,6.1,13.6,13.6s-6.1,13.6-13.6,13.6s-13.6-6.1-13.6-13.6S122.4,57.9,129.9,57.9z"/>
</svg>
