<?xml version="1.0" encoding="utf-8"?>
<!-- Generator: Adobe Illustrator 19.2.0, SVG Export Plug-In . SVG Version: 6.00 Build 0)  -->
<svg version="1.1" id="Capa_1" xmlns="http://www.w3.org/2000/svg" xmlns:xlink="http://www.w3.org/1999/xlink" x="0px" y="0px"
	 viewBox="0 0 259 243" style="enable-background:new 0 0 259 243;" xml:space="preserve">
<style type="text/css">
	.st0{fill:#E89049;}
	.st1{fill:none;stroke:#000000;stroke-width:5;stroke-linecap:round;stroke-linejoin:round;}
	.st2{fill:#FFFFFF;stroke:#000000;stroke-width:5;stroke-linecap:round;stroke-linejoin:round;}
</style>
<circle class="st0" cx="129.4" cy="121.5" r="121.5"/>
<path d="M469.4,267.2c0.9,0.1,1.3,0.2,1.7,0.2c-0.2,0.1-0.5,0.3-0.7,0.3C470.2,267.8,470.1,267.6,469.4,267.2z"/>
<path class="st1" d="M41.8,24.2c0,0,83,90.5,214,63.9"/>
<g>
	<path class="st1" d="M53.3,134l6.9,22c1,3.2,0.7,6.6-0.7,9.6l-5.8,11.7c-1.9,3.8-1.8,8.3,0.3,12.1l4.5,8c2,3.6,2.2,7.9,0.5,11.6
		l-1,2.1"/>
	<path class="st2" d="M103.1,61.5c0-31.8-19.8-53.8-44.9-53.8c-24.9,0-44.9,22-44.9,53.8c0,25.6,13,49.8,31.1,58.3l-11.1,22.3h45.9
		l-10.4-21C88.5,114.1,103.1,88.6,103.1,61.5z"/>
</g>
<path class="st2" d="M123.6,77v57.1l22.6-12.5l19.5,12.5v-45C165.7,89.1,132.2,80.5,123.6,77z"/>
<path class="st2" d="M186.4,92v50.1l22.2-12l20.6,12V92C229.2,92,193.8,92.8,186.4,92z"/>
<polygon class="st2" points="195.7,233.1 167.8,222.2 143,239 144.7,209.1 121.1,190.7 150.1,183.1 160.3,154.9 176.4,180.2 
	206.4,181.1 187.4,204.3 "/>
</svg>
