<?xml version="1.0" encoding="utf-8"?>
<!-- Generator: Adobe Illustrator 19.2.0, SVG Export Plug-In . SVG Version: 6.00 Build 0)  -->
<svg version="1.1" id="Capa_1" xmlns="http://www.w3.org/2000/svg" xmlns:xlink="http://www.w3.org/1999/xlink" x="0px" y="0px"
	 viewBox="0 0 259 243" style="enable-background:new 0 0 259 243;" xml:space="preserve">
<style type="text/css">
	.st0{fill:#E89049;}
	.st1{fill:#FFFFFF;stroke:#000000;stroke-width:5;}
	.st2{fill:#FFFFFF;stroke:#000000;stroke-width:5;stroke-linecap:round;stroke-linejoin:round;}
</style>
<circle class="st0" cx="129.4" cy="121.5" r="121.5"/>
<path d="M469.4,267.2c0.9,0.1,1.3,0.2,1.7,0.2c-0.2,0.1-0.5,0.3-0.7,0.3C470.2,267.8,470.1,267.6,469.4,267.2z"/>
<path class="st1" d="M130.7,36.7c-0.1-0.1-0.9-0.4-1.1-0.4c-0.3,0-1,0.3-1.3,0.4L46,104.6v111.3c0,2,1.7,3.7,3.7,3.7l159.9-0.1
	c2,0,3.7-1.7,3.7-3.7V104.6L130.7,36.7z"/>
<path class="st1" d="M256.7,123.6c0-0.4-0.4-1.1-0.7-1.4l-39.2-32.4V25.2c0-1-0.9-1.9-1.9-1.9h-25.5c-1,0-1.9,0.9-1.9,1.9v40.5
	L141,27.5c-2.7-2.1-8.2-4.2-11.6-4.2c-3.4,0-8.9,2-11.6,4.2L3,122.1c-0.3,0.3-0.7,1-0.7,1.4c0,0.3,0.3,1,0.4,1.1l11.6,14
	c0.3,0.3,1.1,0.7,1.4,0.7c0.3,0,1-0.3,1.1-0.4L123.6,51c1.6-1.1,3.9-2,5.7-2c1.9,0,4.3,0.9,5.7,2l106.9,88c0.3,0.1,0.9,0.4,1.1,0.4
	c0.3,0,1.1-0.4,1.4-0.7l11.6-14C256.4,124.6,256.7,123.9,256.7,123.6z"/>
<g>
	<path class="st1" d="M150.3,171.9h-40.9c-5.4,0-9.8-4.4-9.8-9.8v-40.9c0-5.4,4.4-9.8,9.8-9.8h40.9c5.4,0,9.8,4.4,9.8,9.8v40.9
		C160.2,167.5,155.8,171.9,150.3,171.9z"/>
	<rect x="101.8" y="171.9" class="st1" width="57.8" height="13.5"/>
	<path class="st1" d="M106.8,185.4h-7.5c-7.6,0-13.7-6.1-13.7-13.7v-16c0-4.1,3.3-7.5,7.5-7.5h6.2c4.1,0,7.5,3.3,7.5,7.5V185.4z"/>
	<path class="st1" d="M152.2,185.4h7.5c7.6,0,13.7-6.1,13.7-13.7v-16c0-4.1-3.3-7.5-7.5-7.5h-6.2c-4.1,0-7.5,3.3-7.5,7.5V185.4z"/>
	<polygon class="st1" points="100.1,199 90.4,199 98.4,185.4 110.1,185.4 	"/>
	<polygon class="st1" points="158.9,199 168.6,199 160.6,185.4 148.9,185.4 	"/>
</g>
<line class="st2" x1="70.6" y1="199" x2="188.4" y2="199"/>
</svg>
