<?xml version="1.0" encoding="utf-8"?>
<!-- Generator: Adobe Illustrator 19.2.0, SVG Export Plug-In . SVG Version: 6.00 Build 0)  -->
<svg version="1.1" id="Capa_1" xmlns="http://www.w3.org/2000/svg" xmlns:xlink="http://www.w3.org/1999/xlink" x="0px" y="0px"
	 viewBox="0 0 259 243" style="enable-background:new 0 0 259 243;" xml:space="preserve">
<style type="text/css">
	.st0{fill:#E89049;}
	.st1{fill:#FFFFFF;stroke:#000000;stroke-width:5;stroke-miterlimit:10;}
</style>
<circle class="st0" cx="129.4" cy="121.5" r="121.5"/>
<path d="M469.4,267.2c0.9,0.1,1.3,0.2,1.7,0.2c-0.2,0.1-0.5,0.3-0.7,0.3C470.2,267.8,470.1,267.6,469.4,267.2z"/>
<path class="st1" d="M61.3,83.1h8.9l6.5-14.5c0.5-1.1,1.6-1.9,2.9-1.9h28.1c1.3,0,2.4,0.8,2.9,1.9l6.2,14.5h81
	c1.7,0,3.1,1.4,3.1,3.1v74.6c0,1.7-1.4,3.1-3.1,3.1H61.3c-1.7,0-3.1-1.4-3.1-3.1V86.3C58.1,84.5,59.6,83.1,61.3,83.1z"/>
<path class="st1" d="M200.9,146.5v14.4c0,1.7-1.4,3.1-3.1,3.1H61.3c-1.7,0-3.1-1.4-3.1-3.1v-14.4H200.9z"/>
<circle class="st1" cx="129.5" cy="125.2" r="27.7"/>
<path class="st1" d="M182.1,222.8L145.9,164h-11.5h-9.7h-11.5l-36.2,58.8c-0.7,1.2,0.1,2.8,1.5,2.8h17c0.6,0,1.2-0.3,1.5-0.9
	l32.6-52.8l32.6,52.8c0.3,0.5,0.9,0.9,1.5,0.9h17C182,225.5,182.9,224,182.1,222.8z"/>
<rect x="163.2" y="71.1" class="st1" width="27.3" height="12"/>
<path class="st1" d="M189.4,71.1h-25.1c-6.3,0-11.5-5.1-11.5-11.5V28.9c0-6.3,5.1-11.5,11.5-11.5h25.1c6.3,0,11.5,5.1,11.5,11.5
	v30.7C200.9,66,195.7,71.1,189.4,71.1z"/>
<line class="st1" x1="85.6" y1="77.1" x2="100.5" y2="77.1"/>
</svg>
