<?xml version="1.0" encoding="utf-8"?>
<!-- Generator: Adobe Illustrator 19.2.0, SVG Export Plug-In . SVG Version: 6.00 Build 0)  -->
<svg version="1.1" id="Capa_1" xmlns="http://www.w3.org/2000/svg" xmlns:xlink="http://www.w3.org/1999/xlink" x="0px" y="0px"
	 viewBox="0 0 259 243" style="enable-background:new 0 0 259 243;" xml:space="preserve">
<style type="text/css">
	.st0{fill:#E89049;}
	.st1{fill:none;stroke:#000000;stroke-width:5;}
	.st2{fill:#FFFFFF;stroke:#000000;stroke-width:5;}
</style>
<circle class="st0" cx="129.4" cy="121.5" r="121.5"/>
<path d="M469.4,267.2c0.9,0.1,1.3,0.2,1.7,0.2c-0.2,0.1-0.5,0.3-0.7,0.3C470.2,267.8,470.1,267.6,469.4,267.2z"/>
<g>
	<path class="st1" d="M162.2,99.4h58l-13.2,36.8 M220.2,99.4l17.5-39.1c5.4-12,3.3-26-5.3-35.9l-8.6-10"/>
	<ellipse class="st2" cx="129.9" cy="90.7" rx="14.8" ry="11.3"/>
	<polygon class="st2" points="165.4,136.1 95.7,136.1 89.2,114.6 95.7,93 165.4,93 171.9,114.6 	"/>
	<rect x="52.2" y="136.1" class="st2" width="147.5" height="31.5"/>
	<circle class="st2" cx="52.2" cy="152.6" r="29.8"/>
	<rect x="83.7" y="108.1" class="st2" width="93.5" height="14.8"/>
	<circle class="st2" cx="52.2" cy="152.6" r="15"/>
	<circle class="st2" cx="208.7" cy="152.6" r="29.8"/>
	<circle class="st2" cx="208.7" cy="152.6" r="15"/>
</g>
</svg>
