<?xml version="1.0" encoding="utf-8"?>
<!-- Generator: Adobe Illustrator 19.2.0, SVG Export Plug-In . SVG Version: 6.00 Build 0)  -->
<svg version="1.1" id="Capa_1" xmlns="http://www.w3.org/2000/svg" xmlns:xlink="http://www.w3.org/1999/xlink" x="0px" y="0px"
	 viewBox="0 0 259 243" style="enable-background:new 0 0 259 243;" xml:space="preserve">
<style type="text/css">
	.st0{fill:#E89049;}
	.st1{fill:#FFFFFF;}
</style>
<circle class="st0" cx="129.4" cy="121.5" r="121.5"/>
<g>
	<path class="st1" d="M224.8,115.3c0.4-0.4,0.4-0.9,0.4-1.1c0-0.2-0.1-0.7-0.5-1l-93.5-77.9c-0.9-0.8-2.2-0.8-3.1,0v0l-93.5,77.9
		c-0.4,0.4-0.5,0.8-0.5,1c0,0.2,0,0.7,0.4,1.1l5.6,6c0.5,0.6,1.4,0.6,2,0.1l4.6-3.7c0,0,0,0,0,0l78.3-63.1c2.4-1.9,5.7-2.1,8.3-0.7
		c0.4,0.2,0.7,0.4,1.1,0.7l78.3,63.1c0,0,0,0,0,0l4.7,3.8c0.6,0.5,1.5,0.4,2-0.1L224.8,115.3z"/>
	<path d="M230.1,113.9c-0.1-1.8-1-3.4-2.3-4.6l-34.4-28.6V45.2c0-3.6-2.9-6.5-6.5-6.5H174c-3.6,0-6.5,2.9-6.5,6.5v13.9l-33.2-27.7
		c-2.8-2.3-6.8-2.3-9.5,0c0,0,0,0,0,0l-93.6,77.9c-1.4,1.1-2.2,2.8-2.3,4.6c-0.1,1.8,0.5,3.5,1.7,4.8l5.6,6c2.3,2.5,6.2,2.7,8.8,0.6
		l0.6-0.5v81.4c0,3.9,3.1,7,7,7h48.7c3.9,0,7-3.1,7-7v-43.5c0-1.1,0.9-2,2-2h38.6c1.1,0,2,0.9,2,2v43.5c0,3.9,3.1,7,7,7h48.7
		c3.9,0,7-3.1,7-7v-81.4l0.6,0.5c1.2,1,2.6,1.4,4.1,1.4c1.7,0,3.5-0.7,4.7-2.1l5.6-6C229.6,117.4,230.2,115.7,230.1,113.9z
		 M217.2,121.4l-4.7-3.8c0,0,0,0,0,0l-78.3-63.1c-0.3-0.3-0.7-0.5-1.1-0.7c-2.6-1.4-5.9-1.2-8.3,0.7l-78.3,63.1c0,0,0,0,0,0
		l-4.6,3.7c-0.6,0.5-1.5,0.4-2-0.1l-5.6-6c-0.4-0.4-0.4-0.9-0.4-1.1c0-0.2,0.1-0.7,0.5-1l93.5-77.9v0c0.9-0.8,2.2-0.8,3.1,0
		l93.5,77.9c0.4,0.4,0.5,0.8,0.5,1c0,0.2,0,0.7-0.4,1.1l-5.6,6C218.6,121.9,217.8,121.9,217.2,121.4z M208.4,120.8v85.5
		c0,1.1-0.9,2-2,2h-48.7c-1.1,0-2-0.9-2-2v-43.5c0-3.9-3.1-7-7-7h-38.6c-3.9,0-7,3.1-7,7v43.5c0,1.1-0.9,2-2,2H52.6
		c-1.1,0-2-0.9-2-2v-85.5L128,58.4c0.9-0.7,2.2-0.7,3.1,0L208.4,120.8z M172.5,45.2c0-0.8,0.7-1.5,1.5-1.5h12.9
		c0.8,0,1.5,0.7,1.5,1.5V76l-15.9-12.8V45.2z"/>
	<path class="st1" d="M128,58.4l-77.4,62.4v85.5c0,1.1,0.9,2,2,2h48.7c1.1,0,2-0.9,2-2v-43.5c0-3.9,3.1-7,7-7h38.6c3.9,0,7,3.1,7,7
		v43.5c0,1.1,0.9,2,2,2h48.7c1.1,0,2-0.9,2-2v-85.5L131,58.4C130.2,57.7,128.9,57.7,128,58.4z"/>
	<path class="st1" d="M188.4,45.2c0-0.8-0.7-1.5-1.5-1.5H174c-0.8,0-1.5,0.7-1.5,1.5v18.1L188.4,76V45.2z"/>
</g>
</svg>
