<?xml version="1.0" encoding="utf-8"?>
<!-- Generator: Adobe Illustrator 19.2.0, SVG Export Plug-In . SVG Version: 6.00 Build 0)  -->
<svg version="1.1" id="Capa_1" xmlns="http://www.w3.org/2000/svg" xmlns:xlink="http://www.w3.org/1999/xlink" x="0px" y="0px"
	 viewBox="0 0 259 243" style="enable-background:new 0 0 259 243;" xml:space="preserve">
<style type="text/css">
	.st0{fill:#E89049;}
	.st1{fill:none;}
	.st2{fill:#FFFFFF;}
</style>
<circle class="st0" cx="129.4" cy="121.5" r="121.5"/>
<g>
	<path class="st1" d="M101.6,32.8c-5-4.7-10.2-5.7-12.5-6c-2.4,0.2-7.6,1.3-12.6,6.1C69,40,64.9,52.7,64.6,69.7h48.9
		C113.1,52.6,109,39.9,101.6,32.8z"/>
	<path class="st2" d="M104.8,111.1v5.3c0,3.8-3.1,7-7,7h-14c-3.8,0-7-3.1-7-7v-5.3c-14.9-1.7-26.2-6.2-33.8-13.5
		c-13.3,18.8-13.7,44.1-13.5,51.8h121.8c0.1-7.7-0.5-32.6-13.6-51.3C130.3,105.1,119.3,109.4,104.8,111.1z"/>
	<path d="M141.2,94.3c8.3-10.6,6.7-22,6.7-22.5c-0.2-1.2-1.2-2.1-2.5-2.1h-26.9c-0.4-18.7-4.9-32.4-13.5-40.5
		c-4.7-4.5-9.7-6.2-13.1-6.9c-0.4-0.2-0.8-0.4-1.3-0.4c-0.1,0-0.7,0-1.6,0c-0.9-0.1-1.5,0-1.6,0c-0.5,0-0.9,0.2-1.3,0.4
		c-3.4,0.7-8.4,2.5-13.1,6.9c-8.6,8.1-13.1,21.7-13.5,40.5h-24c-1.3,0-2.3,0.9-2.5,2.2c-0.1,0.5-1.4,11.4,6.6,21.9
		c-17.5,23.7-15,56.9-14.9,58.4c0.1,1.3,1.2,2.3,2.5,2.3h126.6c1.3,0,2.4-1,2.5-2.3C156.4,150.6,158.5,118,141.2,94.3z M151.4,149.4
		H29.6c-0.2-7.7,0.2-33.1,13.5-51.8c7.6,7.3,18.9,11.9,33.8,13.5v5.3c0,3.8,3.1,7,7,7h14c3.8,0,7-3.1,7-7v-5.3
		c14.5-1.6,25.5-6,32.9-13C150.8,116.7,151.5,141.7,151.4,149.4z M143,74.7c0,3.5-0.8,10.9-6.6,17.6c-6.5,7.4-17.1,12.1-31.6,13.8
		v-3.7c0-3.8-3.1-7-7-7h-14c-3.8,0-7,3.1-7,7v3.7c-14.6-1.7-25.3-6.4-31.9-13.8C39,85.5,38,78.2,38,74.7H143z M81.8,102.3
		c0-1.1,0.9-2,2-2h14c1.1,0,2,0.9,2,2v14c0,1.1-0.9,2-2,2h-14c-1.1,0-2-0.9-2-2V102.3z M76.4,32.9c5-4.8,10.2-5.8,12.6-6.1
		c2.4,0.2,7.6,1.2,12.5,6c7.4,7,11.5,19.7,11.9,36.8H64.6C64.9,52.7,69,40,76.4,32.9z"/>
	<path class="st2" d="M44.9,92.2c6.6,7.5,17.3,12.1,31.9,13.8v-3.7c0-3.8,3.1-7,7-7h14c3.8,0,7,3.1,7,7v3.7
		c14.5-1.7,25.1-6.3,31.6-13.8c5.8-6.7,6.6-14.1,6.6-17.6H38C38,78.2,39,85.5,44.9,92.2z"/>
	<path class="st2" d="M83.8,118.3h14c1.1,0,2-0.9,2-2v-14c0-1.1-0.9-2-2-2h-14c-1.1,0-2,0.9-2,2v14
		C81.8,117.4,82.7,118.3,83.8,118.3z"/>
</g>
<g>
	<path class="st2" d="M186.2,135.6v-17.5c0-1.7-0.2-3.3-0.5-4.9c-0.2-0.3-0.4-0.6-0.4-0.9c-1.3-4.8-3.7-9.2-7.1-12.9
		c-0.2-0.2-0.3-0.4-0.4-0.7c-4.7-4.4-11.1-7.2-18.1-7.2H154c1.3,13.5,12.6,24,26.4,24c1.4,0,2.5,1.1,2.5,2.5v17.5H186.2z"/>
	<path class="st2" d="M183.3,97.2c2.9,3.3,5.2,7.2,6.5,11.6c11.5-2.2,20.2-11.8,21.3-23.5h-5.7C196.5,85.3,188.2,89.8,183.3,97.2z"
		/>
	<path class="st2" d="M149.1,140.6v10.9h3c1.2,0,2.2,0.8,2.4,2l8.4,39.9h42l8.4-39.9c0.2-1.2,1.3-2,2.4-2h3v-10.9H149.1z"/>
	<path d="M221.3,135.6h-30.1v-17.5c0-1.5-0.1-3-0.3-4.4c14.6-2.9,25.3-15.7,25.3-30.9c0-1.4-1.1-2.5-2.5-2.5h-8.3
		c-10.3,0-19.9,5.1-25.8,13.4c-5.4-4.5-12.4-7.1-19.9-7.1h-8.3c-1.4,0-2.5,1.1-2.5,2.5c0,16.5,12.8,30.1,29,31.4v15.1h-31.3
		c-1.4,0-2.5,1.1-2.5,2.5V154c0,1.4,1.1,2.5,2.5,2.5h3.5l8.4,39.9c0.2,1.2,1.3,2,2.4,2H207c1.2,0,2.2-0.8,2.4-2l8.4-39.9h3.5
		c1.4,0,2.5-1.1,2.5-2.5v-15.9C223.8,136.7,222.7,135.6,221.3,135.6z M218.8,151.5h-3c-1.2,0-2.2,0.8-2.4,2l-8.4,39.9h-42l-8.4-39.9
		c-0.2-1.2-1.3-2-2.4-2h-3v-10.9h69.7V151.5z M180.4,115.6c-13.8,0-25.1-10.6-26.4-24h5.7c7,0,13.4,2.7,18.1,7.2
		c0.1,0.2,0.3,0.5,0.4,0.7c3.4,3.7,5.8,8.1,7.1,12.9c0.1,0.3,0.2,0.6,0.4,0.9c0.3,1.6,0.5,3.2,0.5,4.9v17.5h-3.3v-17.5
		C182.9,116.7,181.8,115.6,180.4,115.6z M211.1,85.3c-1.1,11.7-9.7,21.3-21.3,23.5c-1.3-4.3-3.6-8.3-6.5-11.6
		c4.9-7.4,13.2-11.9,22.1-11.9H211.1z"/>
</g>
</svg>
