<?xml version="1.0" encoding="utf-8"?>
<!-- Generator: Adobe Illustrator 19.2.0, SVG Export Plug-In . SVG Version: 6.00 Build 0)  -->
<svg version="1.1" id="Capa_1" xmlns="http://www.w3.org/2000/svg" xmlns:xlink="http://www.w3.org/1999/xlink" x="0px" y="0px"
	 viewBox="0 0 259 243" style="enable-background:new 0 0 259 243;" xml:space="preserve">
<style type="text/css">
	.st0{fill:#E89049;}
	.st1{fill:#FFFFFF;stroke:#000000;stroke-width:5;stroke-linecap:round;stroke-linejoin:round;}
	.st2{fill:none;stroke:#000000;stroke-width:5;stroke-linecap:round;stroke-linejoin:round;}
</style>
<circle class="st0" cx="129.4" cy="121.5" r="121.5"/>
<path d="M469.4,267.2c0.9,0.1,1.3,0.2,1.7,0.2c-0.2,0.1-0.5,0.3-0.7,0.3C470.2,267.8,470.1,267.6,469.4,267.2z"/>
<g>
	<path class="st1" d="M129.5,30.7c-26.2,30-101.2,58-101.2,58h101.2h101.2C230.7,88.7,155.7,60.7,129.5,30.7z"/>
	<rect x="28.3" y="88.7" class="st1" width="202.3" height="18.7"/>
	<rect x="38.3" y="107.3" class="st1" width="13.3" height="90"/>
	<rect x="67.7" y="107.3" class="st1" width="13.3" height="90"/>
	<rect x="178" y="107.3" class="st1" width="13.3" height="90"/>
	<rect x="207.3" y="107.3" class="st1" width="13.3" height="90"/>
	<line class="st2" x1="28.3" y1="197.3" x2="230.7" y2="197.3"/>
</g>
</svg>
