<?xml version="1.0" encoding="utf-8"?>
<!-- Generator: Adobe Illustrator 19.2.0, SVG Export Plug-In . SVG Version: 6.00 Build 0)  -->
<svg version="1.1" id="Capa_1" xmlns="http://www.w3.org/2000/svg" xmlns:xlink="http://www.w3.org/1999/xlink" x="0px" y="0px"
	 viewBox="0 0 259 243" style="enable-background:new 0 0 259 243;" xml:space="preserve">
<style type="text/css">
	.st0{fill:#E89049;}
	.st1{fill:#FFFFFF;}
	.st2{fill:#F7F7F8;}
	.st3{fill:none;}
</style>
<circle class="st0" cx="129.4" cy="121.5" r="121.5"/>
<g>
	<path class="st1" d="M44.2,138.3c-3.5,0-6.9-0.8-10-2.3l-1,6.4l9.4,8.3l9.7-8.5v-5.4C49.8,137.8,47,138.3,44.2,138.3z"/>
	<path class="st1" d="M29.2,145.6l-14.4,7.8c-0.8,0.4-1.5,1.1-2.1,1.8l9.5,8.4c3.9,3.5,6.2,8.5,6.2,13.7v18h11.7v-40L29.2,145.6z"/>
	<path class="st1" d="M73.9,194.9v-34.2l-7.5,6.6c-2.9,2.5-4.5,6.2-4.5,10v18h11.7C73.8,195.2,73.9,195.1,73.9,194.9z"/>
	<path class="st1" d="M63.1,163.6l9.5-8.4c-0.5-0.7-1.2-1.3-2.1-1.8l-14.4-7.8l-10.9,9.6v40H57v-18C56.9,172,59.2,167,63.1,163.6z"
		/>
	<path class="st1" d="M23.4,177.3c0-3.8-1.6-7.4-4.5-10l-7.5-6.6v34.2c0,0.2,0.2,0.3,0.3,0.3h11.7V177.3z"/>
	<path class="st2" d="M10.4,156.5L10.4,156.5L10.4,156.5z"/>
	<path class="st2" d="M25.9,197.7L25.9,197.7L25.9,197.7z"/>
	<path class="st2" d="M59.4,197.7L59.4,197.7L59.4,197.7z"/>
	<line class="st3" x1="30.7" y1="142.6" x2="30.7" y2="142.6"/>
	<line class="st3" x1="54.9" y1="142.6" x2="54.9" y2="142.6"/>
	<path class="st1" d="M34.9,79.3c0.2-0.1,0.3-0.1,0.5-0.2c0.4-0.2,0.8-0.3,1.2-0.4c0.1,0,0.3-0.1,0.4-0.2c0.5-0.2,1.1-0.3,1.6-0.5
		c0.1,0,0.2,0,0.3-0.1c0.4-0.1,0.9-0.2,1.3-0.3c0.2,0,0.4-0.1,0.5-0.1c0.4-0.1,0.8-0.1,1.2-0.1c0.2,0,0.3,0,0.5,0
		c0.6,0,1.1-0.1,1.7-0.1c0.6,0,1.1,0,1.7,0.1c0.2,0,0.3,0,0.5,0c0.4,0,0.8,0.1,1.2,0.1c0.2,0,0.4,0.1,0.5,0.1
		c0.4,0.1,0.9,0.2,1.3,0.3c0.1,0,0.2,0,0.3,0.1c0.5,0.1,1.1,0.3,1.6,0.5c0.1,0,0.3,0.1,0.4,0.1c0.4,0.1,0.8,0.3,1.2,0.4
		c0.2,0.1,0.3,0.1,0.5,0.2c0.4,0.2,0.8,0.3,1.1,0.5c0.1,0.1,0.3,0.1,0.4,0.2c0.1,0,0.1,0.1,0.2,0.1c0.1-0.5,0.1-1.1,0.1-1.6
		c0-6.3-5-11.4-11.1-11.4s-11.1,5.1-11.1,11.4c0,0.5,0,1.1,0.1,1.6c0.1,0,0.1-0.1,0.2-0.1c0.1-0.1,0.3-0.1,0.4-0.2
		C34.1,79.6,34.5,79.4,34.9,79.3z"/>
	<path class="st1" d="M44.2,133.3c11,0,20.1-10,21.2-22.9c-1.2,0-2.4,0.1-3.5,0.1c-14.3,0-21.3-3.7-24.8-7.5
		c-3.5,4.2-10.5,6.1-14.2,6.9C23.8,123,33,133.3,44.2,133.3z"/>
	<path class="st1" d="M34.1,97.9v-0.2c0.2-2.2,1.6-2.6,2.2-2.6c0.3,0,2.1-0.1,2.8,1.9c2.1,5.9,11.8,9,26.2,8.5
		c-0.6-8-4.3-15.2-10.2-19.5c-3.3-2.4-7.1-3.7-11-3.7s-7.7,1.3-11,3.7c-5.7,4.1-9.4,11-10.1,18.8C27.7,103.7,33.8,101.3,34.1,97.9z"
		/>
	<path class="st1" d="M138.3,114.3c-3.9,2.3-8.3,3.6-12.9,3.6c-4.3,0-8.4-1.1-12.1-3.2c-0.7,3-1.8,6-2.3,7.3l14.4,12l15.6-12.9
		C140.1,119.5,139,117,138.3,114.3z"/>
	<path class="st1" d="M101.6,60.1c-4.2,7.4-4.2,14.6-4.2,19.9c0.3-0.1,0.7-0.3,1.3-0.5l0.2-0.1c1.1-0.5,4.9-3.3,8-5.7
		c1.1-0.9,2.7-0.7,3.5,0.4c0.9,1.1,0.7,2.7-0.4,3.5c-1.4,1.1-5.3,4.2-7.9,5.8c0,0.5,0,1,0,1.5c0,15.4,10.5,28,23.4,28
		s23.4-12.5,23.4-28c0-1.1-0.1-2.3-0.2-3.5c-9.8,0-28.2-1.6-37.8-12c-0.9-1-0.9-2.6,0.1-3.5s2.6-0.9,3.5,0.1
		c10,10.8,32.6,10.5,38.7,10.2c0.1-0.6,0.2-1.4,0.2-2.7c0-14.2-12.5-25.7-28-25.7C115.2,48,105.8,52.7,101.6,60.1z"/>
	<path class="st1" d="M106.2,124.6l-15.3,5.9c-4.1,1.6-7.4,4.4-9.4,8l8.6,8.1c4.3,4.1,6.8,9.8,6.8,15.7v32.9h26v-56.8L106.2,124.6z"
		/>
	<path class="st1" d="M91.9,162.3c0-4.6-1.9-9-5.2-12.1l-7.2-6.8c-0.4,1.5-0.5,3-0.5,4.5v11v35.9c0,0.2,0.1,0.3,0.3,0.3h12.7v-32.8
		H91.9z"/>
	<path class="st2" d="M78.4,139.1L78.4,139.1L78.4,139.1z"/>
	<path class="st2" d="M94.4,197.7L94.4,197.7L94.4,197.7z"/>
	<path class="st1" d="M160.8,146.6l8.6-8.1c-2.1-3.6-5.4-6.4-9.4-8l-15.3-5.9L128,138.5v56.8h26v-32.9
		C153.9,156.4,156.4,150.7,160.8,146.6z M150.6,165.7c0,0.9-0.5,1.8-1.4,2.2l-7.5,3.9c-0.4,0.2-0.8,0.3-1.1,0.3
		c-0.4,0-0.7-0.1-1.1-0.2l-7.5-3.6c-0.9-0.4-1.4-1.3-1.4-2.3v-14.6c0-1.4,1.1-2.5,2.5-2.5h15c1.4,0,2.5,1.1,2.5,2.5V165.7z"/>
	<path class="st1" d="M171.9,194.9v-35.5V148c0-1.6-0.2-3.1-0.5-4.5l-7.2,6.8c-3.3,3.1-5.2,7.5-5.2,12.1v32.9h12.7
		C171.8,195.2,171.9,195.1,171.9,194.9z"/>
	<path class="st2" d="M156.4,197.7L156.4,197.7L156.4,197.7z"/>
	<path class="st2" d="M111.4,110.2L111.4,110.2L111.4,110.2z"/>
	<path class="st2" d="M140.1,110.2L140.1,110.2L140.1,110.2z"/>
	<polygon class="st1" points="135.6,164.4 140.6,166.8 145.6,164.2 145.6,153.8 135.6,153.8 	"/>
	<path d="M148.1,148.8h-15c-1.4,0-2.5,1.1-2.5,2.5v14.6c0,1,0.5,1.8,1.4,2.3l7.5,3.6c0.3,0.2,0.7,0.2,1.1,0.2c0.4,0,0.8-0.1,1.1-0.3
		l7.5-3.9c0.8-0.4,1.4-1.3,1.4-2.2v-14.4C150.6,150,149.5,148.8,148.1,148.8z M145.6,164.2l-5,2.6l-5-2.4v-10.6h10V164.2z"/>
	<path class="st1" d="M212.1,147.9l11.3-9.4c-0.5-1.1-1.2-2.6-1.7-4.2c-2.9,1.6-6.2,2.5-9.6,2.5c-3.2,0-6.2-0.8-9-2.2
		c-0.5,1.8-1.1,3.6-1.5,4.6L212.1,147.9z"/>
	<path class="st1" d="M212.1,131.8c9.6,0,17.5-9.4,17.5-21c0-0.6,0-1.3-0.1-2c-6.8-0.1-18.4-1.2-26.1-6.9c-1.4,3-4,6.9-8.7,8.5
		c0,0.1,0,0.3,0,0.4C194.8,122.4,202.5,131.8,212.1,131.8z"/>
	<path class="st1" d="M194.4,92c-3,5.2-3.2,10.3-3.2,14.2c0.1,0,0.1,0,0.2-0.1l3.8-1.6v0.1c3.6-2.5,4.7-7.5,4.8-7.5l0,0
		c0.1-0.5,0.4-0.9,0.7-1.3c0.1-0.1,0.2-0.2,0.4-0.3l0,0c0.1-0.1,0.3-0.2,0.4-0.2l0,0c0.1-0.1,0.3-0.1,0.4-0.1l0,0
		c0.8-0.1,1.6,0.1,2.2,0.7c0,0,0,0,0.1,0l0,0c7.3,7.9,23.8,8,28.9,7.9c0.1-0.4,0.1-0.9,0.1-1.7c0-10.6-9.4-19.2-21-19.2
		C204.5,83,197.5,86.5,194.4,92z"/>
	<path class="st1" d="M209.6,195.2v-42.9L197.2,142l-11.5,4.5c-2.9,1.1-5.2,3.1-6.7,5.6l6.3,5.9c3.5,3.2,5.4,7.8,5.4,12.5v24.8h18.9
		L209.6,195.2L209.6,195.2z"/>
	<path class="st1" d="M185.8,170.5c0-3.4-1.4-6.6-3.9-8.9l-4.8-4.5c-0.1,0.8-0.2,1.6-0.2,2.4V195v0.3h8.9V170.5z"/>
	<path class="st2" d="M175.9,152.6L175.9,152.6L175.9,152.6z"/>
	<path class="st2" d="M188.2,197.7L188.2,197.7L188.2,197.7z"/>
	<path class="st1" d="M238.9,157.9l6.3-5.9c-1.6-2.5-3.9-4.4-6.7-5.6l-11.5-4.5l-12.4,10.3v42.9h18.9v-24.8
		C233.5,165.7,235.5,161.2,238.9,157.9z"/>
	<path d="M240.4,141.8l-12-4.7c-0.7-1.3-1.8-3.7-2.2-6c5.2-4.8,8.5-12.1,8.5-20.3c0-0.5,0-1,0-1.5c0.5-0.2,1-0.4,1.4-0.8
		c0.3-0.3,0.6-0.6,0.8-0.9c0.1-0.1,0.1-0.1,0.2-0.2c1-1.6,1.2-3.7,1.2-5.3c0-13.4-11.7-24.2-26-24.2c-9.6,0-18.1,4.4-22.2,11.6
		c-3.9,6.8-3.9,13.4-3.8,17.7v1.1c0,1.2,0.5,2.2,1.4,2.8c0.6,0.4,1.3,0.6,2.1,0.6c0.2,8.2,3.7,15.4,9,19.9c-0.3,1.6-0.9,3.5-1.4,5
		l-13.4,5.2c-2.8,1.1-5.2,2.8-7.1,4.8c-0.5-9.3-6.3-17.4-15.1-20.8l-15.8-6.2c-0.8-1.5-2.7-5.1-3.1-8.6c6.7-6,11.1-15.5,11.1-26.1
		c0-0.8,0-1.6-0.1-2.5c0.8-0.2,1.5-0.5,2.1-1c0.4-0.3,0.7-0.7,0.9-1c0.1-0.2,0.2-0.3,0.3-0.5c1.1-1.9,1.3-4.4,1.3-6.3
		c0-16.9-14.8-30.7-33-30.7c-12.2,0-22.9,5.6-28.1,14.7c-5,8.7-4.9,17.1-4.9,22.6c0,0.5,0,0.9,0,1.4c0,1.8,1,2.7,1.5,3
		c0.9,0.6,1.9,0.7,3,0.6c0.1,10.9,4.7,20.5,11.8,26.4c-0.3,2.3-1.3,5.3-2,7.3L89,125.8c-9.2,3.6-15.2,12.3-15.2,22.2v1.6
		c-0.3-0.2-0.7-0.4-1-0.6l-15.5-8.4v-6.4c7.8-5.3,13.1-15.1,13.1-26.4c0-9.9-4-19-10.9-24.7c0.4-1.5,0.7-3.1,0.7-4.6
		c0-9.1-7.2-16.4-16.1-16.4S28,69.5,28,78.5c0,1.6,0.2,3.1,0.7,4.6c-6.9,5.7-10.9,14.8-10.9,24.7c0,10.6,4.7,19.9,11.7,25.4
		l-1.1,7.1l-16.1,8.6c-3.7,2-6,5.8-6,10v35.9c0,2.9,2.4,5.3,5.3,5.3h28.5h5h28.4c1,0,2-0.3,2.8-0.8c0.8,0.5,1.8,0.8,2.8,0.8h43.7h5
		h43.7c0.9,0,1.8-0.3,2.6-0.7c0.7,0.4,1.5,0.7,2.4,0.7h33.1h5h33.1c2.6,0,4.7-2.1,4.7-4.7v-36.1
		C252.4,151.6,247.6,144.7,240.4,141.8z M247.4,159.5v35.8h-8.9v-24.8c0-3.4,1.4-6.6,3.9-8.9l4.8-4.5
		C247.4,157.9,247.4,158.7,247.4,159.5z M214.6,195.2v-42.9L227,142l11.5,4.5c2.9,1.1,5.2,3.1,6.7,5.6L239,158
		c-3.5,3.2-5.4,7.8-5.4,12.5v24.8h-18.9L214.6,195.2L214.6,195.2z M176.9,195.2v-0.3v-35.5c0-0.8,0.1-1.6,0.2-2.4l4.8,4.5
		c2.4,2.3,3.9,5.5,3.9,8.9v24.8H176.9z M127.9,195.2v-56.8l16.7-13.9l15.3,5.9c4.1,1.6,7.4,4.4,9.4,8l-8.6,8.1
		c-4.3,4.1-6.8,9.8-6.8,15.7v32.9h-26L127.9,195.2L127.9,195.2z M122.9,195.2h-26v-32.9c0-5.9-2.5-11.7-6.8-15.7l-8.6-8.1
		c2.1-3.6,5.4-6.4,9.4-8l15.3-5.9l16.7,13.9L122.9,195.2L122.9,195.2z M79.2,195.2c-0.2,0-0.3-0.1-0.3-0.3V159v-11
		c0-1.6,0.2-3.1,0.5-4.5l7.2,6.8c3.3,3.1,5.2,7.5,5.2,12.1v32.9H79.2L79.2,195.2L79.2,195.2z M45.1,195.2v-40l10.9-9.6l14.4,7.8
		c0.8,0.4,1.5,1.1,2.1,1.8l-9.5,8.4c-3.9,3.5-6.2,8.5-6.2,13.7v18L45.1,195.2L45.1,195.2z M40.1,155.2v40H28.3v-18
		c0-5.2-2.3-10.2-6.2-13.7l-9.5-8.4c0.5-0.7,1.2-1.3,2.1-1.8l14.4-7.8L40.1,155.2z M11.7,195.2c-0.2,0-0.3-0.1-0.3-0.3v-34.2
		l7.5,6.6c2.9,2.5,4.5,6.2,4.5,10v18H11.7C11.7,195.3,11.7,195.2,11.7,195.2z M10.4,156.5L10.4,156.5L10.4,156.5L10.4,156.5z
		 M33.2,80.1c-0.1-0.5-0.1-1.1-0.1-1.6c0-6.3,5-11.4,11.1-11.4s11.1,5.1,11.1,11.4c0,0.5,0,1.1-0.1,1.6c-0.1,0-0.1-0.1-0.2-0.1
		c-0.1-0.1-0.3-0.1-0.4-0.2c-0.4-0.2-0.8-0.4-1.1-0.5c-0.2-0.1-0.3-0.1-0.5-0.2c-0.4-0.2-0.8-0.3-1.2-0.4c-0.1,0-0.3-0.1-0.4-0.1
		c-0.5-0.2-1.1-0.3-1.6-0.5c-0.1,0-0.2,0-0.3-0.1c-0.4-0.1-0.9-0.2-1.3-0.3c-0.2,0-0.4-0.1-0.5-0.1c-0.4-0.1-0.8-0.1-1.2-0.1
		c-0.2,0-0.3,0-0.5,0c-0.6,0-1.1-0.1-1.7-0.1c-0.6,0-1.1,0-1.7,0.1c-0.2,0-0.3,0-0.5,0c-0.4,0-0.8,0.1-1.2,0.1
		c-0.2,0-0.4,0.1-0.5,0.1c-0.4,0.1-0.9,0.2-1.3,0.3c-0.1,0-0.2,0-0.3,0.1c-0.5,0.1-1.1,0.3-1.6,0.5c-0.1,0-0.3,0.1-0.4,0.2
		c-0.4,0.1-0.8,0.3-1.2,0.4c-0.2,0.1-0.3,0.1-0.5,0.2c-0.4,0.2-0.8,0.3-1.1,0.5c-0.1,0.1-0.3,0.1-0.4,0.2
		C33.3,80,33.2,80.1,33.2,80.1z M33.1,86c3.3-2.4,7.1-3.7,11-3.7s7.7,1.3,11,3.7c5.9,4.3,9.6,11.4,10.2,19.5
		c-14.4,0.6-24.1-2.5-26.2-8.5c-0.7-2-2.4-1.9-2.8-1.9c-0.6,0.1-2,0.5-2.2,2.6v0.2c-0.3,3.4-6.4,5.8-11.1,6.9
		C23.8,97,27.4,90.1,33.1,86z M37.1,103.1c3.5,3.8,10.5,7.5,24.8,7.5c1.1,0,2.3,0,3.5-0.1c-1.1,12.8-10.2,22.9-21.2,22.9
		C33,133.4,23.9,123.1,23,110C26.6,109.2,33.6,107.3,37.1,103.1z M54.9,142.6L54.9,142.6L54.9,142.6z M42.6,150.8l-9.4-8.3l1-6.4
		c3.1,1.5,6.5,2.3,10,2.3c2.9,0,5.6-0.5,8.2-1.5v5.4L42.6,150.8z M30.7,142.6L30.7,142.6L30.7,142.6z M61.9,195.2v-18
		c0-3.8,1.6-7.4,4.5-10l7.5-6.6v34.2c0,0.2-0.2,0.3-0.3,0.3H61.9V195.2z M78.4,139.1L78.4,139.1L78.4,139.1L78.4,139.1z M153.4,73.7
		c0,1.3-0.1,2.1-0.2,2.7c-6.1,0.3-28.7,0.5-38.7-10.2c-0.9-1-2.5-1.1-3.5-0.1c-1,0.9-1.1,2.5-0.1,3.5c9.6,10.4,28,11.9,37.8,12
		c0.1,1.2,0.2,2.3,0.2,3.5c0,15.4-10.5,28-23.4,28s-23.4-12.5-23.4-28c0-0.5,0-1,0-1.5c2.6-1.6,6.6-4.7,7.9-5.8
		c1.1-0.9,1.3-2.4,0.4-3.5c-0.9-1.1-2.4-1.3-3.5-0.4c-3,2.4-6.9,5.2-8,5.7l-0.2,0.1c-0.5,0.2-0.9,0.4-1.3,0.5c0-5.3,0-12.5,4.2-19.9
		s13.6-12.2,23.8-12.2C140.8,48,153.4,59.5,153.4,73.7z M111.4,110.2L111.4,110.2L111.4,110.2L111.4,110.2z M110.9,122
		c0.5-1.3,1.6-4.3,2.3-7.3c3.7,2,7.8,3.2,12.1,3.2c4.6,0,9-1.3,12.9-3.6c0.7,2.7,1.8,5.2,2.7,6.8L125.3,134L110.9,122z M140.1,110.2
		L140.1,110.2L140.1,110.2L140.1,110.2z M158.9,195.2v-32.9c0-4.6,1.9-9,5.2-12.1l7.2-6.8c0.4,1.5,0.5,3,0.5,4.5v11.4v35.5
		c0,0.2-0.2,0.3-0.3,0.3H159L158.9,195.2L158.9,195.2z M175.9,152.6L175.9,152.6L175.9,152.6L175.9,152.6z M185.4,157.9l-6.3-5.9
		c1.6-2.5,3.9-4.4,6.7-5.6l11.5-4.5l12.4,10.3v42.9h-18.9v-24.8C190.8,165.7,188.9,161.2,185.4,157.9z M233.1,102.2
		c0,0.7,0,1.3-0.1,1.7c-5.1,0.2-21.5,0-28.9-7.9l0,0c0,0,0,0-0.1,0c-0.6-0.6-1.4-0.8-2.2-0.7l0,0c-0.1,0-0.3,0.1-0.4,0.1l0,0
		c-0.1,0.1-0.3,0.1-0.4,0.2l0,0c-0.1,0.1-0.2,0.2-0.4,0.3c-0.4,0.4-0.6,0.8-0.7,1.3l0,0c0,0.1-1.2,5-4.8,7.5v-0.1l-3.8,1.6
		c-0.1,0-0.1,0-0.2,0.1c0-3.9,0.2-9,3.2-14.2c3.2-5.5,10.2-9.1,17.8-9.1C223.8,83,233.1,91.6,233.1,102.2z M194.8,110.5
		c4.7-1.5,7.4-5.5,8.7-8.5c7.7,5.7,19.3,6.8,26.1,6.9c0.1,0.7,0.1,1.3,0.1,2c0,11.6-7.8,21-17.5,21c-9.6,0-17.5-9.4-17.5-21
		C194.8,110.7,194.8,110.6,194.8,110.5z M212.1,136.8c3.4,0,6.7-0.9,9.6-2.5c0.5,1.6,1.1,3.1,1.7,4.2l-11.3,9.4l-10.4-8.7
		c0.4-1,1-2.7,1.5-4.6C205.9,136.1,208.9,136.8,212.1,136.8z M248.4,152.6L248.4,152.6L248.4,152.6L248.4,152.6z M25.9,197.7
		L25.9,197.7L25.9,197.7L25.9,197.7z M59.4,197.7L59.4,197.7L59.4,197.7L59.4,197.7z M94.4,197.7L94.4,197.7L94.4,197.7L94.4,197.7z
		 M156.4,197.7L156.4,197.7L156.4,197.7L156.4,197.7z M188.2,197.7L188.2,197.7L188.2,197.7L188.2,197.7z M236,197.7L236,197.7
		L236,197.7L236,197.7z"/>
	<path class="st1" d="M242.4,161.6c-2.4,2.3-3.9,5.5-3.9,8.9v24.8h8.9v-35.8c0-0.8-0.1-1.6-0.2-2.4L242.4,161.6z"/>
	<path class="st2" d="M248.4,152.6L248.4,152.6L248.4,152.6z"/>
	<path class="st2" d="M236,197.7L236,197.7L236,197.7z"/>
</g>
</svg>
