<?xml version="1.0" encoding="utf-8"?>
<!-- Generator: Adobe Illustrator 19.2.0, SVG Export Plug-In . SVG Version: 6.00 Build 0)  -->
<svg version="1.1" id="Capa_1" xmlns="http://www.w3.org/2000/svg" xmlns:xlink="http://www.w3.org/1999/xlink" x="0px" y="0px"
	 viewBox="0 0 259 243" style="enable-background:new 0 0 259 243;" xml:space="preserve">
<style type="text/css">
	.st0{fill:#E89049;}
	.st1{fill:#FFFFFF;stroke:#000000;stroke-width:5;stroke-linecap:round;stroke-linejoin:round;stroke-miterlimit:10;}
	.st2{fill:none;stroke:#000000;stroke-width:5;stroke-miterlimit:10;}
</style>
<circle class="st0" cx="129.4" cy="121.5" r="121.5"/>
<path d="M469.4,267.2c0.9,0.1,1.3,0.2,1.7,0.2c-0.2,0.1-0.5,0.3-0.7,0.3C470.2,267.8,470.1,267.6,469.4,267.2z"/>
<g>
	<path class="st1" d="M79.3,100.8l-8.1-18l-32.1,33.9l19.7,30.7l24.2-14v0l0.6-8.9C84.2,116.3,82.7,108.2,79.3,100.8z"/>
	<path class="st1" d="M129.4,103.8c3.3-0.1,26-1.8,31.7-32c0,0-4.3,12.8-31.7,14.1C102,84.5,97.7,71.7,97.7,71.7
		C103.4,102,126.1,103.7,129.4,103.8z"/>
	<path class="st1" d="M219.7,116.7l-32.1-33.9l-8.1,18c-3.4,7.4-4.8,15.5-4.3,23.7l0.6,8.9l24.2,14L219.7,116.7z"/>
	<path class="st1" d="M179.5,100.8l8.1-18l-26.5-11.1c-5.7,30.2-28.4,31.9-31.7,32c-3.3-0.1-26-1.8-31.7-32L71.2,82.8l8.1,18
		c3.4,7.4,4.8,15.5,4.3,23.7l-0.6,8.9l-6.3,98.1H129h0.8H182l-6.3-98.1l-0.6-8.9C174.6,116.3,176.1,108.2,179.5,100.8z"/>
</g>
<polyline class="st2" points="97.7,71.7 129.4,60.6 161.1,71.7 "/>
<path class="st2" d="M128.5,61.2V47.6h0.9c9.2,0,16.7-7.5,16.7-16.7v-2.7c0-9.2-7.5-16.7-16.7-16.7h0c-9.2,0-16.7,7.5-16.7,16.7v4.6
	"/>
</svg>
