<?xml version="1.0" encoding="utf-8"?>
<!-- Generator: Adobe Illustrator 19.2.0, SVG Export Plug-In . SVG Version: 6.00 Build 0)  -->
<svg version="1.1" id="Capa_1" xmlns="http://www.w3.org/2000/svg" xmlns:xlink="http://www.w3.org/1999/xlink" x="0px" y="0px"
	 viewBox="0 0 259 243" style="enable-background:new 0 0 259 243;" xml:space="preserve">
<style type="text/css">
	.st0{fill:#E89049;}
	.st1{fill:none;stroke:#000000;stroke-width:5;stroke-linecap:round;stroke-linejoin:round;stroke-miterlimit:10;}
	.st2{fill:#FFFFFF;stroke:#000000;stroke-width:5;stroke-linecap:round;stroke-linejoin:round;stroke-miterlimit:10;}
	.st3{fill:#FFFFFF;}
</style>
<circle class="st0" cx="129.4" cy="121.5" r="121.5"/>
<path d="M469.4,267.2c0.9,0.1,1.3,0.2,1.7,0.2c-0.2,0.1-0.5,0.3-0.7,0.3C470.2,267.8,470.1,267.6,469.4,267.2z"/>
<g>
	<line class="st1" x1="73.9" y1="102.8" x2="73.9" y2="137"/>
	<path class="st2" d="M205.5,201H54.6c-1.9,0-3.4-1.5-3.4-3.4v-39.9c0-6.2,5-11.2,11.2-11.2h85.3c6.2,0,11.2-5,11.2-11.2V120
		c0-6.2-5-11.2-11.2-11.2H92.5c-3.5,0-6.3,2.8-6.3,6.3l0,5.7c0,2-1.6,3.7-3.7,3.7H65.4c-2,0-3.7-1.6-3.7-3.7V73.3
		c0-6.2,5-11.2,11.2-11.2h124.9c6.2,0,11.2,5,11.2,11.2v124.2C209,199.5,207.4,201,205.5,201z"/>
	<path class="st2" d="M171.5,109.9l36.1,48c0,0,10.6-5.7,10.8-6.2c0.3-0.5-8.1-56.4-8.1-56.4L171.5,109.9z"/>
	<circle class="st2" cx="191.9" cy="99.9" r="24.7"/>
	<circle class="st2" cx="191.9" cy="99.9" r="12.3"/>
	<circle class="st2" cx="213.6" cy="151.6" r="12.3"/>
	<circle class="st2" cx="93.4" cy="87.6" r="12.2"/>
	<g>
		<circle class="st3" cx="167.2" cy="189.5" r="1.4"/>
		<path d="M167.2,185.6c-2.1,0-3.9,1.7-3.9,3.9s1.7,3.9,3.9,3.9c2.1,0,3.9-1.7,3.9-3.9S169.3,185.6,167.2,185.6L167.2,185.6z"/>
	</g>
	<g>
		<circle class="st3" cx="180.2" cy="189.5" r="1.4"/>
		<path d="M180.2,185.6c-2.1,0-3.9,1.7-3.9,3.9s1.7,3.9,3.9,3.9s3.9-1.7,3.9-3.9S182.4,185.6,180.2,185.6L180.2,185.6z"/>
	</g>
	<g>
		<circle class="st3" cx="193.2" cy="189.5" r="1.4"/>
		<path d="M193.2,185.6c-2.1,0-3.9,1.7-3.9,3.9s1.7,3.9,3.9,3.9c2.1,0,3.9-1.7,3.9-3.9S195.4,185.6,193.2,185.6L193.2,185.6z"/>
	</g>
	<circle class="st2" cx="136.4" cy="87.6" r="12.2"/>
	<line class="st1" x1="88" y1="28" x2="88" y2="62.2"/>
	<line class="st1" x1="120.5" y1="28" x2="120.5" y2="62.2"/>
	<rect x="51.1" y="167.9" class="st2" width="157.8" height="9.8"/>
	<polygon class="st2" points="93.8,32.9 99.3,28 88.3,28 87.6,28 76.6,28 82.1,32.9 82.1,48.3 76.6,53.8 87.6,53.8 88.3,53.8 
		99.3,53.8 93.8,48.3 	"/>
	<polygon class="st2" points="126.1,32.9 131.5,28 120.6,28 119.9,28 108.9,28 114.3,32.9 114.3,48.3 108.9,53.8 119.9,53.8 
		120.6,53.8 131.5,53.8 126.1,48.3 	"/>
</g>
</svg>
