<?xml version="1.0" encoding="utf-8"?>
<!-- Generator: Adobe Illustrator 19.2.0, SVG Export Plug-In . SVG Version: 6.00 Build 0)  -->
<svg version="1.1" id="Capa_1" xmlns="http://www.w3.org/2000/svg" xmlns:xlink="http://www.w3.org/1999/xlink" x="0px" y="0px"
	 viewBox="0 0 259 243" style="enable-background:new 0 0 259 243;" xml:space="preserve">
<style type="text/css">
	.st0{fill:#E89049;}
	.st1{fill:#FFFFFF;stroke:#000000;stroke-width:5;stroke-linecap:round;stroke-linejoin:round;}
	.st2{fill:#FFFFFF;stroke:#000000;stroke-width:7;stroke-linecap:round;stroke-linejoin:round;}
</style>
<circle class="st0" cx="129.4" cy="121.5" r="121.5"/>
<path d="M469.4,267.2c0.9,0.1,1.3,0.2,1.7,0.2c-0.2,0.1-0.5,0.3-0.7,0.3C470.2,267.8,470.1,267.6,469.4,267.2z"/>
<g>
	<path class="st1" d="M220.4,103.7H38.6c0-29.9,40.7-54.2,90.9-54.2S220.4,73.7,220.4,103.7z"/>
	<path class="st1" d="M213.5,111.8H45.5v67.9c0,10.4,8.4,18.7,18.7,18.7h130.4c10.4,0,18.7-8.4,18.7-18.7V111.8z"/>
	<path class="st1" d="M212.8,113.9H46.2c-9.3,0-16.9-7.6-16.9-16.9v0c0-9.3,7.6-16.9,16.9-16.9h166.6c9.3,0,16.9,7.6,16.9,16.9v0
		C229.7,106.3,222.1,113.9,212.8,113.9z"/>
	<circle class="st1" cx="129.5" cy="36.8" r="12.3"/>
	<path class="st2" d="M102.4,129.7c4.3,4.2,4.9,10.9,1.5,15.8l-6,8.6c-3.1,4.4-2.9,10.3,0.3,14.5l6.4,8.4"/>
	<path class="st2" d="M129.5,129.7c4.3,4.2,4.9,10.9,1.5,15.8l-6,8.6c-3.1,4.4-2.9,10.3,0.3,14.5l6.4,8.4"/>
	<path class="st2" d="M156.5,129.7c4.3,4.2,4.9,10.9,1.5,15.8l-6,8.6c-3.1,4.4-2.9,10.3,0.3,14.5l6.4,8.4"/>
</g>
</svg>
