<?xml version="1.0" encoding="utf-8"?>
<!-- Generator: Adobe Illustrator 19.2.0, SVG Export Plug-In . SVG Version: 6.00 Build 0)  -->
<svg version="1.1" id="Capa_1" xmlns="http://www.w3.org/2000/svg" xmlns:xlink="http://www.w3.org/1999/xlink" x="0px" y="0px"
	 viewBox="0 0 259 243" style="enable-background:new 0 0 259 243;" xml:space="preserve">
<style type="text/css">
	.st0{fill:#E89049;}
	.st1{fill:#FFFFFF;stroke:#000000;stroke-width:5;stroke-miterlimit:10;}
</style>
<circle class="st0" cx="129.4" cy="121.5" r="121.5"/>
<g>
	<g>
		<path class="st1" d="M193.2,99.7h-77.5v-9.4c0-19.7,15.9-35.6,35.6-35.6h6.2c19.7,0,35.6,15.9,35.6,35.6V99.7z"/>
		<path class="st1" d="M107.2,117.4h94.4c2.8,0,5-2.2,5-5v-7.7c0-2.8-2.2-5-5-5h-94.4c-2.8,0-5,2.2-5,5v7.7
			C102.2,115.2,104.4,117.4,107.2,117.4z"/>
		<g>
			<path class="st1" d="M172.3,165.7c-3.9-1.1-12.9-2.4-16.8,4.3c-3.9,6.7,3.6,12.3,10.2,14.1c8.4,2.3,25.7,2.7,33.4-9.5
				c0.4-0.6-0.2-1.4-0.9-1.3c-3.1,0.4-4.8,1.6-11.4,0.6C182.7,173.2,180.1,167.9,172.3,165.7z"/>
			<path class="st1" d="M136.5,165.7c3.9-1.1,12.9-2.4,16.8,4.3c3.9,6.7-3.6,12.3-10.2,14.1c-8.4,2.3-25.7,2.7-33.4-9.5
				c-0.4-0.6,0.2-1.4,0.9-1.3c3.1,0.4,4.8,1.6,11.4,0.6C126.2,173.2,128.8,167.9,136.5,165.7z"/>
		</g>
		<path class="st1" d="M196.1,126.7h-41.6h-41.6c-0.9,0-1.7,0.7-1.7,1.7v3c0,0.9,0.7,1.7,1.7,1.7h0c1.9,0,3.5,1.6,3.5,3.5v3.5
			c0,8.8,7.2,16,16,16h0.7c8.4,0,15.3-6.8,15.3-15.3v0c0-3.4,2.8-6.2,6.2-6.2c3.4,0,6.2,2.8,6.2,6.2v0c0,8.4,6.8,15.3,15.3,15.3h0.7
			c8.8,0,16-7.2,16-16v-3.5c0-1.9,1.6-3.5,3.5-3.5c0.9,0,1.7-0.7,1.7-1.7v-3C197.7,127.4,197,126.7,196.1,126.7z"/>
	</g>
	<g>
		<path class="st1" d="M120.1,55.5H57.4c-2.8,0-5-2.3-5-5v-5.9c0-2.8,2.3-5,5-5h62.7c2.8,0,5,2.3,5,5v5.9
			C125.1,53.3,122.9,55.5,120.1,55.5z"/>
		<path class="st1" d="M120.1,203.4H57.4c-2.8,0-5-2.3-5-5v-5.9c0-2.8,2.3-5,5-5h62.7c2.8,0,5,2.3,5,5v5.9
			C125.1,201.2,122.9,203.4,120.1,203.4z"/>
		<rect x="60" y="55.5" class="st1" width="57.4" height="131.9"/>
		<path class="st1" d="M92.5,23.3h-9.6c-8.3,0-15,6.7-15,15v1.3h39.6v-1.3C107.4,30,100.7,23.3,92.5,23.3z"/>
		<path class="st1" d="M92.5,219.7h-9.6c-8.3,0-15-6.7-15-15v-1.3h39.6v1.3C107.4,213,100.7,219.7,92.5,219.7z"/>
		<line class="st1" x1="88.7" y1="55.5" x2="60" y2="78"/>
		<line class="st1" x1="117.5" y1="65.7" x2="60" y2="110.6"/>
		<line class="st1" x1="119.6" y1="96.7" x2="60" y2="143.3"/>
		<line class="st1" x1="117.5" y1="130.9" x2="60" y2="175.9"/>
		<line class="st1" x1="117.5" y1="163.6" x2="86.9" y2="187.5"/>
	</g>
</g>
</svg>
