<?xml version="1.0" encoding="utf-8"?>
<!-- Generator: Adobe Illustrator 19.2.0, SVG Export Plug-In . SVG Version: 6.00 Build 0)  -->
<svg version="1.1" id="Capa_1" xmlns="http://www.w3.org/2000/svg" xmlns:xlink="http://www.w3.org/1999/xlink" x="0px" y="0px"
	 viewBox="0 0 259 243" style="enable-background:new 0 0 259 243;" xml:space="preserve">
<style type="text/css">
	.st0{fill:#E89049;}
	.st1{fill:#FFFFFF;}
</style>
<circle class="st0" cx="129.4" cy="121.5" r="121.5"/>
<g>
	<path class="st1" d="M84.6,137.6c-0.8,0-1.5-0.3-1.9-0.9c-0.5-0.6-0.7-1.3-0.5-2.1l0.3-1.6c0.2-1,0.4-1.8,0.5-2.6
		c0.1-0.6,0.2-1.1,0.3-1.7c0.7-3.7,1.4-6.9,0.1-10.4c-1.3-3.8-0.5-8.4,0.4-11.5c5.3-18.1,15-33.7,28.8-46.5c5-4.6,10.7-7,17.1-7
		c0.9,0,1.8,0,2.7,0.1c7.6,0.8,12.3,4.6,14.9,12.1c4.5,12.9,9.1,26,13.7,38.7c1.6,4.5,3.2,9,4.8,13.4c0.4,1.1,0.8,2.1,1.3,3.3
		c0.2,0.6,0.5,1.2,0.7,1.9c0.3,0.8,0.2,1.8-0.4,2.5c-0.5,0.6-1.2,0.9-1.9,0.9c-0.1,0-0.3,0-0.4,0l-1.8-0.3c-0.1,0.1-0.1,0.2-0.2,0.3
		c-0.8,1.4-1.6,2.9-2.8,4.1c-1.8,1.7-4,2.6-6.4,2.6c-3.6,0-7-2.2-9.1-5.9c-3.6-6.5-7.1-13.1-10.4-19.6c-1.4-2.6-2.7-5.2-4.1-7.9
		c-0.1-0.2-0.2-0.4-0.3-0.7c-0.5,0.9-1,1.8-1.4,2.6c-3.5,6.5-6.9,12.6-10,18.8c0,0.4,0.2,1.3,0.3,1.8c0.2,0.6,0.3,1.2,0.4,1.9
		c0.1,0.7-0.1,1.5-0.6,2l-2.1,2.3c-2.2,2.4-4.5,4.9-6.9,7.3c-1,1-2.6,1.7-4,1.8c-3.8,0-7.6,0-11.5,0L84.6,137.6z"/>
	<path d="M129.9,55.7c0.8,0,1.6,0,2.5,0.1c6.8,0.7,10.6,4.1,12.8,10.4c6,17.4,12.3,34.8,18.4,52.2c0.6,1.6,1.2,3.2,2,5.3
		c-1.5-0.2-2.6-0.4-3.5-0.5c-1.2,1.9-2,3.9-3.4,5.3c-1.3,1.3-3,1.9-4.6,1.9c-2.6,0-5.2-1.6-6.9-4.6c-5-9-9.7-18.2-14.5-27.4
		c-0.6-1.2-1.2-2.3-2.5-4.9c-5,9.2-9.6,17.4-13.8,25.7c-0.7,1.3,0.3,3.5,0.5,5.1c-2.8,3.1-5.9,6.4-9,9.6c-0.5,0.5-1.5,1-2.2,1
		c-3.8,0-7.6,0.1-11.5,0.1c-3.2,0-6.4,0-9.7,0c0.4-1.8,0.7-3.1,0.9-4.3c0.8-4.4,2-8.6,0.4-13.4c-1-2.9-0.4-6.8,0.5-10
		C91.6,89.7,101,74.5,114.5,62C118.9,57.9,124,55.7,129.9,55.7 M129.9,50.7C129.9,50.7,129.9,50.7,129.9,50.7
		c-7,0-13.3,2.6-18.8,7.6C96.9,71.4,87,87.5,81.6,106c-1,3.5-1.9,8.6-0.4,13.1c1,2.9,0.5,5.6-0.2,9.1c-0.1,0.6-0.2,1.1-0.3,1.7
		c-0.2,0.8-0.3,1.6-0.5,2.6c-0.1,0.5-0.2,1.1-0.3,1.7c-0.3,1.5,0.1,3,1,4.2c0.9,1.2,2.4,1.8,3.9,1.8l4.9,0l4.8,0
		c3.4,0,7.4,0,11.5-0.1c2.1,0,4.3-1,5.8-2.5c2.4-2.5,4.7-4.9,6.9-7.3c0.7-0.8,1.4-1.6,2.1-2.3c1-1.1,1.5-2.6,1.3-4.1
		c-0.1-0.8-0.3-1.5-0.5-2.2c-0.1-0.2-0.1-0.5-0.2-0.8c2.8-5.5,5.7-10.9,8.8-16.6c0.8,1.5,1.5,2.9,2.3,4.4
		c3.4,6.4,6.9,13.1,10.5,19.6c2.5,4.5,6.7,7.1,11.3,7.1c3,0,5.9-1.2,8.1-3.4c1.1-1.1,1.9-2.3,2.6-3.4l0,0c0.3,0,0.5,0.1,0.8,0.1
		c1.5,0,2.9-0.7,3.9-1.9c1.1-1.4,1.4-3.3,0.8-4.9c-0.3-0.7-0.5-1.3-0.7-1.9c-0.5-1.2-0.9-2.2-1.2-3.2c-1.6-4.5-3.2-9-4.8-13.5
		c-4.5-12.7-9.2-25.8-13.6-38.7c-2.9-8.4-8.5-12.9-17-13.8C131.9,50.7,130.9,50.7,129.9,50.7L129.9,50.7z"/>
</g>
<g>
	<path class="st1" d="M160.9,67.8c-12.8,0-22.9-10.1-23-22.9c0-13,10-23.2,22.8-23.4l0.3,0c12.5,0,22.9,10.3,23.1,23
		c0.1,6.1-2.2,11.9-6.5,16.3c-4.4,4.5-10.2,7-16.4,7L160.9,67.8z"/>
	<path d="M161,24c11.1,0,20.4,9.3,20.6,20.5c0.2,11.3-9.1,20.6-20.5,20.8c-0.1,0-0.1,0-0.2,0c-11.4,0-20.4-9-20.5-20.4
		c0-11.5,9-20.7,20.3-20.9C160.9,24,161,24,161,24 M161,19C161,19,161,19,161,19l-0.3,0c-14.2,0.2-25.3,11.5-25.3,25.9
		c0,6.8,2.7,13.2,7.5,18c4.8,4.8,11.2,7.4,18,7.4l0.3,0c6.9-0.1,13.4-2.8,18.2-7.8c4.8-4.9,7.3-11.3,7.2-18
		C186.4,30.4,175,19,161,19L161,19z"/>
</g>
<g>
	<path class="st1" d="M79.4,225.5c-1.1,0-2.3-0.1-3.3-0.4c-7.2-1.9-11.6-8.6-10.3-15.6c0.9-5.1,2.1-10.4,3.5-16.2
		c0.5-1.9,2.7-4.1,4.9-4.2c4-0.1,8-0.1,11.1-0.1c1.7,0,3.3,0,5,0c1.7,0,3.5,0,5.2,0c0.8,0,1.5,0.3,1.9,0.9c0.5,0.6,0.7,1.4,0.5,2.1
		c-0.6,2.5-1.1,5-1.6,7.4c-1.2,5.7-2.3,11.1-3.8,16.5C91.1,221.5,85.5,225.5,79.4,225.5z"/>
	<path d="M85.2,191.5c3.3,0,6.7,0,10.2,0c-1.8,8.3-3.3,16.1-5.3,23.8c-1.2,4.7-6,7.7-10.8,7.7c-0.9,0-1.8-0.1-2.7-0.3
		c-5.8-1.5-9.6-7-8.5-12.7c1-5.4,2.2-10.7,3.5-16c0.2-1,1.6-2.3,2.5-2.3C77.8,191.5,81.5,191.5,85.2,191.5 M85.2,186.5
		c-3.1,0-7.1,0-11.1,0.1c-3.4,0.1-6.5,3.2-7.2,6.1c-1.5,5.9-2.7,11.2-3.6,16.3c-1.5,8.3,3.7,16.3,12.2,18.5c1.3,0.3,2.6,0.5,4,0.5
		c7.3,0,13.8-4.8,15.6-11.4c1.4-5.5,2.6-10.9,3.8-16.6c0.5-2.4,1-4.9,1.6-7.4c0.3-1.5,0-3-1-4.2c-0.9-1.2-2.4-1.9-3.9-1.9
		c-1.8,0-3.5,0-5.2,0C88.5,186.5,86.8,186.5,85.2,186.5L85.2,186.5z"/>
</g>
<g>
	<path class="st1" d="M132,225.5c-6.9,0-12.4-4.7-13.5-11.4c-0.8-5-1.3-9.9-1.9-15.2c-0.2-2.2-0.5-4.5-0.8-6.8
		c-0.1-0.7,0.1-1.4,0.6-2c0.5-0.5,1.2-0.8,1.9-0.8h23c1.3,0,2.4,1,2.5,2.2c0.2,2.1,0.5,4.1,0.7,6.2c0.6,4.8,1.2,9.7,1.2,14.6
		c0.1,6.9-5.6,12.6-13,13C132.6,225.5,132.3,225.5,132,225.5z"/>
	<path d="M141.4,191.9c0.7,6.9,1.8,13.8,1.9,20.6c0.1,5.8-4.9,10.1-10.6,10.5c-0.2,0-0.5,0-0.7,0c-5.4,0-10.1-3.7-11-9.3
		c-1.1-7.1-1.8-14.3-2.7-21.8C125.7,191.9,133,191.9,141.4,191.9 M141.4,186.9h-23c-1.4,0-2.8,0.6-3.7,1.7c-0.9,1.1-1.4,2.5-1.2,3.9
		c0.3,2.3,0.5,4.5,0.8,6.7c0.6,5.2,1.1,10.2,1.9,15.3c1.2,7.8,7.9,13.5,15.9,13.5c0.3,0,0.7,0,1,0c8.7-0.5,15.4-7.3,15.3-15.5
		c-0.1-5.1-0.7-10.1-1.3-14.9c-0.2-2-0.5-4.1-0.7-6.2C146.1,188.8,144,186.9,141.4,186.9L141.4,186.9z"/>
</g>
<path d="M469.4,267.2c0.9,0.1,1.3,0.2,1.7,0.2c-0.2,0.1-0.5,0.3-0.7,0.3C470.2,267.8,470.1,267.6,469.4,267.2z"/>
<g>
	<path class="st1" d="M226.5,223.9c-1.4,0-2.5-1.1-2.5-2.5v-29.3H33.9v29.1c0,1.4-1.1,2.5-2.5,2.5h-9.9c-1.4,0-2.5-1.1-2.5-2.5
		v-29.4c0,0-1.6,0-2.3,0c-0.9,0-1.7,0-2.6,0l-0.3,0c-5,0-8.1-3-8.3-7.9c-0.2-5.2-0.1-10.4,0-14.8c0.1-4.3,2.8-7.2,7.2-7.6
		c0.6-0.1,1.2-0.1,2-0.1c0.3,0,1.5,0,1.8,0c74.7,0,149.5,0,224.2,0c10,0,11.5,2.6,11.5,11.3c0,1,0,2,0,3.1c0,2.2,0,4.5,0,6.8
		c-0.1,6.5-2.9,9.2-9.5,9.3c-0.7,0-1.5,0-2.3,0l-1.8,0v29.6c0,1.4-1.1,2.5-2.5,2.5H226.5z"/>
	<path d="M240.8,163.9c8,0,9,1,9,8.8c0,3.3,0.1,6.5,0,9.8c-0.1,5.2-1.8,6.8-7,6.8c-0.7,0-1.4,0-2.2,0c-1.3,0-2.7,0-4.4,0
		c0,11,0,21.4,0,32.1c-3.4,0-6.3,0-9.7,0c0-10.6,0-21,0-31.8c-65.3,0-130,0-195.1,0c0,10.5,0,20.9,0,31.6c-3.4,0-6.4,0-9.9,0
		c0-10.5,0-20.9,0-31.9c-1.8,0-3.3,0-4.8,0c-0.9,0-1.8,0-2.7,0c-0.1,0-0.2,0-0.3,0c-3.6,0-5.6-1.9-5.8-5.5c-0.2-4.9-0.1-9.8,0-14.6
		c0.1-3.1,1.9-4.9,5-5.2c0.6-0.1,1.2-0.1,1.8-0.1c0.6,0,1.2,0,1.8,0c0,0,0,0,0,0C91.3,163.9,166,163.9,240.8,163.9
		C240.8,163.9,240.8,163.9,240.8,163.9 M240.8,158.9L240.8,158.9c-74.7,0-149.5,0-224.2,0c-0.3,0-0.5,0-0.8,0c-0.3,0-0.6,0-0.9,0
		c-0.9,0-1.6,0-2.3,0.1c-5.7,0.6-9.4,4.4-9.5,10.1c-0.1,4.4-0.2,9.7,0,14.9c0.2,6.3,4.4,10.4,10.8,10.4c0.1,0,0.3,0,0.4,0
		c0.7,0,1.4,0,2.3,0v26.9c0,2.8,2.2,5,5,5h9.9c2.8,0,5-2.2,5-5v-26.6h185.1v26.8c0,2.8,2.2,5,5,5h9.7c2.8,0,5-2.2,5-5v-27.1
		c0.5,0,1.1,0,1.6,0c8-0.1,11.8-3.8,12-11.7c0-2.3,0-4.6,0-6.8c0-1,0-2,0-3.1c0-4.4-0.2-8.2-3-10.9
		C249,159.1,245.2,158.9,240.8,158.9L240.8,158.9z"/>
</g>
<g>
	<path class="st1" d="M107.5,162.5c-0.1,0-0.2,0-0.3,0l-36.9,0c-10.7,0-21.4,0-32,0c-6.8,0-12.5-4.5-13.7-10.8
		c-1.3-6.9,1.9-13.3,7.9-15.6c2.9-1.1,6.1-1.2,9.1-1.2c10.6,0,21.2-0.1,31.8-0.1c11,0,21.3,0,31.2,0.1c0,0,0,0,0,0
		c2.2,0,2.8-0.4,3.6-2c2.4-4.9,7.1-8.2,13-9.2c5.8-1.1,12.3-1.8,19.6-2.3c0.1,0,0.2,0,0.3,0c2.7,0,5.2,2.6,6.1,4
		c1.4,2.1,3.7,4.6,6.5,4.6c2.6,0,4.9-2.2,6.4-4c1-1.1,2.8-2.4,4.5-2.4c0.3,0,0.5,0,0.8,0.1c0.7,0.2,1.5,0.3,2.2,0.5
		c6.4,1.4,13,2.9,18.5,7.7c5.3,4.7,7.9,10.4,7.9,17.1c-0.1,6.7-3.8,11.2-10.3,12.4c-3.7,0.7-7.5,1-11.5,1c-10.7,0-21.5,0.1-32.2,0.1
		L107.5,162.5z"/>
	<path d="M141.2,123.8c1.3,0,3.2,1.6,4.1,2.9c2.6,3.8,5.5,5.7,8.5,5.7c2.8,0,5.6-1.6,8.3-4.9c0.6-0.7,1.8-1.5,2.6-1.5
		c0.1,0,0.2,0,0.2,0c6.9,1.6,14,2.8,19.6,7.7c4.6,4,7.1,9.1,7,15.2c-0.1,5.5-2.8,9-8.2,10c-3.6,0.7-7.3,1-11,1
		c-10.7,0-21.4,0.1-32.1,0.1c-10.9,0-21.8,0-32.7,0c0,0,0,0,0,0c-12.4,0-24.9,0-37.3,0c-10.6,0-21.3,0-31.9,0
		c-5.7,0-10.3-3.8-11.2-8.8c-1.1-5.6,1.3-10.9,6.4-12.8c2.5-0.9,5.5-1.1,8.3-1.1c10.6,0,21.2-0.1,31.8-0.1c10.4,0,20.8,0,31.3,0.1
		c0,0,0.1,0,0.1,0c2.8,0,4.4-0.7,5.7-3.4c2.3-4.5,6.5-7,11.2-7.9c6.4-1.2,12.9-1.8,19.3-2.3C141.2,123.8,141.2,123.8,141.2,123.8
		 M141.2,118.8c-0.1,0-0.3,0-0.4,0c-7.5,0.5-14,1.2-19.9,2.3c-6.7,1.2-12,5-14.8,10.6c-0.1,0.3-0.3,0.4-0.3,0.5
		c-0.1,0-0.4,0.1-1,0.1l-0.1,0c-10-0.1-20.2-0.1-31.3-0.1c-9.9,0-20.3,0-31.8,0.1c-3.3,0-6.7,0.2-10,1.4
		c-7.2,2.7-11.1,10.2-9.5,18.4c1.4,7.4,8.2,12.8,16.1,12.9c9.2,0,19.4,0,31.9,0c6.2,0,12.4,0,18.7,0c6.1,0,12.2,0,18.2,0
		c0.1,0,0.3,0,0.4,0c5.4,0,10.9,0,16.3,0c5.4,0,10.9,0,16.3,0c13,0,22.9,0,32.2-0.1c4.1,0,8.1-0.4,11.9-1.1
		c7.6-1.4,12.2-7,12.3-14.8c0.1-7.3-2.9-13.9-8.7-19c-5.9-5.2-13.2-6.9-19.6-8.3c-0.7-0.2-1.5-0.3-2.2-0.5c-0.4-0.1-0.9-0.2-1.4-0.2
		c-2.7,0-5.1,1.8-6.4,3.3c-1.6,1.9-3.3,3.1-4.5,3.1c-1.3,0-2.9-1.3-4.4-3.5C148.2,122,145,118.8,141.2,118.8L141.2,118.8z"/>
</g>
<g>
	<path class="st1" d="M217.8,163.7c-6.3,0-12.1-2.5-16.4-6.8c-4.3-4.3-6.6-10.2-6.5-16.4c0.1-12.9,10.2-23,23-23
		c12.8,0,23.1,10.5,23.1,23.2c0,12.7-10.3,23-23.1,23L217.8,163.7z"/>
	<path d="M217.9,120C217.9,120,217.9,120,217.9,120c11.4,0,20.6,9.4,20.6,20.7c0,11.2-9.3,20.5-20.6,20.5c-0.1,0-0.1,0-0.2,0
		c-11.5-0.1-20.5-9.2-20.4-20.7C197.5,129,206.5,120,217.9,120 M217.9,115C217.9,115,217.9,115,217.9,115
		c-14.2,0-25.4,11.2-25.5,25.5c-0.1,6.9,2.5,13.3,7.3,18.2c4.8,4.8,11.2,7.5,18.1,7.6l0.2,0c14.1,0,25.6-11.5,25.6-25.5
		C243.5,126.6,232.1,115,217.9,115L217.9,115L217.9,115z"/>
</g>
</svg>
